<?xml version="1.0" standalone="no"?>
<!DOCTYPE svg PUBLIC "-//W3C//DTD SVG 1.1//EN" "http://www.w3.org/Graphics/SVG/1.1/DTD/svg11.dtd" >
<svg>
<metadata>
Created by FontForge 20120731 at Mon Jul  1 07:44:08 2019
 By www
Copyright 2010 Monotype Imaging Inc. All rights reserved.
</metadata>
<defs>
<font id="HarmoniaSansW06-BoldCond" horiz-adv-x="370" >
  <font-face 
    font-family="HarmoniaSansW06-BoldCond"
    font-weight="700"
    font-stretch="condensed"
    units-per-em="1000"
    panose-1="2 11 8 6 3 4 2 2 2 4"
    ascent="800"
    descent="-200"
    x-height="479"
    cap-height="682"
    bbox="-161 -257 1144 957"
    underline-thickness="50"
    underline-position="-75"
    unicode-range="U+0020-FB04"
  />
<missing-glyph horiz-adv-x="500" 
d="M12 665h475v-665h-475v665zM250 375l161 243h-323zM60 91l7 10t18 27t25.5 39t29.5 45q35 54 81 121l-161 242v-484zM278 333l162 -243v485zM250 290l-162 -242h323z" />
    <glyph glyph-name="IJ" unicode="IJ" horiz-adv-x="576" 
d="M60 682h138v-682h-138v682zM382 682h138v-477q0 -60 -12 -102.5t-34.5 -68.5t-53.5 -38t-70 -12q-24 0 -48.5 3.5t-38.5 8.5v117q8 -3 24 -5t27 -2q38 0 53 21.5t15 75.5v479z" />
    <glyph glyph-name="ij" unicode="ij" horiz-adv-x="480" 
d="M56 479h128v-479h-128v479zM56 708h128v-124h-128v124zM424 479v-531q0 -41 -8.5 -75t-28 -58t-51 -37t-78.5 -13q-11 0 -29 2t-30 4v114q8 -2 19.5 -3t19.5 -1q33 0 45.5 15.5t12.5 52.5v530h128zM296 708h128v-124h-128v124z" />
    <glyph glyph-name="napostrophe" unicode="&#x27;n" horiz-adv-x="673" 
d="M211 479h126v-58q20 34 52 53.5t71 19.5q32 0 61.5 -11t52 -36t36 -66t13.5 -102v-279h-127v260q0 66 -19 91t-52 25q-41 0 -64.5 -32t-23.5 -108v-236h-126v479zM10 720h148v-78q0 -60 -15 -107.5t-41 -87.5h-73q17 25 27 57.5t13 65.5h-59v150z" />
    <glyph glyph-name="uniFB00" unicode="ff" horiz-adv-x="537" 
d="M10 479h55v66q0 46 7.5 80t26 57t50.5 34.5t82 11.5q13 0 28.5 -2t23.5 -4v-114q-8 2 -16.5 3t-18.5 1q-35 0 -45 -17t-10 -47v-69h141v66q0 46 7.5 80t26 57t50.5 34.5t82 11.5q13 0 28.5 -2t23.5 -4v-114q-8 2 -16.5 3t-18.5 1q-35 0 -45 -17t-10 -47v-69h74v-114h-74
v-365h-128v365h-141v-365h-128v365h-55v114z" />
    <glyph glyph-name="uniFB01" unicode="fi" horiz-adv-x="518" 
d="M10 479h55v66q0 46 7.5 80t26 57t50.5 34.5t82 11.5q13 0 28.5 -2t23.5 -4v-114q-8 2 -16.5 3t-18.5 1q-35 0 -45 -17t-10 -47v-69h74v-114h-74v-365h-128v365h-55v114zM334 479h128v-479h-128v479zM334 708h128v-124h-128v124z" />
    <glyph glyph-name="uniFB02" unicode="fl" horiz-adv-x="518" 
d="M10 479h55v66q0 46 7.5 80t26 57t50.5 34.5t82 11.5q13 0 28.5 -2t23.5 -4v-114q-8 2 -16.5 3t-18.5 1q-35 0 -45 -17t-10 -47v-69h74v-114h-74v-365h-128v365h-55v114zM334 720h128v-720h-128v720z" />
    <glyph glyph-name="uniFB03" unicode="ffi" horiz-adv-x="787" 
d="M603 479h128v-479h-128v479zM603 708h128v-124h-128v124zM10 479h55v66q0 46 7.5 80t26 57t50.5 34.5t82 11.5q13 0 28.5 -2t23.5 -4v-114q-8 2 -16.5 3t-18.5 1q-35 0 -45 -17t-10 -47v-69h141v66q0 46 7.5 80t26 57t50.5 34.5t82 11.5q13 0 28.5 -2t23.5 -4v-114
q-8 2 -16.5 3t-18.5 1q-35 0 -45 -17t-10 -47v-69h74v-114h-74v-365h-128v365h-141v-365h-128v365h-55v114z" />
    <glyph glyph-name="uniFB04" unicode="ffl" horiz-adv-x="787" 
d="M603 720h128v-720h-128v720zM10 479h55v66q0 46 7.5 80t26 57t50.5 34.5t82 11.5q13 0 28.5 -2t23.5 -4v-114q-8 2 -16.5 3t-18.5 1q-35 0 -45 -17t-10 -47v-69h141v66q0 46 7.5 80t26 57t50.5 34.5t82 11.5q13 0 28.5 -2t23.5 -4v-114q-8 2 -16.5 3t-18.5 1
q-35 0 -45 -17t-10 -47v-69h74v-114h-74v-365h-128v365h-141v-365h-128v365h-55v114z" />
    <glyph glyph-name=".notdef" horiz-adv-x="500" 
d="M12 665h475v-665h-475v665zM250 375l161 243h-323zM60 91l7 10t18 27t25.5 39t29.5 45q35 54 81 121l-161 242v-484zM278 333l162 -243v485zM250 290l-162 -242h323z" />
    <glyph glyph-name=".null" horiz-adv-x="0" 
 />
    <glyph glyph-name="nonmarkingreturn" horiz-adv-x="333" 
 />
    <glyph glyph-name="space" unicode=" " horiz-adv-x="260" 
 />
    <glyph glyph-name="exclam" unicode="!" horiz-adv-x="244" 
d="M55 130h134v-130h-134v130zM192 682l-13 -472h-114l-13 472h140z" />
    <glyph glyph-name="quotedbl" unicode="&#x22;" horiz-adv-x="392" 
d="M158 721l-8 -249h-99l-8 249h115zM349 721l-9 -249h-99l-7 249h115z" />
    <glyph glyph-name="numbersign" unicode="#" horiz-adv-x="524" 
d="M514 488l-17 -83h-86l-24 -133h89l-15 -83h-90l-34 -189h-91l34 189h-94l-35 -189h-91l35 189h-87l17 83h85l23 133h-88l16 83h88l36 194h92l-36 -194h94l36 194h91l-36 -194h88zM224 405l-24 -133h96l23 133h-95z" />
    <glyph glyph-name="dollar" unicode="$" horiz-adv-x="525" 
d="M324 486q-2 36 -21 55t-46 19q-30 0 -46.5 -17t-16.5 -39q0 -14 5 -25.5t18 -23.5t35.5 -25t58.5 -28q82 -35 115.5 -83t33.5 -117q0 -28 -8.5 -56t-26.5 -52.5t-46 -43t-66 -25.5v-80h-100v80q-84 11 -120.5 61t-38.5 131h132q1 -45 21 -69t58 -24q32 0 51.5 19.5
t19.5 51.5t-21.5 56.5t-80.5 50.5q-48 21 -80 43.5t-50.5 47t-26 50.5t-7.5 54q0 30 10.5 57t29 48t45 35.5t58.5 20.5v71h100v-71q69 -13 100.5 -59.5t36.5 -112.5h-126z" />
    <glyph glyph-name="percent" unicode="%" horiz-adv-x="709" 
d="M599 682l-400 -682h-88l399 682h89zM27 509q0 50 13.5 86t35 59t47.5 33.5t51 10.5q24 0 49 -9.5t45.5 -31.5t34 -58t13.5 -88q0 -57 -14.5 -95t-36.5 -60t-47 -31t-46 -9q-24 0 -49.5 10t-47 32.5t-35 59.5t-13.5 91zM221 508q0 55 -12.5 80.5t-36.5 25.5
q-22 0 -36 -23.5t-14 -81.5q0 -59 12.5 -84t38.5 -25q20 0 34 24t14 84zM393 176q0 50 13.5 86t35 59t47.5 34t51 11q24 0 49 -10t45.5 -32t34 -58t13.5 -88q0 -57 -15 -94.5t-36.5 -59.5t-47 -31t-46.5 -9q-24 0 -49.5 9.5t-46.5 32t-34.5 59.5t-13.5 91zM587 175
q0 56 -12.5 81.5t-37.5 25.5q-22 0 -35.5 -24t-13.5 -82q0 -59 12.5 -83.5t37.5 -24.5q20 0 34.5 23.5t14.5 83.5z" />
    <glyph glyph-name="ampersand" unicode="&#x26;" horiz-adv-x="553" 
d="M397 345h116v-7q0 -29 -4.5 -58t-12.5 -56t-18 -50t-20 -39q14 -17 29.5 -30t34.5 -13h10v-100q-6 -2 -18.5 -5t-22.5 -3q-39 0 -63.5 15.5t-47.5 43.5q-30 -27 -72 -43t-86 -16q-97 0 -148.5 53t-51.5 140q0 58 31 110t92 89q-25 39 -39 78.5t-14 80.5q0 30 10 59
t31 52.5t53.5 37.5t77.5 14q36 0 67.5 -11t54.5 -31.5t36 -49t13 -64.5q0 -64 -33.5 -108t-95.5 -82l76 -107q8 22 11.5 40.5t3.5 51.5v8zM229 89q20 0 46.5 11.5t42.5 31.5l-111 159q-29 -20 -42 -49.5t-13 -60.5q0 -45 21 -68.5t56 -23.5zM210 536q0 -29 10 -51.5
t27 -47.5q35 20 53.5 44t18.5 57q0 26 -15 42t-41 16q-23 0 -38 -15.5t-15 -44.5z" />
    <glyph glyph-name="quotesingle" unicode="'" horiz-adv-x="201" 
d="M158 721l-8 -249h-99l-8 249h115z" />
    <glyph glyph-name="parenleft" unicode="(" horiz-adv-x="315" 
d="M178 -215q-32 51 -56 110t-40 121t-24 125t-8 122q0 60 8 123.5t24 125.5t40 120.5t56 110.5h117q-34 -52 -57.5 -110.5t-38.5 -120.5t-22 -125.5t-7 -123.5q0 -61 7.5 -123.5t23 -123.5t39 -119.5t55.5 -111.5h-117z" />
    <glyph glyph-name="parenright" unicode=")" horiz-adv-x="315" 
d="M137 743q32 -51 56 -110t40 -121t24 -125t8 -122q0 -60 -8 -123.5t-24 -125.5t-40 -120.5t-56 -110.5h-117q66 111 95.5 235t29.5 245q0 59 -7 122t-22 125t-38.5 121t-57.5 110h117z" />
    <glyph glyph-name="asterisk" unicode="*" horiz-adv-x="375" 
d="M35 638l111 -41l-5 123h90l-5 -123l110 41l29 -82l-114 -31l76 -96l-79 -51l-62 100l-63 -100l-79 51l76 96l-110 27z" />
    <glyph glyph-name="plus" unicode="+" horiz-adv-x="569" 
d="M332 218v-218h-95v218h-192v95h192v217h95v-217h192v-95h-192z" />
    <glyph glyph-name="comma" unicode="," horiz-adv-x="258" 
d="M50 150h158v-61q0 -62 -17 -122.5t-39 -101.5h-79q16 31 28 68.5t15 66.5h-66v150z" />
    <glyph glyph-name="hyphen" unicode="-" horiz-adv-x="392" 
d="M59 211v105h274v-105h-274z" />
    <glyph glyph-name="period" unicode="." horiz-adv-x="258" 
d="M50 150h158v-150h-158v150z" />
    <glyph glyph-name="slash" unicode="/" horiz-adv-x="365" 
d="M355 720l-274 -834h-102l274 834h102z" />
    <glyph glyph-name="zero" unicode="0" horiz-adv-x="525" 
d="M28 345q0 99 20.5 166.5t53.5 109t74 59.5t83 18q45 0 88 -16t76 -56t53.5 -107.5t20.5 -169.5q0 -113 -23 -184.5t-58 -111.5t-76 -54.5t-77 -14.5q-42 0 -84 16t-75.5 57t-54.5 111t-21 177zM359 345q0 123 -23.5 179t-73.5 56q-22 0 -39.5 -12t-30 -39t-19.5 -71.5
t-7 -109.5q0 -68 6.5 -115t18.5 -76t30 -42t42 -13q21 0 38.5 12t30 40.5t20 75t7.5 115.5z" />
    <glyph glyph-name="one" unicode="1" horiz-adv-x="525" 
d="M203 560h-113v122h251v-682h-138v560z" />
    <glyph glyph-name="two" unicode="2" horiz-adv-x="525" 
d="M63 75l180 244q38 51 61.5 96.5t23.5 97.5q0 29 -16.5 47.5t-45.5 18.5q-61 0 -62 -95h-140q5 99 58.5 157t146.5 58q49 0 86 -14.5t62 -39.5t37 -57t12 -67q0 -65 -26 -117t-66 -106l-133 -175h236v-123h-414v75z" />
    <glyph glyph-name="three" unicode="3" horiz-adv-x="525" 
d="M51 505q5 88 58.5 140.5t150.5 52.5q48 0 87 -13t66.5 -36t42.5 -54t15 -68q0 -25 -7.5 -49.5t-22 -45t-35.5 -36t-49 -22.5v-2q55 -13 92.5 -56.5t37.5 -117.5q0 -42 -14.5 -80.5t-43 -68t-70 -47.5t-95.5 -18q-114 0 -169.5 55.5t-62.5 152.5h138q2 -45 24.5 -68.5
t67.5 -23.5q16 0 31.5 6t28 19t20 33t7.5 48q0 49 -29 76t-90 27h-46v110h47q48 0 76 24.5t28 62.5q0 39 -23.5 57.5t-50.5 18.5q-33 0 -53 -22.5t-21 -54.5h-136z" />
    <glyph glyph-name="four" unicode="4" horiz-adv-x="525" 
d="M411 116v-116h-130v116h-249v111l251 455h128v-450h78v-116h-78zM151 232h130v174q0 30 1.5 47.5t2.5 38.5h-5q-8 -22 -18 -46.5t-23 -48.5z" />
    <glyph glyph-name="five" unicode="5" horiz-adv-x="525" 
d="M198 433q7 2 21 3t22 1q109 0 166.5 -56t57.5 -159q0 -49 -15 -92t-43 -75.5t-68 -51.5t-89 -19q-99 0 -153.5 52.5t-61.5 150.5h140q5 -46 25 -63.5t52 -17.5q29 0 53 25t24 83q0 20 -6 39t-20 33.5t-36.5 23.5t-55.5 9q-42 0 -80 -5.5t-69 -14.5l32 383h331v-122h-216z
" />
    <glyph glyph-name="six" unicode="6" horiz-adv-x="525" 
d="M28 225q0 22 4.5 46t15 54t28.5 68.5t45 88.5l107 200h137l-121 -225q12 3 34 3q49 0 89.5 -17.5t69.5 -49t44.5 -74.5t15.5 -94q0 -50 -16.5 -93.5t-47 -76.5t-74 -52t-97.5 -19t-97.5 17t-73.5 48.5t-46.5 76t-16.5 99.5zM162 224q0 -62 28 -92t72 -30q42 0 71.5 30
t29.5 92q0 57 -28.5 89.5t-72.5 32.5q-46 0 -73 -35t-27 -87z" />
    <glyph glyph-name="seven" unicode="7" horiz-adv-x="525" 
d="M466 568l-216 -568h-143l226 560h-273v122h406v-114z" />
    <glyph glyph-name="eight" unicode="8" horiz-adv-x="525" 
d="M173 497q0 -40 24.5 -65.5t65.5 -25.5t65 26.5t24 64.5t-25.5 62.5t-63.5 24.5q-39 0 -64.5 -24.5t-25.5 -62.5zM172 197q0 -48 26 -73t64 -25t64.5 24.5t26.5 73.5q0 48 -26 74t-64 26q-39 0 -65 -26t-26 -74zM491 195q0 -45 -14.5 -83.5t-43.5 -66.5t-71.5 -44
t-99.5 -16q-52 0 -94 14t-72 41t-46 66t-16 88q0 56 29.5 98t78.5 62v3q-22 9 -39.5 24.5t-29.5 35.5t-18.5 43t-6.5 47q0 41 14.5 76t42.5 60.5t67.5 40t90.5 14.5t91 -16t67 -42.5t41.5 -61t14.5 -71.5q0 -53 -26.5 -93t-68.5 -57v-3q57 -24 83 -65.5t26 -93.5z" />
    <glyph glyph-name="nine" unicode="9" horiz-adv-x="525" 
d="M497 457q0 -22 -4.5 -46t-15 -54t-28.5 -68.5t-45 -88.5l-107 -200h-137l121 225q-12 -3 -34 -3q-50 0 -90 17.5t-69 49t-44.5 74.5t-15.5 94q0 49 16.5 93t47 77t74 52t97.5 19t97.5 -17t73.5 -48.5t46.5 -76t16.5 -99.5zM363 458q0 62 -28 92t-72 30q-42 0 -71.5 -30
t-29.5 -92q0 -57 28.5 -89.5t72.5 -32.5q46 0 73 35t27 87z" />
    <glyph glyph-name="colon" unicode=":" horiz-adv-x="268" 
d="M55 473h158v-150h-158v150zM55 150h158v-150h-158v150z" />
    <glyph glyph-name="semicolon" unicode=";" horiz-adv-x="268" 
d="M55 150h158v-53q0 -80 -19.5 -138t-39.5 -94h-77q20 42 31 78.5t13 56.5h-66v150zM55 473h158v-150h-158v150z" />
    <glyph glyph-name="less" unicode="&#x3c;" horiz-adv-x="569" 
d="M59 217v96l451 217v-116l-337 -148v-2l337 -147v-117z" />
    <glyph glyph-name="equal" unicode="=" horiz-adv-x="569" 
d="M45 329v95h479v-95h-479zM45 106v95h479v-95h-479z" />
    <glyph glyph-name="greater" unicode="&#x3e;" horiz-adv-x="569" 
d="M59 0v117l337 147v2l-337 148v116l451 -217v-96z" />
    <glyph glyph-name="question" unicode="?" horiz-adv-x="406" 
d="M294 341q-26 -28 -33.5 -58t-7.5 -73h-113q0 55 7.5 93.5t33.5 70.5q19 24 32 41.5t20.5 33.5t10.5 31.5t3 34.5q0 32 -15 47.5t-36 15.5q-24 0 -40 -19.5t-16 -64.5h-125q2 100 50 152t134 52q83 0 132.5 -46.5t49.5 -128.5q0 -30 -5.5 -54t-17 -45t-27.5 -41t-37 -42z
M130 130h133v-130h-133v130z" />
    <glyph glyph-name="at" unicode="@" horiz-adv-x="790" 
d="M751 356q0 -59 -13.5 -108t-38 -84t-58.5 -55t-74 -20q-42 0 -70.5 21.5t-32.5 55.5h-4q-23 -42 -53.5 -59.5t-68.5 -17.5q-26 0 -49.5 11.5t-41 32.5t-27.5 51t-10 67q0 59 14.5 109t40 86t59.5 56.5t74 20.5q27 0 50 -15.5t34 -47.5l8 50h91l-38 -240q-2 -13 -4 -28
t-2 -25q0 -22 9 -34t35 -12q19 0 34.5 13.5t26.5 37.5t17 57t6 72q0 61 -15 111t-47.5 85t-82 54t-118.5 19q-68 0 -120 -28t-87 -74.5t-53 -106t-18 -123.5q0 -69 18.5 -125t53.5 -95t85.5 -60t115.5 -21q53 0 98 10t74 26l27 -62q-34 -25 -89 -38.5t-117 -13.5
q-81 0 -146 26.5t-111.5 76t-71.5 120t-25 157.5t27 162t76 130t117 86t150 31q80 0 144 -24t108.5 -69t68.5 -108t24 -141zM407 438q-25 0 -43.5 -16.5t-31 -42t-18.5 -56t-6 -59.5q0 -90 56 -90q16 0 34 13.5t33 36.5t24.5 54t9.5 66q0 44 -16 69t-42 25z" />
    <glyph glyph-name="A" unicode="A" horiz-adv-x="550" 
d="M212 682h133l215 -682h-144l-43 155h-200l-43 -155h-140zM200 257h146l-32 115q-4 14 -9 32.5t-9.5 38.5t-9 39.5t-7.5 34.5h-4q-4 -16 -9 -35t-10.5 -39t-11 -38.5t-9.5 -33.5z" />
    <glyph glyph-name="B" unicode="B" horiz-adv-x="526" 
d="M60 682h193q112 0 163 -47.5t51 -125.5q0 -58 -30 -93.5t-71 -51.5v-2q34 -6 57.5 -22t38.5 -39.5t22 -52.5t7 -61q0 -48 -17 -83t-46.5 -58.5t-70 -34.5t-87.5 -11h-210v682zM353 207q0 44 -24 71t-69 27h-62v-197h70q46 0 65.5 27t19.5 72zM329 493q0 42 -21 61.5
t-55 19.5h-55v-164h63q30 0 49 25t19 58z" />
    <glyph glyph-name="C" unicode="C" horiz-adv-x="604" 
d="M320 698q59 0 104.5 -17t77 -46.5t49.5 -69t24 -83.5h-144q-10 52 -41.5 72t-73.5 20q-28 0 -54.5 -13t-46.5 -40.5t-32.5 -71.5t-12.5 -107q0 -117 41 -175.5t106 -58.5q44 0 75 22.5t42 83.5h144q-21 -118 -89 -174t-171 -56q-65 0 -118 22.5t-91 67.5t-58.5 112
t-20.5 157t22 156.5t61 110.5t92 66t115 22z" />
    <glyph glyph-name="D" unicode="D" horiz-adv-x="588" 
d="M270 125q31 0 58.5 10t47 35t31 66.5t11.5 104.5q0 62 -10.5 103.5t-30 66.5t-47 35.5t-60.5 10.5h-72v-432h72zM60 0v682h211q67 0 120 -21.5t90 -64.5t57 -106.5t20 -148.5q0 -88 -22 -152.5t-60 -106.5t-91 -62t-114 -20h-211z" />
    <glyph glyph-name="E" unicode="E" horiz-adv-x="447" 
d="M401 558h-203v-147h193v-118h-193v-169h211v-124h-349v682h341v-124z" />
    <glyph glyph-name="F" unicode="F" horiz-adv-x="435" 
d="M400 558h-197v-164h188v-118h-188v-276h-138v682h335v-124z" />
    <glyph glyph-name="G" unicode="G" horiz-adv-x="624" 
d="M594 380v-30q0 -95 -19 -164t-55 -114t-87.5 -66.5t-117.5 -21.5q-68 0 -121 25t-89.5 71.5t-55.5 112.5t-19 148q0 87 21 154t59 112t90 68t114 23q109 0 177.5 -55.5t85.5 -148.5h-143q-4 15 -13 29t-23 25.5t-34 18.5t-46 7q-30 0 -57 -13.5t-47 -41.5t-32 -70.5
t-12 -100.5q0 -63 11 -108.5t31 -75t47.5 -43t60.5 -13.5q57 0 90.5 40t36.5 114h-147v118h294z" />
    <glyph glyph-name="H" unicode="H" horiz-adv-x="615" 
d="M417 290h-219v-290h-138v682h138v-268h219v268h138v-682h-138v290z" />
    <glyph glyph-name="I" unicode="I" horiz-adv-x="258" 
d="M60 682h138v-682h-138v682z" />
    <glyph glyph-name="J" unicode="J" horiz-adv-x="318" 
d="M124 682h138v-477q0 -60 -12 -102.5t-34.5 -68.5t-53.5 -38t-70 -12q-24 0 -48.5 3.5t-38.5 8.5v117q8 -3 24 -5t27 -2q38 0 53 21.5t15 75.5v479z" />
    <glyph glyph-name="K" unicode="K" horiz-adv-x="539" 
d="M222 292l-24 -32v-260h-138v682h138v-246l169 246h157l-213 -286l225 -396h-158z" />
    <glyph glyph-name="L" unicode="L" horiz-adv-x="414" 
d="M65 682h138v-558h196v-124h-334v682z" />
    <glyph glyph-name="M" unicode="M" horiz-adv-x="753" 
d="M718 0h-137l-26 304q-4 46 -6 87t-2 87h-4q-8 -35 -16.5 -83t-18.5 -90l-72 -305h-114l-77 295q-5 19 -10.5 43t-10.5 48.5t-9.5 48.5t-7.5 44h-4q-1 -32 -2.5 -79t-6.5 -105l-24 -295h-135l68 682h160l81 -330q3 -12 7 -29.5t8.5 -37l9 -39t7.5 -34.5h4q3 16 7.5 35
t9 38.5t8.5 37t7 29.5l79 330h160z" />
    <glyph glyph-name="N" unicode="N" horiz-adv-x="609" 
d="M186 438q0 -12 0.5 -28.5t1 -33.5t0.5 -33.5v-27.5v-315h-128v682h131l134 -243q15 -28 30.5 -57t28 -55.5t22 -48.5t14.5 -34h3q-1 27 -1.5 54.5t-0.5 54.5v329h128v-682h-131l-136 247q-35 65 -60 116.5t-33 74.5h-3z" />
    <glyph glyph-name="O" unicode="O" horiz-adv-x="635" 
d="M170 341q0 -63 11.5 -107.5t31 -72t46.5 -40.5t58 -13t58.5 13t47 40.5t31 72t11.5 107.5q0 62 -10.5 106t-30 72.5t-47 41.5t-60.5 13q-31 0 -58 -13t-46.5 -40.5t-31 -72t-11.5 -107.5zM30 341q0 86 21.5 152.5t60 112t91 69t115.5 23.5q67 0 120 -24t90 -70t57 -112
t20 -151q0 -88 -22 -155t-60 -112t-91 -67.5t-114 -22.5q-74 0 -128.5 27t-90 74.5t-52.5 113t-17 142.5z" />
    <glyph glyph-name="P" unicode="P" horiz-adv-x="502" 
d="M336 461q0 46 -23 76t-79 30h-36v-211h35q31 0 51.5 8.5t31.5 23t15.5 33.5t4.5 40zM60 682h178q47 0 90 -13.5t76 -40.5t53 -68.5t20 -97.5q0 -51 -17 -92t-48.5 -69.5t-77 -44t-102.5 -15.5h-34v-241h-138v682z" />
    <glyph glyph-name="Q" unicode="Q" horiz-adv-x="635" 
d="M30 341q0 86 21.5 152.5t60 112t91 69t115.5 23.5q67 0 120 -24t90 -70t57 -112t20 -151q0 -105 -30 -178.5t-82 -117.5l57 -110l-107 -55l-58 111q-16 -4 -33 -5.5t-34 -1.5q-74 0 -128.5 27t-90 74.5t-52.5 113t-17 142.5zM170 341q0 -63 11.5 -107.5t31 -72
t46.5 -40.5t58 -13h8l-60 116l107 55l56 -109q17 29 27 70.5t10 100.5q0 62 -10.5 106t-30 72.5t-47 41.5t-60.5 13q-31 0 -58 -13t-46.5 -40.5t-31 -72t-11.5 -107.5z" />
    <glyph glyph-name="R" unicode="R" horiz-adv-x="513" 
d="M521 0h-155l-148 269h-20v-269h-138v682h199q100 0 159 -52t59 -145q0 -84 -36 -131.5t-91 -64.5zM336 472q0 46 -20 70.5t-63 24.5h-55v-193h55q44 0 63.5 28t19.5 70z" />
    <glyph glyph-name="S" unicode="S" horiz-adv-x="505" 
d="M325 503q-2 38 -21 58.5t-48 20.5t-49 -17.5t-20 -47.5q0 -13 3.5 -24.5t16 -24t37.5 -27t67 -33.5q89 -40 125.5 -96t36.5 -134q0 -34 -13 -68.5t-39.5 -62.5t-67.5 -45.5t-97 -17.5q-116 0 -171.5 57t-57.5 159h143q1 -100 86 -100q32 0 55.5 20.5t23.5 55.5
q0 39 -23 66.5t-84 54.5q-53 24 -88 49.5t-55 53t-28 56.5t-8 61q0 40 16.5 73t44 57t64.5 37.5t79 13.5q53 0 91 -14t63.5 -40t38.5 -62t16 -79h-137z" />
    <glyph glyph-name="T" unicode="T" horiz-adv-x="400" 
d="M131 558h-126v124h390v-124h-126v-558h-138v558z" />
    <glyph glyph-name="U" unicode="U" horiz-adv-x="574" 
d="M295 -16q-49 0 -92.5 11.5t-76.5 41.5t-52.5 82.5t-19.5 134.5v428h138v-412q0 -85 21.5 -123.5t73.5 -38.5q55 0 75.5 38.5t20.5 123.5v412h137v-426q0 -82 -17.5 -134.5t-48.5 -83t-72 -42.5t-87 -12z" />
    <glyph glyph-name="V" unicode="V" horiz-adv-x="531" 
d="M336 0h-136q-54 172 -102.5 341t-102.5 341h145l90 -338q9 -35 19 -79t18 -79q8 35 19.5 79.5t20.5 79.5l90 337h139z" />
    <glyph glyph-name="W" unicode="W" horiz-adv-x="730" 
d="M389 333q-8 46 -12.5 79.5t-8.5 70.5h-4q-4 -32 -8.5 -67.5t-12.5 -79.5l-58 -336h-143l-147 682h139l59 -330q9 -50 14 -83t7 -59h4q4 32 10 69.5t13 72.5l60 330h136l61 -329q8 -41 13.5 -76t8.5 -66h4q5 44 10 81.5t9 59.5l57 330h135l-135 -682h-153z" />
    <glyph glyph-name="X" unicode="X" horiz-adv-x="516" 
d="M228 549q10 -20 17 -35.5t14 -33.5h2q6 21 12.5 36.5t15.5 34.5l64 131h145l-177 -326l185 -356h-150l-68 142q-11 23 -20 42.5t-15 36.5h-2q-8 -23 -15 -42.5t-15 -38.5l-63 -140h-148l184 352l-178 330h148z" />
    <glyph glyph-name="Y" unicode="Y" horiz-adv-x="494" 
d="M179 257l-184 425h148l77 -192q9 -23 17 -48t13 -47h4q10 44 29 94l73 193h143l-182 -424v-258h-138v257z" />
    <glyph glyph-name="Z" unicode="Z" horiz-adv-x="510" 
d="M46 682h418v-119l-270 -439h284v-124h-446v118l270 440h-256v124z" />
    <glyph glyph-name="bracketleft" unicode="[" horiz-adv-x="320" 
d="M275 621h-90v-714h90v-107h-210v928h210v-107z" />
    <glyph glyph-name="backslash" unicode="\" horiz-adv-x="372" 
d="M287 -114l-279 834h102l279 -834h-102z" />
    <glyph glyph-name="bracketright" unicode="]" horiz-adv-x="320" 
d="M45 -93h90v714h-90v107h210v-928h-210v107z" />
    <glyph glyph-name="asciicircum" unicode="^" horiz-adv-x="563" 
d="M406 326l-124 265h-2l-123 -265h-117l194 378h95l194 -378h-117z" />
    <glyph glyph-name="underscore" unicode="_" horiz-adv-x="468" 
d="M0 -135h468v-100h-468v100z" />
    <glyph glyph-name="grave" unicode="`" horiz-adv-x="270" 
d="M74 745l138 -139l-53 -54l-151 119z" />
    <glyph glyph-name="a" unicode="a" horiz-adv-x="555" 
d="M499 0h-128v55q-27 -38 -63 -54.5t-77 -16.5q-44 0 -81.5 18t-64.5 51.5t-42 80.5t-15 106q0 55 15 102t42.5 80.5t65.5 52.5t85 19q41 0 75 -15.5t60 -53.5v54h128v-479zM158 240q0 -26 6 -51.5t18.5 -45.5t33.5 -32.5t51 -12.5q49 0 81.5 38.5t32.5 100.5
q0 66 -30.5 104.5t-81.5 38.5q-31 0 -52 -12t-34 -32t-19 -45t-6 -51z" />
    <glyph glyph-name="b" unicode="b" horiz-adv-x="555" 
d="M56 720h128v-297q47 71 135 71q44 0 82 -18t66 -51.5t44 -81t16 -105.5q0 -56 -15 -102.5t-42.5 -80t-66.5 -52.5t-87 -19q-45 0 -78.5 16.5t-53.5 52.5v-53h-128v720zM397 238q0 26 -6 51.5t-19.5 45.5t-34.5 32.5t-51 12.5q-21 0 -41 -10t-36 -28.5t-25.5 -44
t-9.5 -56.5q0 -33 9 -59t24 -45t35 -29t42 -10q31 0 52.5 12t35 32t19.5 45t6 51z" />
    <glyph glyph-name="c" unicode="c" horiz-adv-x="501" 
d="M265 494q46 0 82 -14.5t61.5 -39t41 -56t21.5 -64.5h-130q-8 26 -28.5 42t-52.5 16q-20 0 -38 -7.5t-32.5 -24t-23 -43t-8.5 -63.5q0 -66 29.5 -103t74.5 -37q68 0 85 64h130q-6 -33 -23.5 -65t-45 -57.5t-64.5 -41.5t-82 -16q-53 0 -96 17.5t-73.5 51t-47.5 81
t-17 107.5q0 52 15 98.5t45 80.5t74.5 54t102.5 20z" />
    <glyph glyph-name="d" unicode="d" horiz-adv-x="555" 
d="M499 0h-128v55q-23 -32 -56.5 -51.5t-78.5 -19.5q-44 0 -82 18t-66 51.5t-44 80.5t-16 106q0 55 15 102t42.5 80.5t66.5 52.5t87 19q45 0 78.5 -18.5t53.5 -50.5v295h128v-720zM158 240q0 -26 6 -51.5t19.5 -45.5t34.5 -32.5t51 -12.5q21 0 41 10t36 28.5t25.5 44
t9.5 56.5q0 33 -9 59t-24 45t-35 29t-42 10q-31 0 -52.5 -12t-35 -32t-19.5 -45t-6 -51z" />
    <glyph glyph-name="e" unicode="e" horiz-adv-x="503" 
d="M252 495q57 0 99 -20.5t69.5 -55t41 -79t13.5 -92.5q0 -11 -0.5 -21.5t-1.5 -19.5h-315q2 -55 27 -88.5t76 -33.5q32 0 52 14.5t27 34.5h128q-9 -31 -28 -58.5t-46.5 -48t-62 -32.5t-74.5 -12q-54 0 -96.5 18.5t-72 53t-45 83t-15.5 108.5q0 58 17.5 104t47.5 78t71 49.5
t88 17.5zM344 299q0 19 -6 37.5t-18 32t-29 22t-39 8.5q-40 0 -65.5 -28.5t-27.5 -71.5h185z" />
    <glyph glyph-name="f" unicode="f" horiz-adv-x="268" 
d="M10 479h55v66q0 46 7.5 80t26 57t50.5 34.5t82 11.5q13 0 28.5 -2t23.5 -4v-114q-8 2 -16.5 3t-18.5 1q-35 0 -45 -17t-10 -47v-69h74v-114h-74v-365h-128v365h-55v114z" />
    <glyph glyph-name="g" unicode="g" horiz-adv-x="564" 
d="M508 -6q0 -65 -17 -112.5t-48.5 -78t-76.5 -45.5t-101 -15q-95 0 -155.5 52t-70.5 140h128q4 -34 29 -56t72 -22q52 0 82.5 30t30.5 106v64q-56 -68 -141 -68q-49 0 -88 18t-66.5 51t-42.5 79.5t-15 103.5q0 52 14.5 98.5t42 80.5t66.5 54t88 20q48 0 83 -19.5t59 -55.5
v60h127v-485zM157 240q0 -62 29.5 -99.5t84.5 -37.5q53 0 86.5 36.5t33.5 99.5q0 65 -32 103t-86 38q-56 0 -86 -38.5t-30 -101.5z" />
    <glyph glyph-name="h" unicode="h" horiz-adv-x="518" 
d="M56 720h126v-299q18 35 52.5 54t69.5 19q79 0 121.5 -50.5t42.5 -164.5v-279h-127v260q0 66 -19 91t-52 25q-41 0 -64.5 -32t-23.5 -108v-236h-126v720z" />
    <glyph glyph-name="i" unicode="i" horiz-adv-x="240" 
d="M56 479h128v-479h-128v479zM56 708h128v-124h-128v124z" />
    <glyph glyph-name="j" unicode="j" horiz-adv-x="240" 
d="M184 479v-531q0 -41 -8.5 -75t-28 -58t-51 -37t-78.5 -13q-11 0 -29 2t-30 4v114q8 -2 19.5 -3t19.5 -1q33 0 45.5 15.5t12.5 52.5v530h128zM56 708h128v-124h-128v124z" />
    <glyph glyph-name="k" unicode="k" horiz-adv-x="464" 
d="M222 217l-38 -50v-167h-128v720h128v-400l120 159h146l-141 -175l151 -304h-139z" />
    <glyph glyph-name="l" unicode="l" horiz-adv-x="240" 
d="M56 720h128v-720h-128v720z" />
    <glyph glyph-name="m" unicode="m" horiz-adv-x="766" 
d="M56 479h128v-61q20 33 51 54.5t69 21.5q51 0 81 -21.5t44 -57.5q16 31 49.5 55t88.5 24q72 0 110.5 -54.5t38.5 -160.5v-279h-128v253q0 68 -13 95.5t-45 27.5q-33 0 -56.5 -32.5t-23.5 -107.5v-236h-128v253q0 37 -3.5 61t-11 38t-18.5 19t-25 5q-37 0 -58.5 -35.5
t-21.5 -104.5v-236h-128v479z" />
    <glyph glyph-name="n" unicode="n" horiz-adv-x="518" 
d="M56 479h126v-58q20 34 52 53.5t71 19.5q32 0 61.5 -11t52 -36t36 -66t13.5 -102v-279h-127v260q0 66 -19 91t-52 25q-41 0 -64.5 -32t-23.5 -108v-236h-126v479z" />
    <glyph glyph-name="o" unicode="o" horiz-adv-x="529" 
d="M28 240q0 55 17 102t48.5 80.5t74.5 52.5t96 19q54 0 98 -19.5t74.5 -53.5t47.5 -80.5t17 -100.5q0 -53 -17 -99.5t-48 -81.5t-74.5 -55t-97.5 -20q-53 0 -96 19.5t-74.5 54t-48.5 81.5t-17 101zM158 240q0 -35 9 -61t23.5 -43.5t33.5 -26.5t40 -9q46 0 76.5 36t30.5 104
q0 66 -29.5 102t-77.5 36q-46 0 -76 -34.5t-30 -103.5z" />
    <glyph glyph-name="p" unicode="p" horiz-adv-x="555" 
d="M56 479h128v-56q22 32 56 51.5t79 19.5q44 0 82 -18t66 -51.5t44 -81t16 -105.5q0 -56 -15 -102.5t-42.5 -80t-66.5 -52.5t-87 -19q-45 0 -78.5 18.5t-53.5 50.5v-288h-128v714zM397 238q0 26 -6 51.5t-19.5 45.5t-34.5 32.5t-51 12.5q-22 0 -42.5 -10t-36 -28.5
t-24.5 -44t-9 -56.5q0 -33 9 -59t24 -45t35 -29t42 -10q31 0 52.5 12t35 32t19.5 45t6 51z" />
    <glyph glyph-name="q" unicode="q" horiz-adv-x="555" 
d="M499 -235h-128v290q-24 -32 -57 -51.5t-78 -19.5q-44 0 -82 18t-66 51.5t-44 80.5t-16 106q0 55 15 102t42.5 80.5t66.5 52.5t87 19q45 0 77 -17t55 -52v54h128v-714zM158 240q0 -26 6 -51.5t19.5 -45.5t34.5 -32.5t51 -12.5q21 0 41 10t36 28.5t25.5 44t9.5 56.5
q0 33 -9 59t-24 45t-35 29t-42 10q-31 0 -52.5 -12t-35 -32t-19.5 -45t-6 -51z" />
    <glyph glyph-name="r" unicode="r" horiz-adv-x="355" 
d="M335 364q-9 2 -21.5 3t-22.5 1q-22 0 -41.5 -7t-34 -23.5t-23 -44t-8.5 -68.5v-225h-128v479h128v-77h3q13 38 39 65t68 27q23 0 41 -5v-125z" />
    <glyph glyph-name="s" unicode="s" horiz-adv-x="428" 
d="M260 351q-2 24 -15 36t-32 12q-20 0 -31.5 -10t-11.5 -27q0 -9 2.5 -16.5t11 -15.5t23.5 -16.5t40 -17.5q48 -18 76.5 -37t44.5 -39t21 -42.5t5 -47.5q0 -28 -11.5 -54.5t-34.5 -47t-56.5 -33t-77.5 -12.5q-40 0 -73 8.5t-57 27t-38 48.5t-16 72h128q1 -60 59 -60
q23 0 36 14t13 32q0 9 -2.5 18t-11 17.5t-25 18t-43.5 20.5q-69 27 -105.5 60.5t-36.5 91.5q0 28 10 54t31.5 46t54 32t77.5 12q40 0 71.5 -11.5t53 -31t33.5 -45.5t13 -56h-126z" />
    <glyph glyph-name="t" unicode="t" horiz-adv-x="298" 
d="M0 479h60v154h127v-154h94v-114h-94v-189q0 -39 10.5 -53.5t42.5 -14.5q8 0 20 1t24 3v-112q-7 -2 -16.5 -3t-19 -1.5t-18.5 -1t-15 -0.5q-44 0 -73.5 10t-47.5 30.5t-26 52.5t-8 76v202h-60v114z" />
    <glyph glyph-name="u" unicode="u" horiz-adv-x="518" 
d="M462 0h-126v58q-17 -35 -49 -54t-65 -19q-32 0 -63 11t-55 36t-39 66t-15 102v279h127v-252q0 -66 19 -95t52 -29q20 0 36.5 6.5t28 22.5t17.5 43t6 69v235h126v-479z" />
    <glyph glyph-name="v" unicode="v" horiz-adv-x="428" 
d="M273 0h-118l-160 479h134l53 -179q4 -13 8.5 -30.5t9 -36t8 -36t5.5 -30.5h2q2 12 5.5 30t8 36.5t9.5 36.5t8 30l53 179h134z" />
    <glyph glyph-name="w" unicode="w" horiz-adv-x="653" 
d="M531 0h-150l-40 237q-2 12 -4.5 28t-5 33t-4 33t-2.5 28h-4q0 -12 -1.5 -28t-4 -33t-5 -33t-4.5 -28l-43 -237h-152l-99 479h123l38 -199q5 -27 11.5 -65.5t8.5 -72.5h4q3 35 9.5 69t13.5 69l39 199h135l35 -199q2 -14 5 -31.5t6 -36t5.5 -37t3.5 -33.5h4q3 32 9.5 69
t13.5 69l42 199h123z" />
    <glyph glyph-name="x" unicode="x" horiz-adv-x="425" 
d="M143 244l-132 235h143l40 -83q5 -8 12 -25.5t10 -31.5h3q3 10 9 25t12 28l39 87h138l-130 -232l134 -247h-140l-47 100q-5 11 -11.5 26t-8.5 23h-3q-4 -10 -10.5 -25t-11.5 -26l-50 -98h-135z" />
    <glyph glyph-name="y" unicode="y" horiz-adv-x="436" 
d="M155 8l-160 471h137l55 -184q4 -14 9 -32l10 -36t8.5 -35.5t5.5 -29.5h2q2 12 5.5 30t8 36.5t9 36.5t8.5 30l55 184h130l-240 -714h-128z" />
    <glyph glyph-name="z" unicode="z" horiz-adv-x="417" 
d="M41 479h336v-104l-189 -263h197v-112h-353v104l190 263h-181v112z" />
    <glyph glyph-name="braceleft" unicode="{" horiz-adv-x="325" 
d="M286 627q-36 -1 -51.5 -19.5t-15.5 -55.5v-159q0 -45 -19 -80t-55 -49v-2q32 -11 53 -44t21 -86v-156q0 -37 15.5 -56t51.5 -19v-116q-41 0 -74.5 11.5t-57.5 33t-37 52t-13 68.5v171q0 34 -18 59t-53 26v114q35 1 53 26t18 58v172q0 35 9 65t30.5 52.5t56.5 36t86 13.5
v-116z" />
    <glyph glyph-name="bar" unicode="|" horiz-adv-x="315" 
d="M100 -210v1000h115v-1000h-115z" />
    <glyph glyph-name="braceright" unicode="}" horiz-adv-x="325" 
d="M39 743q51 0 86 -13.5t56.5 -36t30.5 -52.5t9 -65v-172q0 -33 18 -58t53 -26v-114q-35 -1 -53 -26t-18 -59v-171q0 -38 -13.5 -68.5t-37.5 -52t-57.5 -33t-73.5 -11.5v116q36 0 51 19t15 56v156q0 53 21 86t53 44v2q-35 14 -54.5 49t-19.5 80v159q0 37 -15 55.5t-51 19.5
v116z" />
    <glyph glyph-name="asciitilde" unicode="~" horiz-adv-x="569" 
d="M550 297q-26 -60 -68.5 -94t-99.5 -34q-27 0 -52 8.5t-54 28.5q-23 16 -43.5 30t-45.5 14q-27 0 -48.5 -19.5t-36.5 -54.5l-83 48q26 60 67.5 94.5t96.5 34.5q32 0 57 -10t49 -26q21 -14 45.5 -30t47.5 -16q29 0 51.5 22.5t33.5 51.5l83 -48v0z" />
    <glyph glyph-name="uni00A0" unicode="&#xa0;" horiz-adv-x="260" 
 />
    <glyph glyph-name="exclamdown" unicode="&#xa1;" horiz-adv-x="244" 
d="M189 552h-134v130h134v-130zM52 0l13 472h114l13 -472h-140z" />
    <glyph glyph-name="cent" unicode="&#xa2;" horiz-adv-x="525" 
d="M215 95q-81 17 -129 82.5t-48 168.5q0 45 11.5 85.5t33.5 73t55 55.5t77 32v90h100v-87q37 -6 65.5 -22t49 -39t33.5 -51t18 -58h-130q-8 26 -28.5 42t-52.5 16q-20 0 -38 -7.5t-32.5 -24t-23 -43t-8.5 -63.5q0 -66 29.5 -103t74.5 -37q68 0 85 64h130q-5 -29 -19 -57
t-36 -52t-51.5 -42t-65.5 -25v-93h-100v95z" />
    <glyph glyph-name="sterling" unicode="&#xa3;" horiz-adv-x="525" 
d="M391 304h-151q8 -38 8 -73q0 -36 -15.5 -60.5t-28.5 -35.5q17 0 37.5 -5.5t34.5 -12.5q17 -8 33.5 -14t27.5 -6q18 0 29 14.5t12 53.5h132q-2 -98 -44 -142.5t-112 -44.5q-28 0 -54.5 7t-57.5 21t-53 20.5t-42 6.5q-28 0 -54.5 -11.5t-53.5 -28.5v115q26 7 42 19.5
t25 28.5t12.5 33t3.5 34q0 21 -3.5 42t-8.5 39h-74v99h49q-5 20 -9 49.5t-4 59.5q0 37 12.5 72t37 62t62 43t87.5 16q49 0 86 -14.5t61.5 -41t37.5 -63t15 -80.5h-132q-2 40 -17 62t-50 22t-50 -24.5t-15 -66.5q0 -50 11 -96h173v-99z" />
    <glyph glyph-name="currency" unicode="&#xa4;" horiz-adv-x="612" 
d="M490 114l-69 68q-26 -18 -55.5 -26.5t-59.5 -8.5q-26 0 -56.5 7.5t-59.5 27.5l-68 -68l-60 61l69 66q-18 29 -26.5 58t-8.5 55t8 55.5t27 57.5q-9 8 -20.5 19.5l-22.5 22.5q-12 12 -26 25l60 61l68 -68q29 20 59.5 27t56.5 7q27 0 58 -8t57 -26l69 68l60 -61l-69 -67
q20 -30 27 -59.5t7 -53.5q0 -26 -7.5 -55t-26.5 -58q17 -17 34.5 -33t34.5 -33zM430 355q0 27 -10.5 49t-28 38.5t-39.5 25.5t-46 9q-26 0 -49 -10t-39.5 -26.5t-26 -38.5t-9.5 -47t10 -47.5t26.5 -39t39 -26.5t48.5 -10q25 0 48 9.5t39.5 26.5t26.5 39t10 48z" />
    <glyph glyph-name="yen" unicode="&#xa5;" horiz-adv-x="525" 
d="M44 369h104l-138 313h148l77 -192q9 -23 17 -48t13 -47h4q10 44 29 94l74 193h143l-138 -313h105v-90h-143l-7 -17v-62h150v-90h-150v-110h-138v110h-150v90h150v61l-8 18h-142v90z" />
    <glyph glyph-name="brokenbar" unicode="&#xa6;" horiz-adv-x="315" 
d="M100 390v300h115v-300h-115zM100 -110v300h115v-300h-115z" />
    <glyph glyph-name="section" unicode="&#xa7;" horiz-adv-x="400" 
d="M369 322q0 -42 -20.5 -71.5t-51.5 -50.5q26 -19 41 -47t15 -62q0 -29 -10 -55.5t-30.5 -46.5t-50.5 -32t-69 -12q-74 0 -115.5 40.5t-46.5 108.5h110q2 -28 15 -44.5t39 -16.5q25 0 39 16.5t14 41.5q0 10 -3 19t-12.5 18.5t-27 20.5t-45.5 25q-34 16 -57 33t-37 36
t-20 40.5t-6 47.5q0 36 22 67t51 46q-60 37 -60 115q0 28 10 53.5t29.5 44.5t47 30t62.5 11q68 0 106 -36t41 -96h-101q-2 17 -13 30.5t-31 13.5q-22 0 -34.5 -14t-12.5 -36q0 -10 4 -20t14.5 -20.5t30 -22t51.5 -26.5q35 -17 57 -34.5t34 -36.5t16.5 -38.5t4.5 -39.5z
M270 312q0 30 -20 49t-70 43q-18 -10 -29.5 -27t-11.5 -36q0 -32 22.5 -52.5t73.5 -46.5q15 11 25 29t10 41z" />
    <glyph glyph-name="dieresis" unicode="&#xa8;" horiz-adv-x="318" 
d="M17 702h116v-120h-116v120zM185 702h116v-120h-116v120z" />
    <glyph glyph-name="copyright" unicode="&#xa9;" horiz-adv-x="786" 
d="M30 341q0 75 28.5 141t78 115.5t115.5 78t141 28.5t141.5 -28.5t115.5 -78t77.5 -115.5t28.5 -141t-28.5 -141t-77.5 -115.5t-115.5 -78t-141.5 -28.5t-141 28.5t-115.5 78t-78 115.5t-28.5 141zM393 557q34 0 63 -10.5t52 -30t38 -46.5t20 -59h-99q-8 28 -27.5 43.5
t-48.5 15.5q-45 0 -70 -34t-25 -90q0 -53 25.5 -89t72.5 -36q28 0 48.5 18.5t28.5 49.5h99q-16 -66 -61.5 -109.5t-114.5 -43.5q-44 0 -79 16t-60 44.5t-38.5 67t-13.5 84.5q0 45 14.5 83.5t40 66t60 43.5t75.5 16zM101 341q0 -60 23.5 -113.5t63 -93t92.5 -62.5t113 -23
q61 0 114 23t92.5 62.5t62.5 93t23 113.5t-23 113.5t-62.5 93t-92.5 62.5t-114 23q-60 0 -113 -23t-92.5 -62.5t-63 -93t-23.5 -113.5z" />
    <glyph glyph-name="ordfeminine" unicode="&#xaa;" horiz-adv-x="365" 
d="M331 331q-7 -2 -16.5 -3.5t-20.5 -1.5q-32 0 -49 14.5t-22 37.5q-14 -24 -38.5 -39.5t-53.5 -15.5q-46 0 -73.5 27t-27.5 76q0 54 45 93t142 49v6q0 29 -11 45t-33 16q-41 0 -47 -44h-85q7 51 42.5 82t92.5 31q63 0 97 -34.5t34 -106.5v-140q0 -20 14 -20q6 0 10 1v-73z
M217 509q-28 -3 -46.5 -11.5t-29 -19t-15 -22.5t-4.5 -23q0 -16 10.5 -25t23.5 -9q10 0 20.5 5.5t19.5 16.5t15 27.5t6 39.5v21z" />
    <glyph glyph-name="guillemotleft" unicode="&#xab;" horiz-adv-x="461" 
d="M145 452l83 -35l-68 -177l68 -177l-83 -35l-114 212zM336 452l83 -35l-68 -177l68 -177l-83 -35l-114 212z" />
    <glyph glyph-name="logicalnot" unicode="&#xac;" horiz-adv-x="569" 
d="M504 95h-95v218h-364v95h459v-313z" />
    <glyph glyph-name="uni00AD" unicode="&#xad;" horiz-adv-x="392" 
d="M59 211v105h274v-105h-274z" />
    <glyph glyph-name="registered" unicode="&#xae;" horiz-adv-x="506" 
d="M33 482q0 46 17.5 86.5t48 70.5t71 47.5t85.5 17.5q46 0 86 -17.5t70 -47.5t47 -70.5t17 -86.5t-17 -86t-47 -70t-70 -47.5t-86 -17.5q-45 0 -85.5 17.5t-71 47.5t-48 70t-17.5 86zM82 482q0 -36 13.5 -67t37 -54.5t55 -36.5t67.5 -13t67 13t54.5 36.5t36.5 54.5t13 67
t-13 67t-36.5 54.5t-54.5 37t-67 13.5t-67.5 -13.5t-55 -37t-37 -54.5t-13.5 -67zM372 367h-74l-55 80h-13v-80h-66v236h103q49 0 71.5 -23t22.5 -54q0 -26 -14.5 -45t-37.5 -26zM293 523q0 14 -8.5 22.5t-31.5 8.5h-23v-60h23q40 0 40 29z" />
    <glyph glyph-name="macron" unicode="&#xaf;" horiz-adv-x="318" 
d="M25 589v95h268v-95h-268z" />
    <glyph glyph-name="degree" unicode="&#xb0;" horiz-adv-x="374" 
d="M51 560q0 28 10.5 53t29 43.5t43.5 29t53 10.5t53 -10.5t43.5 -29t29 -43.5t10.5 -53t-10.5 -53t-29 -43.5t-43.5 -29t-53 -10.5t-53 10.5t-43.5 29t-29 43.5t-10.5 53zM112 560q0 -32 21.5 -53.5t53.5 -21.5q31 0 53 21.5t22 53.5t-22 53.5t-53 21.5q-32 0 -53.5 -21.5
t-21.5 -53.5z" />
    <glyph glyph-name="plusminus" unicode="&#xb1;" horiz-adv-x="569" 
d="M332 290v-145h-95v145h-192v95h192v145h95v-145h192v-95h-192zM45 0v95h479v-95h-479z" />
    <glyph glyph-name="uni00B2" unicode="&#xb2;" 
d="M44 490l119 145q22 26 38 51.5t16 51.5q0 21 -10 34t-27 13q-21 0 -30 -16.5t-10 -43.5h-100q0 30 9 56t26.5 46t44.5 31.5t65 11.5q31 0 56.5 -10t44 -27t28.5 -41t10 -51q0 -20 -4 -37t-13 -33.5t-23 -35t-34 -41.5l-74 -84h154v-87h-286v67z" />
    <glyph glyph-name="uni00B3" unicode="&#xb3;" 
d="M40 739q2 59 38 95t102 36q68 0 103.5 -32t35.5 -82q0 -36 -21.5 -61t-51.5 -32v-3q42 -11 64 -40t22 -71q0 -27 -9.5 -52.5t-29 -45t-48 -31t-67.5 -11.5q-74 0 -110 38t-40 104h100q2 -30 14 -45.5t36 -15.5q23 0 36 18t13 48q0 25 -14.5 43t-49.5 18h-27v77h26
q26 0 39 13t13 36q0 20 -9 33.5t-28 13.5q-20 0 -28 -14t-10 -37h-99z" />
    <glyph glyph-name="acute" unicode="&#xb4;" horiz-adv-x="270" 
d="M262 671l-151 -119l-54 54l138 139z" />
    <glyph glyph-name="uni00B5" unicode="&#xb5;" horiz-adv-x="544" 
d="M56 479h131v-267q0 -63 17.5 -87.5t49.5 -24.5q39 0 61 30t22 101v248h131v-323q0 -29 10.5 -39.5t27.5 -10.5q10 0 19 3v-107q-12 -4 -25.5 -6.5t-27.5 -2.5q-49 0 -75 22.5t-35 59.5h-3q-17 -39 -47.5 -65t-72.5 -26q-14 0 -31 5.5t-29 18.5l-3 -2q7 -27 9 -59t2 -63
v-119h-131v714z" />
    <glyph glyph-name="paragraph" unicode="&#xb6;" horiz-adv-x="547" 
d="M448 591v-621h-94v621h-68v-621h-93v359q-34 1 -64 14t-52 36t-34.5 55t-12.5 72q0 45 15.5 78.5t40 55t55 32t61.5 10.5h305v-91h-59z" />
    <glyph glyph-name="periodcentered" unicode="&#xb7;" horiz-adv-x="258" 
d="M50 426h158v-150h-158v150z" />
    <glyph glyph-name="cedilla" unicode="&#xb8;" horiz-adv-x="318" 
d="M192 0l-16 -39q43 -5 67 -30t24 -60q0 -51 -35 -78.5t-98 -27.5q-28 0 -55 7t-47 14l30 64q11 -5 30.5 -10t36.5 -5q21 0 34.5 9t13.5 27q0 20 -18 31.5t-66 11.5l37 86h62z" />
    <glyph glyph-name="uni00B9" unicode="&#xb9;" 
d="M140 771h-63v86h166v-434h-103v348z" />
    <glyph glyph-name="ordmasculine" unicode="&#xba;" horiz-adv-x="405" 
d="M28 514q0 46 13.5 81.5t37.5 59.5t55.5 36.5t67.5 12.5q39 0 71 -13.5t55 -38.5t36 -60t13 -78q0 -42 -13 -77.5t-36 -60.5t-55 -39t-71 -14q-36 0 -67.5 12.5t-55.5 37t-37.5 60t-13.5 81.5zM123 513q0 -48 22 -76t57 -28t57.5 27t22.5 77q0 48 -22.5 76.5t-57.5 28.5
q-33 0 -56 -24t-23 -81z" />
    <glyph glyph-name="guillemotright" unicode="&#xbb;" horiz-adv-x="461" 
d="M125 28l-83 35l68 177l-68 177l83 35l114 -212zM316 28l-83 35l68 177l-68 177l83 35l114 -212z" />
    <glyph glyph-name="onequarter" unicode="&#xbc;" horiz-adv-x="906" 
d="M140 596h-63v86h166v-434h-103v348zM682 682l-400 -682h-88l399 682h89zM825 70v-70h-98v70h-175v78l180 286h93v-283h55v-81h-55zM630 151h97v100q0 19 0.5 30.5t1.5 25.5h-4q-6 -13 -16.5 -31.5t-18.5 -30.5z" />
    <glyph glyph-name="onehalf" unicode="&#xbd;" horiz-adv-x="906" 
d="M140 596h-63v86h166v-434h-103v348zM682 682l-400 -682h-88l399 682h89zM580 67l119 145q22 26 38 51.5t16 51.5q0 21 -10 34t-27 13q-21 0 -30 -16.5t-10 -43.5h-100q0 30 9 56t26.5 46t44.5 31.5t65 11.5q31 0 56.5 -10t44 -27t28.5 -41t10 -51q0 -20 -4 -37t-13 -33.5
t-23 -35t-34 -41.5l-74 -84h154v-87h-286v67z" />
    <glyph glyph-name="threequarters" unicode="&#xbe;" horiz-adv-x="906" 
d="M40 564q2 59 38 95t102 36q68 0 103.5 -32t35.5 -82q0 -36 -21.5 -61t-51.5 -32v-3q42 -11 64 -40t22 -71q0 -27 -9.5 -52.5t-29 -45t-48 -31t-67.5 -11.5q-74 0 -110 38t-40 104h100q2 -30 14 -45.5t36 -15.5q23 0 36 18t13 48q0 25 -14.5 43t-49.5 18h-27v77h26
q26 0 39 13t13 36q0 20 -9 33.5t-28 13.5q-20 0 -28 -14t-10 -37h-99zM707 682l-400 -682h-88l399 682h89zM825 70v-70h-98v70h-175v78l180 286h93v-283h55v-81h-55zM630 151h97v100q0 19 0.5 30.5t1.5 25.5h-4q-6 -13 -16.5 -31.5t-18.5 -30.5z" />
    <glyph glyph-name="questiondown" unicode="&#xbf;" horiz-adv-x="406" 
d="M112 341q26 28 33.5 58t7.5 73h113q0 -55 -7.5 -93.5t-33.5 -70.5q-19 -24 -32 -41.5t-20.5 -33.5t-10.5 -31.5t-3 -34.5q0 -32 15 -47.5t36 -15.5q24 0 40 19.5t16 64.5h125q-2 -100 -50 -152t-134 -52q-83 0 -132.5 46.5t-49.5 128.5q0 30 5.5 54t17 45t27.5 41t37 42z
M276 552h-133v130h133v-130z" />
    <glyph glyph-name="Agrave" unicode="&#xc0;" horiz-adv-x="550" 
d="M212 682h133l215 -682h-144l-43 155h-200l-43 -155h-140zM200 257h146l-32 115q-4 14 -9 32.5t-9.5 38.5t-9 39.5t-7.5 34.5h-4q-4 -16 -9 -35t-10.5 -39t-11 -38.5t-9.5 -33.5zM205 912l161 -112l-42 -63l-170 90z" />
    <glyph glyph-name="Aacute" unicode="&#xc1;" horiz-adv-x="550" 
d="M212 682h133l215 -682h-144l-43 155h-200l-43 -155h-140zM200 257h146l-32 115q-4 14 -9 32.5t-9.5 38.5t-9 39.5t-7.5 34.5h-4q-4 -16 -9 -35t-10.5 -39t-11 -38.5t-9.5 -33.5zM414 827l-170 -90l-42 63l161 112z" />
    <glyph glyph-name="Acircumflex" unicode="&#xc2;" horiz-adv-x="550" 
d="M212 682h133l215 -682h-144l-43 155h-200l-43 -155h-140zM200 257h146l-32 115q-4 14 -9 32.5t-9.5 38.5t-9 39.5t-7.5 34.5h-4q-4 -16 -9 -35t-10.5 -39t-11 -38.5t-9.5 -33.5zM427 798l-38 -65l-109 52l-110 -52l-37 65l147 97z" />
    <glyph glyph-name="Atilde" unicode="&#xc3;" horiz-adv-x="550" 
d="M212 682h133l215 -682h-144l-43 155h-200l-43 -155h-140zM200 257h146l-32 115q-4 14 -9 32.5t-9.5 38.5t-9 39.5t-7.5 34.5h-4q-4 -16 -9 -35t-10.5 -39t-11 -38.5t-9.5 -33.5zM121 762q3 70 25.5 105t75.5 35q19 0 36 -8.5t34 -22.5t25.5 -18.5t16.5 -4.5q9 0 15 9
t7 35h83q-2 -70 -30 -105t-73 -35q-25 0 -43 10t-34 24q-17 14 -23 17t-13 3q-10 0 -14 -12t-5 -32h-83z" />
    <glyph glyph-name="Adieresis" unicode="&#xc4;" horiz-adv-x="550" 
d="M212 682h133l215 -682h-144l-43 155h-200l-43 -155h-140zM200 257h146l-32 115q-4 14 -9 32.5t-9.5 38.5t-9 39.5t-7.5 34.5h-4q-4 -16 -9 -35t-10.5 -39t-11 -38.5t-9.5 -33.5zM138 887h116v-120h-116v120zM306 887h116v-120h-116v120z" />
    <glyph glyph-name="Aring" unicode="&#xc5;" horiz-adv-x="550" 
d="M212 682h133l215 -682h-144l-43 155h-200l-43 -155h-140zM200 257h146l-32 115q-4 14 -9 32.5t-9.5 38.5t-9 39.5t-7.5 34.5h-4q-4 -16 -9 -35t-10.5 -39t-11 -38.5t-9.5 -33.5zM231 834q0 -20 14.5 -34.5t34.5 -14.5t34.5 14.5t14.5 34.5t-14.5 34.5t-34.5 14.5
t-34.5 -14.5t-14.5 -34.5zM159 834q0 25 9 47t25.5 38.5t38.5 26t48 9.5q25 0 47 -9.5t38.5 -26t26 -38.5t9.5 -47t-9.5 -47t-26 -38.5t-38.5 -26t-47 -9.5q-26 0 -48 9.5t-38.5 26t-25.5 38.5t-9 47z" />
    <glyph glyph-name="AE" unicode="&#xc6;" horiz-adv-x="743" 
d="M697 558h-203v-147h193v-118h-193v-169h211v-124h-344v155h-175l-61 -155h-140l290 682h422v-124zM361 257v311h-12l-123 -311h135z" />
    <glyph glyph-name="Ccedilla" unicode="&#xc7;" horiz-adv-x="604" 
d="M320 698q59 0 104.5 -17t77 -46.5t49.5 -69t24 -83.5h-144q-10 52 -41.5 72t-73.5 20q-28 0 -54.5 -13t-46.5 -40.5t-32.5 -71.5t-12.5 -107q0 -117 41 -175.5t106 -58.5q44 0 75 22.5t42 83.5h144q-20 -112 -83 -168t-159 -61l-9 -24q43 -5 67 -30t24 -60
q0 -51 -35 -78.5t-98 -27.5q-28 0 -55 7t-47 14l30 64q11 -5 30.5 -10t36.5 -5q21 0 34.5 9t13.5 27q0 20 -18 31.5t-66 11.5l31 73q-112 13 -178.5 102.5t-66.5 253.5q0 90 22 156.5t61 110.5t92 66t115 22z" />
    <glyph glyph-name="Egrave" unicode="&#xc8;" horiz-adv-x="447" 
d="M401 558h-203v-147h193v-118h-193v-169h211v-124h-349v682h341v-124zM152 912l161 -112l-42 -63l-170 90z" />
    <glyph glyph-name="Eacute" unicode="&#xc9;" horiz-adv-x="447" 
d="M401 558h-203v-147h193v-118h-193v-169h211v-124h-349v682h341v-124zM351 827l-170 -90l-42 63l161 112z" />
    <glyph glyph-name="Ecircumflex" unicode="&#xca;" horiz-adv-x="447" 
d="M401 558h-203v-147h193v-118h-193v-169h211v-124h-349v682h341v-124zM374 798l-38 -65l-109 52l-110 -52l-37 65l147 97z" />
    <glyph glyph-name="Edieresis" unicode="&#xcb;" horiz-adv-x="447" 
d="M401 558h-203v-147h193v-118h-193v-169h211v-124h-349v682h341v-124zM85 887h116v-120h-116v120zM253 887h116v-120h-116v120z" />
    <glyph glyph-name="Igrave" unicode="&#xcc;" horiz-adv-x="258" 
d="M60 682h138v-682h-138v682zM54 912l161 -112l-42 -63l-170 90z" />
    <glyph glyph-name="Iacute" unicode="&#xcd;" horiz-adv-x="258" 
d="M60 682h138v-682h-138v682zM255 827l-170 -90l-42 63l161 112z" />
    <glyph glyph-name="Icircumflex" unicode="&#xce;" horiz-adv-x="258" 
d="M60 682h138v-682h-138v682zM276 798l-38 -65l-109 52l-110 -52l-37 65l147 97z" />
    <glyph glyph-name="Idieresis" unicode="&#xcf;" horiz-adv-x="258" 
d="M60 682h138v-682h-138v682zM-13 887h116v-120h-116v120zM155 887h116v-120h-116v120z" />
    <glyph glyph-name="Eth" unicode="&#xd0;" horiz-adv-x="608" 
d="M80 0v299h-65v104h65v279h211q67 0 120 -21.5t90 -64.5t57 -106.5t20 -148.5q0 -88 -22 -152.5t-60 -106.5t-91 -62t-114 -20h-211zM290 125q31 0 58.5 10t47 35t31 66.5t11.5 104.5q0 62 -10.5 103.5t-30 66.5t-47 35.5t-60.5 10.5h-72v-154h117v-104h-117v-174h72z" />
    <glyph glyph-name="Ntilde" unicode="&#xd1;" horiz-adv-x="609" 
d="M186 438q0 -12 0.5 -28.5t1 -33.5t0.5 -33.5v-27.5v-315h-128v682h131l134 -243q15 -28 30.5 -57t28 -55.5t22 -48.5t14.5 -34h3q-1 27 -1.5 54.5t-0.5 54.5v329h128v-682h-131l-136 247q-35 65 -60 116.5t-33 74.5h-3zM145 762q3 70 25.5 105t75.5 35q19 0 36 -8.5
t34 -22.5t25.5 -18.5t16.5 -4.5q9 0 15 9t7 35h83q-2 -70 -30 -105t-73 -35q-25 0 -43 10t-34 24q-17 14 -23 17t-13 3q-10 0 -14 -12t-5 -32h-83z" />
    <glyph glyph-name="Ograve" unicode="&#xd2;" horiz-adv-x="635" 
d="M170 341q0 -63 11.5 -107.5t31 -72t46.5 -40.5t58 -13t58.5 13t47 40.5t31 72t11.5 107.5q0 62 -10.5 106t-30 72.5t-47 41.5t-60.5 13q-31 0 -58 -13t-46.5 -40.5t-31 -72t-11.5 -107.5zM30 341q0 86 21.5 152.5t60 112t91 69t115.5 23.5q67 0 120 -24t90 -70t57 -112
t20 -151q0 -88 -22 -155t-60 -112t-91 -67.5t-114 -22.5q-74 0 -128.5 27t-90 74.5t-52.5 113t-17 142.5zM248 912l161 -112l-42 -63l-170 90z" />
    <glyph glyph-name="Oacute" unicode="&#xd3;" horiz-adv-x="635" 
d="M170 341q0 -63 11.5 -107.5t31 -72t46.5 -40.5t58 -13t58.5 13t47 40.5t31 72t11.5 107.5q0 62 -10.5 106t-30 72.5t-47 41.5t-60.5 13q-31 0 -58 -13t-46.5 -40.5t-31 -72t-11.5 -107.5zM30 341q0 86 21.5 152.5t60 112t91 69t115.5 23.5q67 0 120 -24t90 -70t57 -112
t20 -151q0 -88 -22 -155t-60 -112t-91 -67.5t-114 -22.5q-74 0 -128.5 27t-90 74.5t-52.5 113t-17 142.5zM437 827l-170 -90l-42 63l161 112z" />
    <glyph glyph-name="Ocircumflex" unicode="&#xd4;" horiz-adv-x="635" 
d="M170 341q0 -63 11.5 -107.5t31 -72t46.5 -40.5t58 -13t58.5 13t47 40.5t31 72t11.5 107.5q0 62 -10.5 106t-30 72.5t-47 41.5t-60.5 13q-31 0 -58 -13t-46.5 -40.5t-31 -72t-11.5 -107.5zM30 341q0 86 21.5 152.5t60 112t91 69t115.5 23.5q67 0 120 -24t90 -70t57 -112
t20 -151q0 -88 -22 -155t-60 -112t-91 -67.5t-114 -22.5q-74 0 -128.5 27t-90 74.5t-52.5 113t-17 142.5zM463 798l-38 -65l-109 52l-110 -52l-37 65l147 97z" />
    <glyph glyph-name="Otilde" unicode="&#xd5;" horiz-adv-x="635" 
d="M170 341q0 -63 11.5 -107.5t31 -72t46.5 -40.5t58 -13t58.5 13t47 40.5t31 72t11.5 107.5q0 62 -10.5 106t-30 72.5t-47 41.5t-60.5 13q-31 0 -58 -13t-46.5 -40.5t-31 -72t-11.5 -107.5zM30 341q0 86 21.5 152.5t60 112t91 69t115.5 23.5q67 0 120 -24t90 -70t57 -112
t20 -151q0 -88 -22 -155t-60 -112t-91 -67.5t-114 -22.5q-74 0 -128.5 27t-90 74.5t-52.5 113t-17 142.5zM157 762q3 70 25.5 105t75.5 35q19 0 36 -8.5t34 -22.5t25.5 -18.5t16.5 -4.5q9 0 15 9t7 35h83q-2 -70 -30 -105t-73 -35q-25 0 -43 10t-34 24q-17 14 -23 17t-13 3
q-10 0 -14 -12t-5 -32h-83z" />
    <glyph glyph-name="Odieresis" unicode="&#xd6;" horiz-adv-x="635" 
d="M170 341q0 -63 11.5 -107.5t31 -72t46.5 -40.5t58 -13t58.5 13t47 40.5t31 72t11.5 107.5q0 62 -10.5 106t-30 72.5t-47 41.5t-60.5 13q-31 0 -58 -13t-46.5 -40.5t-31 -72t-11.5 -107.5zM30 341q0 86 21.5 152.5t60 112t91 69t115.5 23.5q67 0 120 -24t90 -70t57 -112
t20 -151q0 -88 -22 -155t-60 -112t-91 -67.5t-114 -22.5q-74 0 -128.5 27t-90 74.5t-52.5 113t-17 142.5zM174 887h116v-120h-116v120zM342 887h116v-120h-116v120z" />
    <glyph glyph-name="multiply" unicode="&#xd7;" horiz-adv-x="569" 
d="M284 198l-162 -162l-67 67l162 162l-162 163l67 67l162 -162l163 162l67 -67l-162 -163l162 -162l-67 -67z" />
    <glyph glyph-name="Oslash" unicode="&#xd8;" horiz-adv-x="635" 
d="M118 64q-45 48 -66.5 119t-21.5 158q0 86 21.5 152.5t60 112t91 69t115.5 23.5q62 0 116 -23l41 80l87 -43l-48 -93q44 -46 67.5 -115.5t23.5 -162.5q0 -88 -22 -155t-60 -112t-91 -67.5t-114 -22.5q-35 0 -65 6t-56 17l-45 -88l-87 43zM465 341q0 86 -22 141l-186 -360
q25 -14 60 -14q31 0 58.5 13t47 40.5t31 72t11.5 107.5zM170 341q0 -83 20 -137l185 358q-26 12 -58 12q-31 0 -58 -13t-46.5 -40.5t-31 -72t-11.5 -107.5z" />
    <glyph glyph-name="Ugrave" unicode="&#xd9;" horiz-adv-x="574" 
d="M295 -16q-49 0 -92.5 11.5t-76.5 41.5t-52.5 82.5t-19.5 134.5v428h138v-412q0 -85 21.5 -123.5t73.5 -38.5q55 0 75.5 38.5t20.5 123.5v412h137v-426q0 -82 -17.5 -134.5t-48.5 -83t-72 -42.5t-87 -12zM198 912l161 -112l-42 -63l-170 90z" />
    <glyph glyph-name="Uacute" unicode="&#xda;" horiz-adv-x="574" 
d="M295 -16q-49 0 -92.5 11.5t-76.5 41.5t-52.5 82.5t-19.5 134.5v428h138v-412q0 -85 21.5 -123.5t73.5 -38.5q55 0 75.5 38.5t20.5 123.5v412h137v-426q0 -82 -17.5 -134.5t-48.5 -83t-72 -42.5t-87 -12zM419 827l-170 -90l-42 63l161 112z" />
    <glyph glyph-name="Ucircumflex" unicode="&#xdb;" horiz-adv-x="574" 
d="M295 -16q-49 0 -92.5 11.5t-76.5 41.5t-52.5 82.5t-19.5 134.5v428h138v-412q0 -85 21.5 -123.5t73.5 -38.5q55 0 75.5 38.5t20.5 123.5v412h137v-426q0 -82 -17.5 -134.5t-48.5 -83t-72 -42.5t-87 -12zM436 798l-38 -65l-109 52l-110 -52l-37 65l147 97z" />
    <glyph glyph-name="Udieresis" unicode="&#xdc;" horiz-adv-x="574" 
d="M295 -16q-49 0 -92.5 11.5t-76.5 41.5t-52.5 82.5t-19.5 134.5v428h138v-412q0 -85 21.5 -123.5t73.5 -38.5q55 0 75.5 38.5t20.5 123.5v412h137v-426q0 -82 -17.5 -134.5t-48.5 -83t-72 -42.5t-87 -12zM146 887h116v-120h-116v120zM314 887h116v-120h-116v120z" />
    <glyph glyph-name="Yacute" unicode="&#xdd;" horiz-adv-x="494" 
d="M179 257l-184 425h148l77 -192q9 -23 17 -48t13 -47h4q10 44 29 94l73 193h143l-182 -424v-258h-138v257zM373 827l-170 -90l-42 63l161 112z" />
    <glyph glyph-name="Thorn" unicode="&#xde;" horiz-adv-x="502" 
d="M336 351q0 39 -23 65t-79 26h-36v-181h35q31 0 51.5 7.5t31.5 20t15.5 28.5t4.5 34zM60 682h138v-125h45q47 0 89.5 -12.5t74.5 -37.5t51 -64t19 -91q0 -96 -62.5 -151t-177.5 -55h-39v-146h-138v682z" />
    <glyph glyph-name="germandbls" unicode="&#xdf;" horiz-adv-x="582" 
d="M231 365q0 31 14 56t43 51q17 16 29.5 32t12.5 45q0 27 -19 46t-52 19q-75 0 -75 -94v-520h-128v525q0 44 12 81t37 64t63.5 42.5t90.5 15.5q95 0 147 -48.5t52 -135.5q0 -70 -62 -118q-21 -17 -29 -29.5t-8 -27.5q0 -11 2.5 -19.5t10.5 -16t23 -16t41 -19.5
q36 -16 58.5 -35t35.5 -40.5t17.5 -45t4.5 -47.5q0 -29 -11 -55.5t-33.5 -47t-55.5 -32.5t-77 -12q-78 0 -120.5 36.5t-46.5 114.5h128q2 -51 44 -51q23 0 33.5 12t10.5 30q0 23 -10 41.5t-48 35.5q-68 29 -101.5 64.5t-33.5 98.5z" />
    <glyph glyph-name="agrave" unicode="&#xe0;" horiz-adv-x="555" 
d="M499 0h-128v55q-27 -38 -63 -54.5t-77 -16.5q-44 0 -81.5 18t-64.5 51.5t-42 80.5t-15 106q0 55 15 102t42.5 80.5t65.5 52.5t85 19q41 0 75 -15.5t60 -53.5v54h128v-479zM158 240q0 -26 6 -51.5t18.5 -45.5t33.5 -32.5t51 -12.5q49 0 81.5 38.5t32.5 100.5
q0 66 -30.5 104.5t-81.5 38.5q-31 0 -52 -12t-34 -32t-19 -45t-6 -51zM196 745l138 -139l-53 -54l-151 119z" />
    <glyph glyph-name="aacute" unicode="&#xe1;" horiz-adv-x="555" 
d="M499 0h-128v55q-27 -38 -63 -54.5t-77 -16.5q-44 0 -81.5 18t-64.5 51.5t-42 80.5t-15 106q0 55 15 102t42.5 80.5t65.5 52.5t85 19q41 0 75 -15.5t60 -53.5v54h128v-479zM158 240q0 -26 6 -51.5t18.5 -45.5t33.5 -32.5t51 -12.5q49 0 81.5 38.5t32.5 100.5
q0 66 -30.5 104.5t-81.5 38.5q-31 0 -52 -12t-34 -32t-19 -45t-6 -51zM384 671l-151 -119l-54 54l138 139z" />
    <glyph glyph-name="acircumflex" unicode="&#xe2;" horiz-adv-x="555" 
d="M499 0h-128v55q-27 -38 -63 -54.5t-77 -16.5q-44 0 -81.5 18t-64.5 51.5t-42 80.5t-15 106q0 55 15 102t42.5 80.5t65.5 52.5t85 19q41 0 75 -15.5t60 -53.5v54h128v-479zM158 240q0 -26 6 -51.5t18.5 -45.5t33.5 -32.5t51 -12.5q49 0 81.5 38.5t32.5 100.5
q0 66 -30.5 104.5t-81.5 38.5q-31 0 -52 -12t-34 -32t-19 -45t-6 -51zM409 612l-47 -63l-104 72l-104 -72l-47 63l151 119z" />
    <glyph glyph-name="atilde" unicode="&#xe3;" horiz-adv-x="555" 
d="M499 0h-128v55q-27 -38 -63 -54.5t-77 -16.5q-44 0 -81.5 18t-64.5 51.5t-42 80.5t-15 106q0 55 15 102t42.5 80.5t65.5 52.5t85 19q41 0 75 -15.5t60 -53.5v54h128v-479zM158 240q0 -26 6 -51.5t18.5 -45.5t33.5 -32.5t51 -12.5q49 0 81.5 38.5t32.5 100.5
q0 66 -30.5 104.5t-81.5 38.5q-31 0 -52 -12t-34 -32t-19 -45t-6 -51zM99 586q3 70 25.5 105t75.5 35q19 0 36 -8.5t34 -22.5t25.5 -18.5t16.5 -4.5q9 0 15 9t7 35h83q-2 -70 -30 -105t-73 -35q-25 0 -43 10t-34 24q-17 14 -23 17t-13 3q-10 0 -14 -12t-5 -32h-83z" />
    <glyph glyph-name="adieresis" unicode="&#xe4;" horiz-adv-x="555" 
d="M499 0h-128v55q-27 -38 -63 -54.5t-77 -16.5q-44 0 -81.5 18t-64.5 51.5t-42 80.5t-15 106q0 55 15 102t42.5 80.5t65.5 52.5t85 19q41 0 75 -15.5t60 -53.5v54h128v-479zM158 240q0 -26 6 -51.5t18.5 -45.5t33.5 -32.5t51 -12.5q49 0 81.5 38.5t32.5 100.5
q0 66 -30.5 104.5t-81.5 38.5q-31 0 -52 -12t-34 -32t-19 -45t-6 -51zM116 702h116v-120h-116v120zM284 702h116v-120h-116v120z" />
    <glyph glyph-name="aring" unicode="&#xe5;" horiz-adv-x="555" 
d="M499 0h-128v55q-27 -38 -63 -54.5t-77 -16.5q-44 0 -81.5 18t-64.5 51.5t-42 80.5t-15 106q0 55 15 102t42.5 80.5t65.5 52.5t85 19q41 0 75 -15.5t60 -53.5v54h128v-479zM158 240q0 -26 6 -51.5t18.5 -45.5t33.5 -32.5t51 -12.5q49 0 81.5 38.5t32.5 100.5
q0 66 -30.5 104.5t-81.5 38.5q-31 0 -52 -12t-34 -32t-19 -45t-6 -51zM209 649q0 -20 14.5 -34.5t34.5 -14.5t34.5 14.5t14.5 34.5t-14.5 34.5t-34.5 14.5t-34.5 -14.5t-14.5 -34.5zM137 649q0 25 9 47t25.5 38.5t38.5 26t48 9.5q25 0 47 -9.5t38.5 -26t26 -38.5t9.5 -47
t-9.5 -47t-26 -38.5t-38.5 -26t-47 -9.5q-26 0 -48 9.5t-38.5 26t-25.5 38.5t-9 47z" />
    <glyph glyph-name="ae" unicode="&#xe6;" horiz-adv-x="771" 
d="M242 494q54 0 88.5 -15.5t55.5 -45.5q25 33 63 47.5t78 14.5q54 0 94.5 -20t67.5 -54t40.5 -79t13.5 -94q0 -11 -0.5 -21.5t-1.5 -19.5h-300q0 -122 91 -122q29 0 49.5 14.5t26.5 34.5h128q-9 -31 -27 -58.5t-44.5 -48t-59.5 -32.5t-72 -12q-60 0 -98 21t-61 62
q-30 -38 -75 -60.5t-104 -22.5q-42 0 -73 12.5t-51.5 33.5t-30 48.5t-9.5 58.5q0 83 60 123t164 40h66v20q0 41 -21 60.5t-54 19.5q-36 0 -57 -14.5t-23 -38.5h-117q2 27 14.5 53.5t36.5 47.5t59.5 34t82.5 13zM612 299q0 25 -7 44t-19 31.5t-27 18.5t-31 6q-35 0 -60 -25
t-27 -75h171zM260 207q-48 0 -76 -18t-28 -53q0 -27 17.5 -41.5t41.5 -14.5t43.5 10t33.5 27t21.5 40t7.5 50h-61z" />
    <glyph glyph-name="ccedilla" unicode="&#xe7;" horiz-adv-x="501" 
d="M265 494q46 0 81.5 -14t61 -37.5t41 -54t22.5 -62.5h-130q-8 26 -30 40t-51 14q-20 0 -38 -8.5t-32.5 -26t-23 -44t-8.5 -61.5q0 -31 8 -57t21.5 -45t32.5 -29.5t42 -10.5q68 0 85 64h130q-8 -35 -24 -65.5t-39.5 -54.5t-55.5 -39t-72 -18l-9 -24q43 -5 67 -30t24 -60
q0 -51 -35 -78.5t-98 -27.5q-28 0 -55 7t-47 14l30 64q11 -5 30.5 -10t36.5 -5q21 0 34.5 9t13.5 27q0 20 -18 31.5t-66 11.5l31 74q-44 7 -80 27t-62 52.5t-40.5 76t-14.5 97.5q0 52 15 98.5t45 80.5t74.5 54t102.5 20z" />
    <glyph glyph-name="egrave" unicode="&#xe8;" horiz-adv-x="503" 
d="M252 495q57 0 99 -20.5t69.5 -55t41 -79t13.5 -92.5q0 -11 -0.5 -21.5t-1.5 -19.5h-315q2 -55 27 -88.5t76 -33.5q32 0 52 14.5t27 34.5h128q-9 -31 -28 -58.5t-46.5 -48t-62 -32.5t-74.5 -12q-54 0 -96.5 18.5t-72 53t-45 83t-15.5 108.5q0 58 17.5 104t47.5 78t71 49.5
t88 17.5zM344 299q0 19 -6 37.5t-18 32t-29 22t-39 8.5q-40 0 -65.5 -28.5t-27.5 -71.5h185zM187 745l138 -139l-53 -54l-151 119z" />
    <glyph glyph-name="eacute" unicode="&#xe9;" horiz-adv-x="503" 
d="M252 495q57 0 99 -20.5t69.5 -55t41 -79t13.5 -92.5q0 -11 -0.5 -21.5t-1.5 -19.5h-315q2 -55 27 -88.5t76 -33.5q32 0 52 14.5t27 34.5h128q-9 -31 -28 -58.5t-46.5 -48t-62 -32.5t-74.5 -12q-54 0 -96.5 18.5t-72 53t-45 83t-15.5 108.5q0 58 17.5 104t47.5 78t71 49.5
t88 17.5zM344 299q0 19 -6 37.5t-18 32t-29 22t-39 8.5q-40 0 -65.5 -28.5t-27.5 -71.5h185zM375 671l-151 -119l-54 54l138 139z" />
    <glyph glyph-name="ecircumflex" unicode="&#xea;" horiz-adv-x="503" 
d="M252 495q57 0 99 -20.5t69.5 -55t41 -79t13.5 -92.5q0 -11 -0.5 -21.5t-1.5 -19.5h-315q2 -55 27 -88.5t76 -33.5q32 0 52 14.5t27 34.5h128q-9 -31 -28 -58.5t-46.5 -48t-62 -32.5t-74.5 -12q-54 0 -96.5 18.5t-72 53t-45 83t-15.5 108.5q0 58 17.5 104t47.5 78t71 49.5
t88 17.5zM344 299q0 19 -6 37.5t-18 32t-29 22t-39 8.5q-40 0 -65.5 -28.5t-27.5 -71.5h185zM410 612l-47 -63l-104 72l-104 -72l-47 63l151 119z" />
    <glyph glyph-name="edieresis" unicode="&#xeb;" horiz-adv-x="503" 
d="M252 495q57 0 99 -20.5t69.5 -55t41 -79t13.5 -92.5q0 -11 -0.5 -21.5t-1.5 -19.5h-315q2 -55 27 -88.5t76 -33.5q32 0 52 14.5t27 34.5h128q-9 -31 -28 -58.5t-46.5 -48t-62 -32.5t-74.5 -12q-54 0 -96.5 18.5t-72 53t-45 83t-15.5 108.5q0 58 17.5 104t47.5 78t71 49.5
t88 17.5zM344 299q0 19 -6 37.5t-18 32t-29 22t-39 8.5q-40 0 -65.5 -28.5t-27.5 -71.5h185zM107 702h116v-120h-116v120zM275 702h116v-120h-116v120z" />
    <glyph glyph-name="igrave" unicode="&#xec;" horiz-adv-x="240" 
d="M56 479h128v-479h-128v479zM56 745l138 -139l-53 -54l-151 119z" />
    <glyph glyph-name="iacute" unicode="&#xed;" horiz-adv-x="240" 
d="M56 479h128v-479h-128v479zM244 671l-151 -119l-54 54l138 139z" />
    <glyph glyph-name="icircumflex" unicode="&#xee;" horiz-adv-x="240" 
d="M56 479h128v-479h-128v479zM269 612l-47 -63l-104 72l-104 -72l-47 63l151 119z" />
    <glyph glyph-name="idieresis" unicode="&#xef;" horiz-adv-x="240" 
d="M56 479h128v-479h-128v479zM-24 702h116v-120h-116v120zM144 702h116v-120h-116v120z" />
    <glyph glyph-name="eth" unicode="&#xf0;" horiz-adv-x="529" 
d="M132 590l81 39q-20 23 -43.5 46t-49.5 45h142q13 -11 25 -21.5t24 -21.5l91 44l37 -75l-69 -34q69 -92 100 -184.5t31 -187.5q0 -53 -17 -99.5t-48 -81.5t-74.5 -55t-97.5 -20q-53 0 -96 19.5t-74.5 54t-48.5 81.5t-17 101q0 55 16.5 101.5t47.5 80t73.5 52t95.5 18.5
q11 0 27 -2t28 -9l3 3q-8 16 -23 39t-29 39l-98 -48zM158 240q0 -35 9 -61t23.5 -43.5t33.5 -26.5t40 -9q46 0 76.5 36t30.5 104q0 63 -26.5 100.5t-80.5 37.5q-46 0 -76 -34.5t-30 -103.5z" />
    <glyph glyph-name="ntilde" unicode="&#xf1;" horiz-adv-x="518" 
d="M56 479h126v-58q20 34 52 53.5t71 19.5q32 0 61.5 -11t52 -36t36 -66t13.5 -102v-279h-127v260q0 66 -19 91t-52 25q-41 0 -64.5 -32t-23.5 -108v-236h-126v479zM105 586q3 70 25.5 105t75.5 35q19 0 36 -8.5t34 -22.5t25.5 -18.5t16.5 -4.5q9 0 15 9t7 35h83
q-2 -70 -30 -105t-73 -35q-25 0 -43 10t-34 24q-17 14 -23 17t-13 3q-10 0 -14 -12t-5 -32h-83z" />
    <glyph glyph-name="ograve" unicode="&#xf2;" horiz-adv-x="529" 
d="M28 240q0 55 17 102t48.5 80.5t74.5 52.5t96 19q54 0 98 -19.5t74.5 -53.5t47.5 -80.5t17 -100.5q0 -53 -17 -99.5t-48 -81.5t-74.5 -55t-97.5 -20q-53 0 -96 19.5t-74.5 54t-48.5 81.5t-17 101zM158 240q0 -35 9 -61t23.5 -43.5t33.5 -26.5t40 -9q46 0 76.5 36t30.5 104
q0 66 -29.5 102t-77.5 36q-46 0 -76 -34.5t-30 -103.5zM208 745l138 -139l-53 -54l-151 119z" />
    <glyph glyph-name="oacute" unicode="&#xf3;" horiz-adv-x="529" 
d="M28 240q0 55 17 102t48.5 80.5t74.5 52.5t96 19q54 0 98 -19.5t74.5 -53.5t47.5 -80.5t17 -100.5q0 -53 -17 -99.5t-48 -81.5t-74.5 -55t-97.5 -20q-53 0 -96 19.5t-74.5 54t-48.5 81.5t-17 101zM158 240q0 -35 9 -61t23.5 -43.5t33.5 -26.5t40 -9q46 0 76.5 36t30.5 104
q0 66 -29.5 102t-77.5 36q-46 0 -76 -34.5t-30 -103.5zM387 671l-151 -119l-54 54l138 139z" />
    <glyph glyph-name="ocircumflex" unicode="&#xf4;" horiz-adv-x="529" 
d="M28 240q0 55 17 102t48.5 80.5t74.5 52.5t96 19q54 0 98 -19.5t74.5 -53.5t47.5 -80.5t17 -100.5q0 -53 -17 -99.5t-48 -81.5t-74.5 -55t-97.5 -20q-53 0 -96 19.5t-74.5 54t-48.5 81.5t-17 101zM158 240q0 -35 9 -61t23.5 -43.5t33.5 -26.5t40 -9q46 0 76.5 36t30.5 104
q0 66 -29.5 102t-77.5 36q-46 0 -76 -34.5t-30 -103.5zM415 612l-47 -63l-104 72l-104 -72l-47 63l151 119z" />
    <glyph glyph-name="otilde" unicode="&#xf5;" horiz-adv-x="529" 
d="M28 240q0 55 17 102t48.5 80.5t74.5 52.5t96 19q54 0 98 -19.5t74.5 -53.5t47.5 -80.5t17 -100.5q0 -53 -17 -99.5t-48 -81.5t-74.5 -55t-97.5 -20q-53 0 -96 19.5t-74.5 54t-48.5 81.5t-17 101zM158 240q0 -35 9 -61t23.5 -43.5t33.5 -26.5t40 -9q46 0 76.5 36t30.5 104
q0 66 -29.5 102t-77.5 36q-46 0 -76 -34.5t-30 -103.5zM105 586q3 70 25.5 105t75.5 35q19 0 36 -8.5t34 -22.5t25.5 -18.5t16.5 -4.5q9 0 15 9t7 35h83q-2 -70 -30 -105t-73 -35q-25 0 -43 10t-34 24q-17 14 -23 17t-13 3q-10 0 -14 -12t-5 -32h-83z" />
    <glyph glyph-name="odieresis" unicode="&#xf6;" horiz-adv-x="529" 
d="M28 240q0 55 17 102t48.5 80.5t74.5 52.5t96 19q54 0 98 -19.5t74.5 -53.5t47.5 -80.5t17 -100.5q0 -53 -17 -99.5t-48 -81.5t-74.5 -55t-97.5 -20q-53 0 -96 19.5t-74.5 54t-48.5 81.5t-17 101zM158 240q0 -35 9 -61t23.5 -43.5t33.5 -26.5t40 -9q46 0 76.5 36t30.5 104
q0 66 -29.5 102t-77.5 36q-46 0 -76 -34.5t-30 -103.5zM122 702h116v-120h-116v120zM290 702h116v-120h-116v120z" />
    <glyph glyph-name="divide" unicode="&#xf7;" horiz-adv-x="569" 
d="M356 456q0 -34 -21.5 -53t-49.5 -19q-30 0 -51.5 21t-21.5 49q0 31 20.5 52t52.5 21t51.5 -20.5t19.5 -50.5zM356 73q0 -33 -21.5 -53.5t-49.5 -20.5q-30 0 -51.5 22t-21.5 51t20.5 50.5t52.5 21.5t51.5 -21t19.5 -50zM45 218v95h479v-95h-479z" />
    <glyph glyph-name="oslash" unicode="&#xf8;" horiz-adv-x="529" 
d="M60 -41l47 85q-38 35 -58.5 85.5t-20.5 110.5q0 55 17 102t48.5 80.5t74.5 52.5t96 19q46 0 85 -15l44 78l76 -41l-46 -81q37 -35 57.5 -85t20.5 -110q0 -53 -17 -99.5t-48 -81.5t-74.5 -55t-97.5 -20q-45 0 -84 15l-44 -81zM149 240q0 -29 6 -53t17 -42l131 234
q-9 3 -18.5 5t-20.5 2q-50 0 -82.5 -37t-32.5 -109zM380 240q0 29 -6 52.5t-17 41.5l-132 -235q17 -7 39 -7q50 0 83 38t33 110z" />
    <glyph glyph-name="ugrave" unicode="&#xf9;" horiz-adv-x="518" 
d="M462 0h-126v58q-17 -35 -49 -54t-65 -19q-32 0 -63 11t-55 36t-39 66t-15 102v279h127v-252q0 -66 19 -95t52 -29q20 0 36.5 6.5t28 22.5t17.5 43t6 69v235h126v-479zM194 745l138 -139l-53 -54l-151 119z" />
    <glyph glyph-name="uacute" unicode="&#xfa;" horiz-adv-x="518" 
d="M462 0h-126v58q-17 -35 -49 -54t-65 -19q-32 0 -63 11t-55 36t-39 66t-15 102v279h127v-252q0 -66 19 -95t52 -29q20 0 36.5 6.5t28 22.5t17.5 43t6 69v235h126v-479zM382 671l-151 -119l-54 54l138 139z" />
    <glyph glyph-name="ucircumflex" unicode="&#xfb;" horiz-adv-x="518" 
d="M462 0h-126v58q-17 -35 -49 -54t-65 -19q-32 0 -63 11t-55 36t-39 66t-15 102v279h127v-252q0 -66 19 -95t52 -29q20 0 36.5 6.5t28 22.5t17.5 43t6 69v235h126v-479zM407 612l-47 -63l-104 72l-104 -72l-47 63l151 119z" />
    <glyph glyph-name="udieresis" unicode="&#xfc;" horiz-adv-x="518" 
d="M462 0h-126v58q-17 -35 -49 -54t-65 -19q-32 0 -63 11t-55 36t-39 66t-15 102v279h127v-252q0 -66 19 -95t52 -29q20 0 36.5 6.5t28 22.5t17.5 43t6 69v235h126v-479zM114 702h116v-120h-116v120zM282 702h116v-120h-116v120z" />
    <glyph glyph-name="yacute" unicode="&#xfd;" horiz-adv-x="436" 
d="M155 8l-160 471h137l55 -184q4 -14 9 -32l10 -36t8.5 -35.5t5.5 -29.5h2q2 12 5.5 30t8 36.5t9 36.5t8.5 30l55 184h130l-240 -714h-128zM347 671l-151 -119l-54 54l138 139z" />
    <glyph glyph-name="thorn" unicode="&#xfe;" horiz-adv-x="555" 
d="M56 720h128v-297q23 33 56.5 52t78.5 19q44 0 82 -18t66 -51.5t44 -81t16 -105.5q0 -56 -15 -102.5t-42.5 -80t-66.5 -52.5t-87 -19q-45 0 -79 18t-53 51v-288h-128v955zM397 238q0 26 -6 51.5t-19.5 45.5t-34.5 32.5t-51 12.5q-22 0 -42.5 -10t-36 -28.5t-24.5 -44
t-9 -56.5q0 -33 9 -59t24 -45t35 -29t42 -10q31 0 52.5 12t35 32t19.5 45t6 51z" />
    <glyph glyph-name="ydieresis" unicode="&#xff;" horiz-adv-x="436" 
d="M155 8l-160 471h137l55 -184q4 -14 9 -32l10 -36t8.5 -35.5t5.5 -29.5h2q2 12 5.5 30t8 36.5t9 36.5t8.5 30l55 184h130l-240 -714h-128zM79 702h116v-120h-116v120zM247 702h116v-120h-116v120z" />
    <glyph glyph-name="Amacron" unicode="&#x100;" horiz-adv-x="550" 
d="M212 682h133l215 -682h-144l-43 155h-200l-43 -155h-140zM200 257h146l-32 115q-4 14 -9 32.5t-9.5 38.5t-9 39.5t-7.5 34.5h-4q-4 -16 -9 -35t-10.5 -39t-11 -38.5t-9.5 -33.5zM136 774v95h288v-95h-288z" />
    <glyph glyph-name="amacron" unicode="&#x101;" horiz-adv-x="555" 
d="M499 0h-128v55q-27 -38 -63 -54.5t-77 -16.5q-44 0 -81.5 18t-64.5 51.5t-42 80.5t-15 106q0 55 15 102t42.5 80.5t65.5 52.5t85 19q41 0 75 -15.5t60 -53.5v54h128v-479zM158 240q0 -26 6 -51.5t18.5 -45.5t33.5 -32.5t51 -12.5q49 0 81.5 38.5t32.5 100.5
q0 66 -30.5 104.5t-81.5 38.5q-31 0 -52 -12t-34 -32t-19 -45t-6 -51zM124 589v95h268v-95h-268z" />
    <glyph glyph-name="Abreve" unicode="&#x102;" horiz-adv-x="550" 
d="M212 682h133l215 -682h-144l-43 155h-200l-43 -155h-140zM200 257h146l-32 115q-4 14 -9 32.5t-9.5 38.5t-9 39.5t-7.5 34.5h-4q-4 -16 -9 -35t-10.5 -39t-11 -38.5t-9.5 -33.5zM434 877q-2 -26 -12.5 -49.5t-30 -42t-47.5 -29.5t-64 -11q-72 0 -111 33.5t-43 98.5h91
q3 -16 17 -29.5t46 -13.5t46.5 13.5t16.5 29.5h91z" />
    <glyph glyph-name="abreve" unicode="&#x103;" horiz-adv-x="555" 
d="M499 0h-128v55q-27 -38 -63 -54.5t-77 -16.5q-44 0 -81.5 18t-64.5 51.5t-42 80.5t-15 106q0 55 15 102t42.5 80.5t65.5 52.5t85 19q41 0 75 -15.5t60 -53.5v54h128v-479zM158 240q0 -26 6 -51.5t18.5 -45.5t33.5 -32.5t51 -12.5q49 0 81.5 38.5t32.5 100.5
q0 66 -30.5 104.5t-81.5 38.5q-31 0 -52 -12t-34 -32t-19 -45t-6 -51zM412 719q-2 -32 -13 -59.5t-30.5 -48t-47.5 -32.5t-63 -12q-67 0 -108 36t-46 116h89q3 -25 18 -42.5t47 -17.5t47.5 18t17.5 42h89z" />
    <glyph glyph-name="Aogonek" unicode="&#x104;" horiz-adv-x="550" 
d="M551 -209q-11 -2 -28.5 -4t-32.5 -2q-53 0 -77 26t-24 68q0 16 5.5 33t15.5 33.5t24 31t30 23.5h-48l-43 155h-200l-43 -155h-140l222 682h133l215 -682q-31 -7 -55 -31.5t-24 -59.5q0 -36 39 -36q14 0 31 3v-85zM200 257h146l-32 115q-4 14 -9 32.5t-9.5 38.5t-9 39.5
t-7.5 34.5h-4q-4 -16 -9 -35t-10.5 -39t-11 -38.5t-9.5 -33.5z" />
    <glyph glyph-name="aogonek" unicode="&#x105;" horiz-adv-x="555" 
d="M499 -209q-11 -2 -28.5 -4t-32.5 -2q-53 0 -77 26t-24 68q0 16 5.5 33t15 33.5t23 31t29.5 23.5h-39v65q-29 -45 -67 -63t-73 -18q-44 0 -81.5 18t-64.5 51.5t-42 80.5t-15 106q0 55 15 102t42.5 80.5t65.5 52.5t85 19q41 0 76 -20t59 -59v64h128v-479q-15 -4 -28 -13
t-22.5 -21.5t-14.5 -27t-5 -29.5q0 -36 39 -36q14 0 31 3v-85zM158 240q0 -26 6 -51.5t18.5 -45.5t33.5 -32.5t51 -12.5q49 0 81.5 38.5t32.5 100.5q0 66 -30.5 104.5t-81.5 38.5q-31 0 -52 -12t-34 -32t-19 -45t-6 -51z" />
    <glyph glyph-name="Cacute" unicode="&#x106;" horiz-adv-x="604" 
d="M320 698q59 0 104.5 -17t77 -46.5t49.5 -69t24 -83.5h-144q-10 52 -41.5 72t-73.5 20q-28 0 -54.5 -13t-46.5 -40.5t-32.5 -71.5t-12.5 -107q0 -117 41 -175.5t106 -58.5q44 0 75 22.5t42 83.5h144q-21 -118 -89 -174t-171 -56q-65 0 -118 22.5t-91 67.5t-58.5 112
t-20.5 157t22 156.5t61 110.5t92 66t115 22zM430 827l-170 -90l-42 63l161 112z" />
    <glyph glyph-name="cacute" unicode="&#x107;" horiz-adv-x="501" 
d="M265 494q46 0 82 -14.5t61.5 -39t41 -56t21.5 -64.5h-130q-8 26 -28.5 42t-52.5 16q-20 0 -38 -7.5t-32.5 -24t-23 -43t-8.5 -63.5q0 -66 29.5 -103t74.5 -37q68 0 85 64h130q-6 -33 -23.5 -65t-45 -57.5t-64.5 -41.5t-82 -16q-53 0 -96 17.5t-73.5 51t-47.5 81
t-17 107.5q0 52 15 98.5t45 80.5t74.5 54t102.5 20zM376 671l-151 -119l-54 54l138 139z" />
    <glyph glyph-name="Ccircumflex" unicode="&#x108;" horiz-adv-x="604" 
d="M320 698q59 0 104.5 -17t77 -46.5t49.5 -69t24 -83.5h-144q-10 52 -41.5 72t-73.5 20q-28 0 -54.5 -13t-46.5 -40.5t-32.5 -71.5t-12.5 -107q0 -117 41 -175.5t106 -58.5q44 0 75 22.5t42 83.5h144q-21 -118 -89 -174t-171 -56q-65 0 -118 22.5t-91 67.5t-58.5 112
t-20.5 157t22 156.5t61 110.5t92 66t115 22zM465 798l-38 -65l-109 52l-110 -52l-37 65l147 97z" />
    <glyph glyph-name="ccircumflex" unicode="&#x109;" horiz-adv-x="501" 
d="M265 494q46 0 82 -14.5t61.5 -39t41 -56t21.5 -64.5h-130q-8 26 -28.5 42t-52.5 16q-20 0 -38 -7.5t-32.5 -24t-23 -43t-8.5 -63.5q0 -66 29.5 -103t74.5 -37q68 0 85 64h130q-6 -33 -23.5 -65t-45 -57.5t-64.5 -41.5t-82 -16q-53 0 -96 17.5t-73.5 51t-47.5 81
t-17 107.5q0 52 15 98.5t45 80.5t74.5 54t102.5 20zM411 612l-47 -63l-104 72l-104 -72l-47 63l151 119z" />
    <glyph glyph-name="Cdotaccent" unicode="&#x10a;" horiz-adv-x="604" 
d="M320 698q59 0 104.5 -17t77 -46.5t49.5 -69t24 -83.5h-144q-10 52 -41.5 72t-73.5 20q-28 0 -54.5 -13t-46.5 -40.5t-32.5 -71.5t-12.5 -107q0 -117 41 -175.5t106 -58.5q44 0 75 22.5t42 83.5h144q-21 -118 -89 -174t-171 -56q-65 0 -118 22.5t-91 67.5t-58.5 112
t-20.5 157t22 156.5t61 110.5t92 66t115 22zM260 887h116v-120h-116v120z" />
    <glyph glyph-name="cdotaccent" unicode="&#x10b;" horiz-adv-x="501" 
d="M265 494q46 0 82 -14.5t61.5 -39t41 -56t21.5 -64.5h-130q-8 26 -28.5 42t-52.5 16q-20 0 -38 -7.5t-32.5 -24t-23 -43t-8.5 -63.5q0 -66 29.5 -103t74.5 -37q68 0 85 64h130q-6 -33 -23.5 -65t-45 -57.5t-64.5 -41.5t-82 -16q-53 0 -96 17.5t-73.5 51t-47.5 81
t-17 107.5q0 52 15 98.5t45 80.5t74.5 54t102.5 20zM202 704h116v-120h-116v120z" />
    <glyph glyph-name="Ccaron" unicode="&#x10c;" horiz-adv-x="604" 
d="M320 698q59 0 104.5 -17t77 -46.5t49.5 -69t24 -83.5h-144q-10 52 -41.5 72t-73.5 20q-28 0 -54.5 -13t-46.5 -40.5t-32.5 -71.5t-12.5 -107q0 -117 41 -175.5t106 -58.5q44 0 75 22.5t42 83.5h144q-21 -118 -89 -174t-171 -56q-65 0 -118 22.5t-91 67.5t-58.5 112
t-20.5 157t22 156.5t61 110.5t92 66t115 22zM159 830l38 65l109 -52l110 52l37 -65l-147 -97z" />
    <glyph glyph-name="ccaron" unicode="&#x10d;" horiz-adv-x="501" 
d="M265 494q46 0 82 -14.5t61.5 -39t41 -56t21.5 -64.5h-130q-8 26 -28.5 42t-52.5 16q-20 0 -38 -7.5t-32.5 -24t-23 -43t-8.5 -63.5q0 -66 29.5 -103t74.5 -37q68 0 85 64h130q-6 -33 -23.5 -65t-45 -57.5t-64.5 -41.5t-82 -16q-53 0 -96 17.5t-73.5 51t-47.5 81
t-17 107.5q0 52 15 98.5t45 80.5t74.5 54t102.5 20zM109 667l47 63l104 -72l104 72l47 -63l-151 -119z" />
    <glyph glyph-name="Dcaron" unicode="&#x10e;" horiz-adv-x="588" 
d="M270 125q31 0 58.5 10t47 35t31 66.5t11.5 104.5q0 62 -10.5 103.5t-30 66.5t-47 35.5t-60.5 10.5h-72v-432h72zM60 0v682h211q67 0 120 -21.5t90 -64.5t57 -106.5t20 -148.5q0 -88 -22 -152.5t-60 -106.5t-91 -62t-114 -20h-211zM115 830l38 65l109 -52l110 52l37 -65
l-147 -97z" />
    <glyph glyph-name="dcaron" unicode="&#x10f;" horiz-adv-x="658" 
d="M499 0h-128v55q-23 -32 -56.5 -51.5t-78.5 -19.5q-44 0 -82 18t-66 51.5t-44 80.5t-16 106q0 55 15 102t42.5 80.5t66.5 52.5t87 19q45 0 78.5 -18.5t53.5 -50.5v295h128v-720zM158 240q0 -26 6 -51.5t19.5 -45.5t34.5 -32.5t51 -12.5q21 0 41 10t36 28.5t25.5 44
t9.5 56.5q0 33 -9 59t-24 45t-35 29t-42 10q-31 0 -52.5 -12t-35 -32t-19.5 -45t-6 -51zM547 720h116v-61q0 -79 -48 -134h-61q15 20 26 48.5t11 47.5h-44v99z" />
    <glyph glyph-name="Dcroat" unicode="&#x110;" horiz-adv-x="608" 
d="M80 0v299h-65v104h65v279h211q67 0 120 -21.5t90 -64.5t57 -106.5t20 -148.5q0 -88 -22 -152.5t-60 -106.5t-91 -62t-114 -20h-211zM290 125q31 0 58.5 10t47 35t31 66.5t11.5 104.5q0 62 -10.5 103.5t-30 66.5t-47 35.5t-60.5 10.5h-72v-154h117v-104h-117v-174h72z" />
    <glyph glyph-name="dcroat" unicode="&#x111;" horiz-adv-x="555" 
d="M499 559v-559h-128v55q-21 -31 -55.5 -51t-79.5 -20q-44 0 -82 18t-66 51.5t-44 80.5t-16 106q0 55 15 102t42.5 80.5t66.5 52.5t87 19q45 0 77 -19t55 -50v134h-134v95h134v66h128v-66h56v-95h-56zM158 240q0 -26 6 -51.5t19.5 -45.5t34.5 -32.5t51 -12.5q21 0 41 10
t36 28.5t25.5 44t9.5 56.5q0 33 -9 59t-24 45t-35 29t-42 10q-31 0 -52.5 -12t-35 -32t-19.5 -45t-6 -51z" />
    <glyph glyph-name="Emacron" unicode="&#x112;" horiz-adv-x="447" 
d="M401 558h-203v-147h193v-118h-193v-169h211v-124h-349v682h341v-124zM83 774v95h288v-95h-288z" />
    <glyph glyph-name="emacron" unicode="&#x113;" horiz-adv-x="503" 
d="M252 495q57 0 99 -20.5t69.5 -55t41 -79t13.5 -92.5q0 -11 -0.5 -21.5t-1.5 -19.5h-315q2 -55 27 -88.5t76 -33.5q32 0 52 14.5t27 34.5h128q-9 -31 -28 -58.5t-46.5 -48t-62 -32.5t-74.5 -12q-54 0 -96.5 18.5t-72 53t-45 83t-15.5 108.5q0 58 17.5 104t47.5 78t71 49.5
t88 17.5zM344 299q0 19 -6 37.5t-18 32t-29 22t-39 8.5q-40 0 -65.5 -28.5t-27.5 -71.5h185zM118 589v95h268v-95h-268z" />
    <glyph glyph-name="Ebreve" unicode="&#x114;" horiz-adv-x="447" 
d="M401 558h-203v-147h193v-118h-193v-169h211v-124h-349v682h341v-124zM381 877q-2 -26 -12.5 -49.5t-30 -42t-47.5 -29.5t-64 -11q-72 0 -111 33.5t-43 98.5h91q3 -16 17 -29.5t46 -13.5t46.5 13.5t16.5 29.5h91z" />
    <glyph glyph-name="ebreve" unicode="&#x115;" horiz-adv-x="503" 
d="M252 495q57 0 99 -20.5t69.5 -55t41 -79t13.5 -92.5q0 -11 -0.5 -21.5t-1.5 -19.5h-315q2 -55 27 -88.5t76 -33.5q32 0 52 14.5t27 34.5h128q-9 -31 -28 -58.5t-46.5 -48t-62 -32.5t-74.5 -12q-54 0 -96.5 18.5t-72 53t-45 83t-15.5 108.5q0 58 17.5 104t47.5 78t71 49.5
t88 17.5zM344 299q0 19 -6 37.5t-18 32t-29 22t-39 8.5q-40 0 -65.5 -28.5t-27.5 -71.5h185zM409 719q-2 -32 -13 -59.5t-30.5 -48t-47.5 -32.5t-63 -12q-67 0 -108 36t-46 116h89q3 -25 18 -42.5t47 -17.5t47.5 18t17.5 42h89z" />
    <glyph glyph-name="Edotaccent" unicode="&#x116;" horiz-adv-x="447" 
d="M401 558h-203v-147h193v-118h-193v-169h211v-124h-349v682h341v-124zM169 887h116v-120h-116v120z" />
    <glyph glyph-name="edotaccent" unicode="&#x117;" horiz-adv-x="503" 
d="M252 495q57 0 99 -20.5t69.5 -55t41 -79t13.5 -92.5q0 -11 -0.5 -21.5t-1.5 -19.5h-315q2 -55 27 -88.5t76 -33.5q32 0 52 14.5t27 34.5h128q-9 -31 -28 -58.5t-46.5 -48t-62 -32.5t-74.5 -12q-54 0 -96.5 18.5t-72 53t-45 83t-15.5 108.5q0 58 17.5 104t47.5 78t71 49.5
t88 17.5zM344 299q0 19 -6 37.5t-18 32t-29 22t-39 8.5q-40 0 -65.5 -28.5t-27.5 -71.5h185zM194 704h116v-120h-116v120z" />
    <glyph glyph-name="Eogonek" unicode="&#x118;" horiz-adv-x="447" 
d="M391 -209q-11 -2 -28.5 -4t-32.5 -2q-53 0 -77 26t-24 68q0 32 19 65.5t56 55.5h-244v682h341v-124h-203v-147h193v-118h-193v-169h211v-124h-10q-17 0 -31 -7.5t-24.5 -20.5t-16.5 -29t-6 -34q0 -36 39 -36q14 0 31 3v-85z" />
    <glyph glyph-name="eogonek" unicode="&#x119;" horiz-adv-x="503" 
d="M352 -209q-11 -2 -28.5 -4t-32.5 -2q-53 0 -77 26t-24 68q0 26 14.5 55t37.5 50q-50 3 -90 22.5t-67.5 53.5t-42 81t-14.5 105t17.5 104t47.5 78t71 49.5t88 17.5q57 0 99 -20.5t69.5 -55t41 -79t13.5 -92.5q0 -11 -0.5 -21.5t-1.5 -19.5h-315q2 -55 27 -88.5t76 -33.5
q32 0 52 14.5t27 34.5h128q-11 -35 -33.5 -65.5t-56.5 -51.5q-14 -9 -30 -17.5t-29 -19.5q-37 -34 -37 -71q0 -36 39 -36q14 0 31 3v-85zM252 399q-42 0 -66.5 -29t-26.5 -71h185q0 19 -6 37.5t-18 32t-29 22t-39 8.5z" />
    <glyph glyph-name="Ecaron" unicode="&#x11a;" horiz-adv-x="447" 
d="M401 558h-203v-147h193v-118h-193v-169h211v-124h-349v682h341v-124zM80 830l38 65l109 -52l110 52l37 -65l-147 -97z" />
    <glyph glyph-name="ecaron" unicode="&#x11b;" horiz-adv-x="503" 
d="M252 495q57 0 99 -20.5t69.5 -55t41 -79t13.5 -92.5q0 -11 -0.5 -21.5t-1.5 -19.5h-315q2 -55 27 -88.5t76 -33.5q32 0 52 14.5t27 34.5h128q-9 -31 -28 -58.5t-46.5 -48t-62 -32.5t-74.5 -12q-54 0 -96.5 18.5t-72 53t-45 83t-15.5 108.5q0 58 17.5 104t47.5 78t71 49.5
t88 17.5zM344 299q0 19 -6 37.5t-18 32t-29 22t-39 8.5q-40 0 -65.5 -28.5t-27.5 -71.5h185zM101 667l47 63l104 -72l104 72l47 -63l-151 -119z" />
    <glyph glyph-name="Gcircumflex" unicode="&#x11c;" horiz-adv-x="624" 
d="M594 380v-30q0 -95 -19 -164t-55 -114t-87.5 -66.5t-117.5 -21.5q-68 0 -121 25t-89.5 71.5t-55.5 112.5t-19 148q0 87 21 154t59 112t90 68t114 23q109 0 177.5 -55.5t85.5 -148.5h-143q-4 15 -13 29t-23 25.5t-34 18.5t-46 7q-30 0 -57 -13.5t-47 -41.5t-32 -70.5
t-12 -100.5q0 -63 11 -108.5t31 -75t47.5 -43t60.5 -13.5q57 0 90.5 40t36.5 114h-147v118h294zM466 798l-38 -65l-109 52l-110 -52l-37 65l147 97z" />
    <glyph glyph-name="gcircumflex" unicode="&#x11d;" horiz-adv-x="564" 
d="M508 -6q0 -65 -17 -112.5t-48.5 -78t-76.5 -45.5t-101 -15q-95 0 -155.5 52t-70.5 140h128q4 -34 29 -56t72 -22q52 0 82.5 30t30.5 106v64q-56 -68 -141 -68q-49 0 -88 18t-66.5 51t-42.5 79.5t-15 103.5q0 52 14.5 98.5t42 80.5t66.5 54t88 20q48 0 83 -19.5t59 -55.5
v60h127v-485zM157 240q0 -62 29.5 -99.5t84.5 -37.5q53 0 86.5 36.5t33.5 99.5q0 65 -32 103t-86 38q-56 0 -86 -38.5t-30 -101.5zM412 612l-47 -63l-104 72l-104 -72l-47 63l151 119z" />
    <glyph glyph-name="Gbreve" unicode="&#x11e;" horiz-adv-x="624" 
d="M594 380v-30q0 -95 -19 -164t-55 -114t-87.5 -66.5t-117.5 -21.5q-68 0 -121 25t-89.5 71.5t-55.5 112.5t-19 148q0 87 21 154t59 112t90 68t114 23q109 0 177.5 -55.5t85.5 -148.5h-143q-4 15 -13 29t-23 25.5t-34 18.5t-46 7q-30 0 -57 -13.5t-47 -41.5t-32 -70.5
t-12 -100.5q0 -63 11 -108.5t31 -75t47.5 -43t60.5 -13.5q57 0 90.5 40t36.5 114h-147v118h294zM473 877q-2 -26 -12.5 -49.5t-30 -42t-47.5 -29.5t-64 -11q-72 0 -111 33.5t-43 98.5h91q3 -16 17 -29.5t46 -13.5t46.5 13.5t16.5 29.5h91z" />
    <glyph glyph-name="gbreve" unicode="&#x11f;" horiz-adv-x="564" 
d="M508 -6q0 -65 -17 -112.5t-48.5 -78t-76.5 -45.5t-101 -15q-95 0 -155.5 52t-70.5 140h128q4 -34 29 -56t72 -22q52 0 82.5 30t30.5 106v64q-56 -68 -141 -68q-49 0 -88 18t-66.5 51t-42.5 79.5t-15 103.5q0 52 14.5 98.5t42 80.5t66.5 54t88 20q48 0 83 -19.5t59 -55.5
v60h127v-485zM157 240q0 -62 29.5 -99.5t84.5 -37.5q53 0 86.5 36.5t33.5 99.5q0 65 -32 103t-86 38q-56 0 -86 -38.5t-30 -101.5zM415 719q-2 -32 -13 -59.5t-30.5 -48t-47.5 -32.5t-63 -12q-67 0 -108 36t-46 116h89q3 -25 18 -42.5t47 -17.5t47.5 18t17.5 42h89z" />
    <glyph glyph-name="Gdotaccent" unicode="&#x120;" horiz-adv-x="624" 
d="M594 380v-30q0 -95 -19 -164t-55 -114t-87.5 -66.5t-117.5 -21.5q-68 0 -121 25t-89.5 71.5t-55.5 112.5t-19 148q0 87 21 154t59 112t90 68t114 23q109 0 177.5 -55.5t85.5 -148.5h-143q-4 15 -13 29t-23 25.5t-34 18.5t-46 7q-30 0 -57 -13.5t-47 -41.5t-32 -70.5
t-12 -100.5q0 -63 11 -108.5t31 -75t47.5 -43t60.5 -13.5q57 0 90.5 40t36.5 114h-147v118h294zM261 887h116v-120h-116v120z" />
    <glyph glyph-name="gdotaccent" unicode="&#x121;" horiz-adv-x="564" 
d="M508 -6q0 -65 -17 -112.5t-48.5 -78t-76.5 -45.5t-101 -15q-95 0 -155.5 52t-70.5 140h128q4 -34 29 -56t72 -22q52 0 82.5 30t30.5 106v64q-56 -68 -141 -68q-49 0 -88 18t-66.5 51t-42.5 79.5t-15 103.5q0 52 14.5 98.5t42 80.5t66.5 54t88 20q48 0 83 -19.5t59 -55.5
v60h127v-485zM157 240q0 -62 29.5 -99.5t84.5 -37.5q53 0 86.5 36.5t33.5 99.5q0 65 -32 103t-86 38q-56 0 -86 -38.5t-30 -101.5zM198 704h116v-120h-116v120z" />
    <glyph glyph-name="Gcommaaccent" unicode="&#x122;" horiz-adv-x="624" 
d="M594 380v-30q0 -95 -19 -164t-55 -114t-87.5 -66.5t-117.5 -21.5q-68 0 -121 25t-89.5 71.5t-55.5 112.5t-19 148q0 87 21 154t59 112t90 68t114 23q109 0 177.5 -55.5t85.5 -148.5h-143q-4 15 -13 29t-23 25.5t-34 18.5t-46 7q-30 0 -57 -13.5t-47 -41.5t-32 -70.5
t-12 -100.5q0 -63 11 -108.5t31 -75t47.5 -43t60.5 -13.5q57 0 90.5 40t36.5 114h-147v118h294zM262 -59h116v-61q0 -79 -48 -134h-61q15 20 26 48.5t11 47.5h-44v99z" />
    <glyph glyph-name="gcommaaccent" unicode="&#x123;" horiz-adv-x="564" 
d="M508 -6q0 -65 -17 -112.5t-48.5 -78t-76.5 -45.5t-101 -15q-95 0 -155.5 52t-70.5 140h128q4 -34 29 -56t72 -22q52 0 82.5 30t30.5 106v64q-56 -68 -141 -68q-49 0 -88 18t-66.5 51t-42.5 79.5t-15 103.5q0 52 14.5 98.5t42 80.5t66.5 54t88 20q48 0 83 -19.5t59 -55.5
v60h127v-485zM157 240q0 -62 29.5 -99.5t84.5 -37.5q53 0 86.5 36.5t33.5 99.5q0 65 -32 103t-86 38q-56 0 -86 -38.5t-30 -101.5zM304 550h-116v61q0 79 48 134h61q-15 -20 -26 -48.5t-11 -47.5h44v-99z" />
    <glyph glyph-name="Hcircumflex" unicode="&#x124;" horiz-adv-x="615" 
d="M417 290h-219v-290h-138v682h138v-268h219v268h138v-682h-138v290zM454 798l-38 -65l-109 52l-110 -52l-37 65l147 97z" />
    <glyph glyph-name="hcircumflex" unicode="&#x125;" horiz-adv-x="518" 
d="M56 720h126v-299q18 35 52.5 54t69.5 19q79 0 121.5 -50.5t42.5 -164.5v-279h-127v260q0 66 -19 91t-52 25q-41 0 -64.5 -32t-23.5 -108v-236h-126v720zM270 824l-47 -63l-104 72l-104 -72l-47 63l151 119z" />
    <glyph glyph-name="Hbar" unicode="&#x126;" horiz-adv-x="615" 
d="M555 508v-508h-138v285h-219v-285h-138v508h-60v95h60v79h138v-79h219v79h138v-79h60v-95h-60zM417 409v99h-219v-99h219z" />
    <glyph glyph-name="hbar" unicode="&#x127;" horiz-adv-x="518" 
d="M182 559v-138q18 35 52.5 54t69.5 19q79 0 121.5 -50.5t42.5 -164.5v-279h-127v260q0 66 -19 91t-52 25q-41 0 -64.5 -32t-23.5 -108v-236h-126v559h-56v95h56v66h126v-66h136v-95h-136z" />
    <glyph glyph-name="Itilde" unicode="&#x128;" horiz-adv-x="258" 
d="M60 682h138v-682h-138v682zM-28 762q3 70 25.5 105t75.5 35q19 0 36 -8.5t34 -22.5t25.5 -18.5t16.5 -4.5q9 0 15 9t7 35h83q-2 -70 -30 -105t-73 -35q-25 0 -43 10t-34 24q-17 14 -23 17t-13 3q-10 0 -14 -12t-5 -32h-83z" />
    <glyph glyph-name="itilde" unicode="&#x129;" horiz-adv-x="240" 
d="M56 479h128v-479h-128v479zM-41 586q3 70 25.5 105t75.5 35q19 0 36 -8.5t34 -22.5t25.5 -18.5t16.5 -4.5q9 0 15 9t7 35h83q-2 -70 -30 -105t-73 -35q-25 0 -43 10t-34 24q-17 14 -23 17t-13 3q-10 0 -14 -12t-5 -32h-83z" />
    <glyph glyph-name="Imacron" unicode="&#x12a;" horiz-adv-x="258" 
d="M60 682h138v-682h-138v682zM-15 774v95h288v-95h-288z" />
    <glyph glyph-name="imacron" unicode="&#x12b;" horiz-adv-x="240" 
d="M56 479h128v-479h-128v479zM-16 589v95h268v-95h-268z" />
    <glyph glyph-name="Ibreve" unicode="&#x12c;" horiz-adv-x="258" 
d="M60 682h138v-682h-138v682zM283 877q-2 -26 -12.5 -49.5t-30 -42t-47.5 -29.5t-64 -11q-72 0 -111 33.5t-43 98.5h91q3 -16 17 -29.5t46 -13.5t46.5 13.5t16.5 29.5h91z" />
    <glyph glyph-name="ibreve" unicode="&#x12d;" horiz-adv-x="240" 
d="M56 479h128v-479h-128v479zM272 719q-2 -32 -13 -59.5t-30.5 -48t-47.5 -32.5t-63 -12q-67 0 -108 36t-46 116h89q3 -25 18 -42.5t47 -17.5t47.5 18t17.5 42h89z" />
    <glyph glyph-name="Iogonek" unicode="&#x12e;" horiz-adv-x="258" 
d="M60 682h138v-682q-10 -1 -22.5 -8t-23 -19t-17.5 -27.5t-7 -32.5q0 -23 9.5 -31.5t29.5 -8.5q14 0 31 3v-85q-11 -2 -28.5 -4t-32.5 -2q-53 0 -77 26t-24 68q0 38 21.5 70t53.5 51h-51v682z" />
    <glyph glyph-name="iogonek" unicode="&#x12f;" horiz-adv-x="240" 
d="M56 479h128v-479q-28 -7 -49 -33.5t-21 -57.5q0 -18 8.5 -27t30.5 -9q14 0 31 3v-85q-11 -2 -28.5 -4t-32.5 -2q-53 0 -77 26t-24 68q0 40 23 72t52 49h-41v479zM56 708h128v-124h-128v124z" />
    <glyph glyph-name="Idotaccent" unicode="&#x130;" horiz-adv-x="258" 
d="M60 682h138v-682h-138v682zM71 887h116v-120h-116v120z" />
    <glyph glyph-name="dotlessi" unicode="&#x131;" horiz-adv-x="240" 
d="M56 479h128v-479h-128v479z" />
    <glyph glyph-name="Jcircumflex" unicode="&#x134;" horiz-adv-x="318" 
d="M124 682h138v-477q0 -60 -12 -102.5t-34.5 -68.5t-53.5 -38t-70 -12q-24 0 -48.5 3.5t-38.5 8.5v117q8 -3 24 -5t27 -2q38 0 53 21.5t15 75.5v479zM341 798l-38 -65l-109 52l-110 -52l-37 65l147 97z" />
    <glyph glyph-name="jcircumflex" unicode="&#x135;" horiz-adv-x="240" 
d="M184 479v-531q0 -41 -8.5 -75t-28 -58t-51 -37t-78.5 -13q-11 0 -29 2t-30 4v114q8 -2 19.5 -3t19.5 -1q33 0 45.5 15.5t12.5 52.5v530h128zM269 581l-45 -58l-104 72l-104 -72l-45 58l149 119z" />
    <glyph glyph-name="Kcommaaccent" unicode="&#x136;" horiz-adv-x="539" 
d="M222 292l-24 -32v-260h-138v682h138v-246l169 246h157l-213 -286l225 -396h-158zM226 -58h116v-61q0 -79 -48 -134h-61q15 20 26 48.5t11 47.5h-44v99z" />
    <glyph glyph-name="kcommaaccent" unicode="&#x137;" horiz-adv-x="464" 
d="M222 217l-38 -50v-167h-128v720h128v-400l120 159h146l-141 -175l151 -304h-139zM194 -59h116v-61q0 -79 -48 -134h-61q15 20 26 48.5t11 47.5h-44v99z" />
    <glyph glyph-name="kgreenlandic" unicode="&#x138;" horiz-adv-x="464" 
d="M222 217l-38 -50v-167h-128v479h128v-159l120 159h146l-141 -175l151 -304h-139z" />
    <glyph glyph-name="Lacute" unicode="&#x139;" horiz-adv-x="414" 
d="M65 682h138v-558h196v-124h-334v682zM257 827l-170 -90l-42 63l161 112z" />
    <glyph glyph-name="lacute" unicode="&#x13a;" horiz-adv-x="240" 
d="M56 720h128v-720h-128v720zM245 883l-151 -119l-54 54l138 139z" />
    <glyph glyph-name="Lcommaaccent" unicode="&#x13b;" horiz-adv-x="414" 
d="M65 682h138v-558h196v-124h-334v682zM173 -58h116v-61q0 -79 -48 -134h-61q15 20 26 48.5t11 47.5h-44v99z" />
    <glyph glyph-name="lcommaaccent" unicode="&#x13c;" horiz-adv-x="240" 
d="M56 720h128v-720h-128v720zM66 -59h116v-61q0 -79 -48 -134h-61q15 20 26 48.5t11 47.5h-44v99z" />
    <glyph glyph-name="Lcaron" unicode="&#x13d;" horiz-adv-x="414" 
d="M65 682h138v-558h196v-124h-334v682zM286 682h116v-61q0 -79 -48 -134h-61q15 20 26 48.5t11 47.5h-44v99z" />
    <glyph glyph-name="lcaron" unicode="&#x13e;" horiz-adv-x="343" 
d="M56 720h128v-720h-128v720zM232 720h116v-61q0 -79 -48 -134h-61q15 20 26 48.5t11 47.5h-44v99z" />
    <glyph glyph-name="Ldot" unicode="&#x13f;" horiz-adv-x="464" 
d="M65 682h138v-558h196v-124h-334v682zM311 422h116v-120h-116v120z" />
    <glyph glyph-name="ldot" unicode="&#x140;" horiz-adv-x="369" 
d="M56 720h128v-720h-128v720zM247 434h116v-120h-116v120z" />
    <glyph glyph-name="Lslash" unicode="&#x141;" horiz-adv-x="429" 
d="M15 294l65 45v343h138v-261l109 75v-118l-109 -75v-179h196v-124h-334v221l-65 -45v118z" />
    <glyph glyph-name="lslash" unicode="&#x142;" horiz-adv-x="260" 
d="M10 340l56 38v342h128v-265l56 39v-108l-56 -39v-347h-128v270l-56 -38v108z" />
    <glyph glyph-name="Nacute" unicode="&#x143;" horiz-adv-x="609" 
d="M186 438q0 -12 0.5 -28.5t1 -33.5t0.5 -33.5v-27.5v-315h-128v682h131l134 -243q15 -28 30.5 -57t28 -55.5t22 -48.5t14.5 -34h3q-1 27 -1.5 54.5t-0.5 54.5v329h128v-682h-131l-136 247q-35 65 -60 116.5t-33 74.5h-3zM420 827l-170 -90l-42 63l161 112z" />
    <glyph glyph-name="nacute" unicode="&#x144;" horiz-adv-x="518" 
d="M56 479h126v-58q20 34 52 53.5t71 19.5q32 0 61.5 -11t52 -36t36 -66t13.5 -102v-279h-127v260q0 66 -19 91t-52 25q-41 0 -64.5 -32t-23.5 -108v-236h-126v479zM390 671l-151 -119l-54 54l138 139z" />
    <glyph glyph-name="Ncommaaccent" unicode="&#x145;" horiz-adv-x="609" 
d="M186 438q0 -12 0.5 -28.5t1 -33.5t0.5 -33.5v-27.5v-315h-128v682h131l134 -243q15 -28 30.5 -57t28 -55.5t22 -48.5t14.5 -34h3q-1 27 -1.5 54.5t-0.5 54.5v329h128v-682h-131l-136 247q-35 65 -60 116.5t-33 74.5h-3zM252 -59h116v-61q0 -79 -48 -134h-61
q15 20 26 48.5t11 47.5h-44v99z" />
    <glyph glyph-name="ncommaaccent" unicode="&#x146;" horiz-adv-x="518" 
d="M56 479h126v-58q20 34 52 53.5t71 19.5q32 0 61.5 -11t52 -36t36 -66t13.5 -102v-279h-127v260q0 66 -19 91t-52 25q-41 0 -64.5 -32t-23.5 -108v-236h-126v479zM208 -59h116v-61q0 -79 -48 -134h-61q15 20 26 48.5t11 47.5h-44v99z" />
    <glyph glyph-name="Ncaron" unicode="&#x147;" horiz-adv-x="609" 
d="M186 438q0 -12 0.5 -28.5t1 -33.5t0.5 -33.5v-27.5v-315h-128v682h131l134 -243q15 -28 30.5 -57t28 -55.5t22 -48.5t14.5 -34h3q-1 27 -1.5 54.5t-0.5 54.5v329h128v-682h-131l-136 247q-35 65 -60 116.5t-33 74.5h-3zM149 830l38 65l109 -52l110 52l37 -65l-147 -97z
" />
    <glyph glyph-name="ncaron" unicode="&#x148;" horiz-adv-x="518" 
d="M56 479h126v-58q20 34 52 53.5t71 19.5q32 0 61.5 -11t52 -36t36 -66t13.5 -102v-279h-127v260q0 66 -19 91t-52 25q-41 0 -64.5 -32t-23.5 -108v-236h-126v479zM113 667l47 63l104 -72l104 72l47 -63l-151 -119z" />
    <glyph glyph-name="Eng" unicode="&#x14a;" horiz-adv-x="609" 
d="M421 0l-139 247q-36 65 -60.5 116.5t-32.5 74.5h-3q0 -12 0.5 -28.5t1 -33.5t0.5 -33.5v-27.5v-315h-128v682h131l134 -243q15 -28 30.5 -57t28 -55.5t22 -48.5t14.5 -34h3q-1 27 -1.5 54.5t-0.5 54.5v329h128v-677q0 -103 -43.5 -147t-121.5 -44q-24 0 -48.5 3.5
t-38.5 8.5v107q4 -2 11 -3t15 -2t16 -1.5t14 -0.5q35 0 51.5 15t16.5 58v1z" />
    <glyph glyph-name="eng" unicode="&#x14b;" horiz-adv-x="518" 
d="M56 0v479h126v-58q20 34 52 53.5t71 19.5q32 0 61.5 -11t52 -36t36 -66t13.5 -102v-331q0 -41 -8.5 -75t-28 -58t-51 -37t-78.5 -13q-11 0 -29 2t-30 4v114q8 -2 19.5 -3t19.5 -1q33 0 46 15.5t13 52.5v311q0 66 -19 91t-52 25q-41 0 -64.5 -32t-23.5 -108v-236h-126z
" />
    <glyph glyph-name="Omacron" unicode="&#x14c;" horiz-adv-x="635" 
d="M170 341q0 -63 11.5 -107.5t31 -72t46.5 -40.5t58 -13t58.5 13t47 40.5t31 72t11.5 107.5q0 62 -10.5 106t-30 72.5t-47 41.5t-60.5 13q-31 0 -58 -13t-46.5 -40.5t-31 -72t-11.5 -107.5zM30 341q0 86 21.5 152.5t60 112t91 69t115.5 23.5q67 0 120 -24t90 -70t57 -112
t20 -151q0 -88 -22 -155t-60 -112t-91 -67.5t-114 -22.5q-74 0 -128.5 27t-90 74.5t-52.5 113t-17 142.5zM171 774v95h288v-95h-288z" />
    <glyph glyph-name="omacron" unicode="&#x14d;" horiz-adv-x="529" 
d="M28 240q0 55 17 102t48.5 80.5t74.5 52.5t96 19q54 0 98 -19.5t74.5 -53.5t47.5 -80.5t17 -100.5q0 -53 -17 -99.5t-48 -81.5t-74.5 -55t-97.5 -20q-53 0 -96 19.5t-74.5 54t-48.5 81.5t-17 101zM158 240q0 -35 9 -61t23.5 -43.5t33.5 -26.5t40 -9q46 0 76.5 36t30.5 104
q0 66 -29.5 102t-77.5 36q-46 0 -76 -34.5t-30 -103.5zM132 589v95h268v-95h-268z" />
    <glyph glyph-name="Obreve" unicode="&#x14e;" horiz-adv-x="635" 
d="M170 341q0 -63 11.5 -107.5t31 -72t46.5 -40.5t58 -13t58.5 13t47 40.5t31 72t11.5 107.5q0 62 -10.5 106t-30 72.5t-47 41.5t-60.5 13q-31 0 -58 -13t-46.5 -40.5t-31 -72t-11.5 -107.5zM30 341q0 86 21.5 152.5t60 112t91 69t115.5 23.5q67 0 120 -24t90 -70t57 -112
t20 -151q0 -88 -22 -155t-60 -112t-91 -67.5t-114 -22.5q-74 0 -128.5 27t-90 74.5t-52.5 113t-17 142.5zM470 877q-2 -26 -12.5 -49.5t-30 -42t-47.5 -29.5t-64 -11q-72 0 -111 33.5t-43 98.5h91q3 -16 17 -29.5t46 -13.5t46.5 13.5t16.5 29.5h91z" />
    <glyph glyph-name="obreve" unicode="&#x14f;" horiz-adv-x="529" 
d="M28 240q0 55 17 102t48.5 80.5t74.5 52.5t96 19q54 0 98 -19.5t74.5 -53.5t47.5 -80.5t17 -100.5q0 -53 -17 -99.5t-48 -81.5t-74.5 -55t-97.5 -20q-53 0 -96 19.5t-74.5 54t-48.5 81.5t-17 101zM158 240q0 -35 9 -61t23.5 -43.5t33.5 -26.5t40 -9q46 0 76.5 36t30.5 104
q0 66 -29.5 102t-77.5 36q-46 0 -76 -34.5t-30 -103.5zM420 719q-2 -32 -13 -59.5t-30.5 -48t-47.5 -32.5t-63 -12q-67 0 -108 36t-46 116h89q3 -25 18 -42.5t47 -17.5t47.5 18t17.5 42h89z" />
    <glyph glyph-name="Ohungarumlaut" unicode="&#x150;" horiz-adv-x="635" 
d="M170 341q0 -63 11.5 -107.5t31 -72t46.5 -40.5t58 -13t58.5 13t47 40.5t31 72t11.5 107.5q0 62 -10.5 106t-30 72.5t-47 41.5t-60.5 13q-31 0 -58 -13t-46.5 -40.5t-31 -72t-11.5 -107.5zM30 341q0 86 21.5 152.5t60 112t91 69t115.5 23.5q67 0 120 -24t90 -70t57 -112
t20 -151q0 -88 -22 -155t-60 -112t-91 -67.5t-114 -22.5q-74 0 -128.5 27t-90 74.5t-52.5 113t-17 142.5zM373 841l-155 -115l-49 58l142 128zM563 841l-155 -115l-49 58l142 128z" />
    <glyph glyph-name="ohungarumlaut" unicode="&#x151;" horiz-adv-x="529" 
d="M28 240q0 55 17 102t48.5 80.5t74.5 52.5t96 19q54 0 98 -19.5t74.5 -53.5t47.5 -80.5t17 -100.5q0 -53 -17 -99.5t-48 -81.5t-74.5 -55t-97.5 -20q-53 0 -96 19.5t-74.5 54t-48.5 81.5t-17 101zM158 240q0 -35 9 -61t23.5 -43.5t33.5 -26.5t40 -9q46 0 76.5 36t30.5 104
q0 66 -29.5 102t-77.5 36q-46 0 -76 -34.5t-30 -103.5zM291 706l-110 -158l-65 40l94 166zM456 706l-110 -158l-65 40l94 166z" />
    <glyph glyph-name="OE" unicode="&#x152;" horiz-adv-x="806" 
d="M760 558h-203v-147h193v-118h-193v-169h211v-124h-344v60q-25 -35 -64.5 -55.5t-81.5 -20.5q-58 0 -104 24.5t-78 71t-49 112.5t-17 149q0 84 18.5 150.5t51.5 112.5t78.5 70t99.5 24q41 0 80.5 -18.5t65.5 -53.5v56h336v-124zM170 341q0 -63 10 -107.5t28 -72
t41.5 -40.5t50.5 -13t51.5 13t42.5 40.5t29 72t11 107.5q0 62 -10 106t-28 72.5t-42.5 41.5t-53.5 13q-27 0 -50.5 -13t-41.5 -40.5t-28 -72t-10 -107.5z" />
    <glyph glyph-name="oe" unicode="&#x153;" horiz-adv-x="840" 
d="M589 495q57 0 99 -20.5t69.5 -55t41 -79t13.5 -92.5q0 -11 -0.5 -21.5t-1.5 -19.5h-315q2 -55 27 -88.5t76 -33.5q32 0 52 14.5t27 34.5h128q-9 -31 -28 -58.5t-46.5 -48t-62 -32.5t-74.5 -12q-108 0 -165 80q-29 -38 -70 -58.5t-95 -20.5q-53 0 -96 19.5t-74.5 54
t-48.5 81.5t-17 101q0 55 17 102t48.5 80.5t74.5 52.5t96 19q54 0 95.5 -20t70.5 -58q58 79 159 79zM158 240q0 -35 9 -61t23.5 -43.5t33.5 -26.5t40 -9q46 0 76.5 36t30.5 104q0 66 -29.5 102t-77.5 36q-46 0 -76 -34.5t-30 -103.5zM681 299q0 19 -6.5 37.5t-18.5 32
t-28.5 22t-36.5 8.5q-45 0 -69 -28.5t-26 -71.5h185z" />
    <glyph glyph-name="Racute" unicode="&#x154;" horiz-adv-x="513" 
d="M521 0h-155l-148 269h-20v-269h-138v682h199q100 0 159 -52t59 -145q0 -84 -36 -131.5t-91 -64.5zM336 472q0 46 -20 70.5t-63 24.5h-55v-193h55q44 0 63.5 28t19.5 70zM358 827l-170 -90l-42 63l161 112z" />
    <glyph glyph-name="racute" unicode="&#x155;" horiz-adv-x="355" 
d="M335 364q-9 2 -21.5 3t-22.5 1q-22 0 -41.5 -7t-34 -23.5t-23 -44t-8.5 -68.5v-225h-128v479h128v-77h3q13 38 39 65t68 27q23 0 41 -5v-125zM315 671l-151 -119l-54 54l138 139z" />
    <glyph glyph-name="Rcommaaccent" unicode="&#x156;" horiz-adv-x="513" 
d="M521 0h-155l-148 269h-20v-269h-138v682h199q100 0 159 -52t59 -145q0 -84 -36 -131.5t-91 -64.5zM336 472q0 46 -20 70.5t-63 24.5h-55v-193h55q44 0 63.5 28t19.5 70zM227 -58h116v-61q0 -79 -48 -134h-61q15 20 26 48.5t11 47.5h-44v99z" />
    <glyph glyph-name="rcommaaccent" unicode="&#x157;" horiz-adv-x="355" 
d="M335 364q-9 2 -21.5 3t-22.5 1q-22 0 -41.5 -7t-34 -23.5t-23 -44t-8.5 -68.5v-225h-128v479h128v-77h3q13 38 39 65t68 27q23 0 41 -5v-125zM67 -59h116v-61q0 -79 -48 -134h-61q15 20 26 48.5t11 47.5h-44v99z" />
    <glyph glyph-name="Rcaron" unicode="&#x158;" horiz-adv-x="513" 
d="M521 0h-155l-148 269h-20v-269h-138v682h199q100 0 159 -52t59 -145q0 -84 -36 -131.5t-91 -64.5zM336 472q0 46 -20 70.5t-63 24.5h-55v-193h55q44 0 63.5 28t19.5 70zM87 830l38 65l109 -52l110 52l37 -65l-147 -97z" />
    <glyph glyph-name="rcaron" unicode="&#x159;" horiz-adv-x="355" 
d="M335 364q-9 2 -21.5 3t-22.5 1q-22 0 -41.5 -7t-34 -23.5t-23 -44t-8.5 -68.5v-225h-128v479h128v-77h3q13 38 39 65t68 27q23 0 41 -5v-125zM38 667l47 63l104 -72l104 72l47 -63l-151 -119z" />
    <glyph glyph-name="Sacute" unicode="&#x15a;" horiz-adv-x="505" 
d="M325 503q-2 38 -21 58.5t-48 20.5t-49 -17.5t-20 -47.5q0 -13 3.5 -24.5t16 -24t37.5 -27t67 -33.5q89 -40 125.5 -96t36.5 -134q0 -34 -13 -68.5t-39.5 -62.5t-67.5 -45.5t-97 -17.5q-116 0 -171.5 57t-57.5 159h143q1 -100 86 -100q32 0 55.5 20.5t23.5 55.5
q0 39 -23 66.5t-84 54.5q-53 24 -88 49.5t-55 53t-28 56.5t-8 61q0 40 16.5 73t44 57t64.5 37.5t79 13.5q53 0 91 -14t63.5 -40t38.5 -62t16 -79h-137zM380 827l-170 -90l-42 63l161 112z" />
    <glyph glyph-name="sacute" unicode="&#x15b;" horiz-adv-x="428" 
d="M260 351q-2 24 -15 36t-32 12q-20 0 -31.5 -10t-11.5 -27q0 -9 2.5 -16.5t11 -15.5t23.5 -16.5t40 -17.5q48 -18 76.5 -37t44.5 -39t21 -42.5t5 -47.5q0 -28 -11.5 -54.5t-34.5 -47t-56.5 -33t-77.5 -12.5q-40 0 -73 8.5t-57 27t-38 48.5t-16 72h128q1 -60 59 -60
q23 0 36 14t13 32q0 9 -2.5 18t-11 17.5t-25 18t-43.5 20.5q-69 27 -105.5 60.5t-36.5 91.5q0 28 10 54t31.5 46t54 32t77.5 12q40 0 71.5 -11.5t53 -31t33.5 -45.5t13 -56h-126zM337 671l-151 -119l-54 54l138 139z" />
    <glyph glyph-name="Scircumflex" unicode="&#x15c;" horiz-adv-x="505" 
d="M325 503q-2 38 -21 58.5t-48 20.5t-49 -17.5t-20 -47.5q0 -13 3.5 -24.5t16 -24t37.5 -27t67 -33.5q89 -40 125.5 -96t36.5 -134q0 -34 -13 -68.5t-39.5 -62.5t-67.5 -45.5t-97 -17.5q-116 0 -171.5 57t-57.5 159h143q1 -100 86 -100q32 0 55.5 20.5t23.5 55.5
q0 39 -23 66.5t-84 54.5q-53 24 -88 49.5t-55 53t-28 56.5t-8 61q0 40 16.5 73t44 57t64.5 37.5t79 13.5q53 0 91 -14t63.5 -40t38.5 -62t16 -79h-137zM403 798l-38 -65l-109 52l-110 -52l-37 65l147 97z" />
    <glyph glyph-name="scircumflex" unicode="&#x15d;" horiz-adv-x="428" 
d="M260 351q-2 24 -15 36t-32 12q-20 0 -31.5 -10t-11.5 -27q0 -9 2.5 -16.5t11 -15.5t23.5 -16.5t40 -17.5q48 -18 76.5 -37t44.5 -39t21 -42.5t5 -47.5q0 -28 -11.5 -54.5t-34.5 -47t-56.5 -33t-77.5 -12.5q-40 0 -73 8.5t-57 27t-38 48.5t-16 72h128q1 -60 59 -60
q23 0 36 14t13 32q0 9 -2.5 18t-11 17.5t-25 18t-43.5 20.5q-69 27 -105.5 60.5t-36.5 91.5q0 28 10 54t31.5 46t54 32t77.5 12q40 0 71.5 -11.5t53 -31t33.5 -45.5t13 -56h-126zM366 612l-47 -63l-104 72l-104 -72l-47 63l151 119z" />
    <glyph glyph-name="Scedilla" unicode="&#x15e;" horiz-adv-x="505" 
d="M325 503q-2 38 -21 58.5t-48 20.5t-49 -17.5t-20 -47.5q0 -13 3.5 -24.5t16 -24t37.5 -27t67 -33.5q89 -40 125.5 -96t36.5 -134q0 -32 -11.5 -64.5t-35 -59.5t-60 -46t-86.5 -23l-10 -24q43 -5 67 -30t24 -60q0 -51 -35 -78.5t-98 -27.5q-28 0 -55 7t-47 14l30 64
q11 -5 30.5 -10t36.5 -5q21 0 34.5 9t13.5 27q0 20 -18 31.5t-66 11.5l31 72q-97 10 -143 65t-48 149h143q1 -100 86 -100q32 0 55.5 20.5t23.5 55.5q0 39 -23 66.5t-84 54.5q-53 24 -88 49.5t-55 53t-28 56.5t-8 61q0 40 16.5 73t44 57t64.5 37.5t79 13.5q53 0 91 -14
t63.5 -40t38.5 -62t16 -79h-137z" />
    <glyph glyph-name="scedilla" unicode="&#x15f;" horiz-adv-x="428" 
d="M260 351q-2 24 -15 36t-32 12q-20 0 -31.5 -10t-11.5 -27q0 -9 2.5 -16.5t11 -15.5t23.5 -16.5t40 -17.5q48 -18 76.5 -37t44.5 -39t21 -42.5t5 -47.5q0 -26 -10 -50t-29 -44t-48 -33.5t-66 -17.5l-9 -24q43 -5 67 -30t24 -60q0 -51 -35 -78.5t-98 -27.5q-28 0 -55 7
t-47 14l30 64q11 -5 30.5 -10t36.5 -5q21 0 34.5 9t13.5 27q0 20 -18 31.5t-66 11.5l30 71q-66 7 -106 42.5t-43 111.5h128q1 -60 59 -60q23 0 36 14t13 32q0 9 -2.5 18t-11 17.5t-25 18t-43.5 20.5q-69 27 -105.5 60.5t-36.5 91.5q0 28 10 54t31.5 46t54 32t77.5 12
q40 0 71.5 -11.5t53 -31t33.5 -45.5t13 -56h-126z" />
    <glyph glyph-name="Scaron" unicode="&#x160;" horiz-adv-x="505" 
d="M325 503q-2 38 -21 58.5t-48 20.5t-49 -17.5t-20 -47.5q0 -13 3.5 -24.5t16 -24t37.5 -27t67 -33.5q89 -40 125.5 -96t36.5 -134q0 -34 -13 -68.5t-39.5 -62.5t-67.5 -45.5t-97 -17.5q-116 0 -171.5 57t-57.5 159h143q1 -100 86 -100q32 0 55.5 20.5t23.5 55.5
q0 39 -23 66.5t-84 54.5q-53 24 -88 49.5t-55 53t-28 56.5t-8 61q0 40 16.5 73t44 57t64.5 37.5t79 13.5q53 0 91 -14t63.5 -40t38.5 -62t16 -79h-137zM109 830l38 65l109 -52l110 52l37 -65l-147 -97z" />
    <glyph glyph-name="scaron" unicode="&#x161;" horiz-adv-x="428" 
d="M260 351q-2 24 -15 36t-32 12q-20 0 -31.5 -10t-11.5 -27q0 -9 2.5 -16.5t11 -15.5t23.5 -16.5t40 -17.5q48 -18 76.5 -37t44.5 -39t21 -42.5t5 -47.5q0 -28 -11.5 -54.5t-34.5 -47t-56.5 -33t-77.5 -12.5q-40 0 -73 8.5t-57 27t-38 48.5t-16 72h128q1 -60 59 -60
q23 0 36 14t13 32q0 9 -2.5 18t-11 17.5t-25 18t-43.5 20.5q-69 27 -105.5 60.5t-36.5 91.5q0 28 10 54t31.5 46t54 32t77.5 12q40 0 71.5 -11.5t53 -31t33.5 -45.5t13 -56h-126zM60 667l47 63l104 -72l104 72l47 -63l-151 -119z" />
    <glyph glyph-name="Tcommaaccent" unicode="&#x162;" horiz-adv-x="400" 
d="M131 558h-126v124h390v-124h-126v-558h-138v558zM149 -59h116v-61q0 -79 -48 -134h-61q15 20 26 48.5t11 47.5h-44v99z" />
    <glyph glyph-name="tcommaaccent" unicode="&#x163;" horiz-adv-x="298" 
d="M0 479h60v154h127v-154h94v-114h-94v-189q0 -39 10.5 -53.5t42.5 -14.5q8 0 20 1t24 3v-112q-7 -2 -16.5 -3t-19 -1.5t-18.5 -1t-15 -0.5q-44 0 -73.5 10t-47.5 30.5t-26 52.5t-8 76v202h-60v114zM127 -59h116v-61q0 -79 -48 -134h-61q15 20 26 48.5t11 47.5h-44v99z" />
    <glyph glyph-name="Tcaron" unicode="&#x164;" horiz-adv-x="400" 
d="M131 558h-126v124h390v-124h-126v-558h-138v558zM52 830l38 65l109 -52l110 52l37 -65l-147 -97z" />
    <glyph glyph-name="tcaron" unicode="&#x165;" horiz-adv-x="338" 
d="M0 479h60v154h127v-154h94v-114h-94v-189q0 -39 10.5 -53.5t42.5 -14.5q8 0 20 1t24 3v-112q-7 -2 -16.5 -3t-19 -1.5t-18.5 -1t-15 -0.5q-44 0 -73.5 10t-47.5 30.5t-26 52.5t-8 76v202h-60v114zM227 720h116v-61q0 -79 -48 -134h-61q15 20 26 48.5t11 47.5h-44v99z" />
    <glyph glyph-name="Tbar" unicode="&#x166;" horiz-adv-x="400" 
d="M269 305v-305h-138v305h-85v95h85v158h-126v124h390v-124h-126v-158h85v-95h-85z" />
    <glyph glyph-name="tbar" unicode="&#x167;" horiz-adv-x="298" 
d="M187 191v-15q0 -39 10.5 -53.5t42.5 -14.5q8 0 20 1t24 3v-112q-7 -2 -16.5 -3t-19 -1.5t-18.5 -1t-15 -0.5q-44 0 -73.5 10t-47.5 30.5t-26 52.5t-8 76v28h-55v95h55v79h-60v114h60v154h127v-154h94v-114h-94v-79h89v-95h-89z" />
    <glyph glyph-name="Utilde" unicode="&#x168;" horiz-adv-x="574" 
d="M295 -16q-49 0 -92.5 11.5t-76.5 41.5t-52.5 82.5t-19.5 134.5v428h138v-412q0 -85 21.5 -123.5t73.5 -38.5q55 0 75.5 38.5t20.5 123.5v412h137v-426q0 -82 -17.5 -134.5t-48.5 -83t-72 -42.5t-87 -12zM126 762q3 70 25.5 105t75.5 35q19 0 36 -8.5t34 -22.5t25.5 -18.5
t16.5 -4.5q9 0 15 9t7 35h83q-2 -70 -30 -105t-73 -35q-25 0 -43 10t-34 24q-17 14 -23 17t-13 3q-10 0 -14 -12t-5 -32h-83z" />
    <glyph glyph-name="utilde" unicode="&#x169;" horiz-adv-x="518" 
d="M462 0h-126v58q-17 -35 -49 -54t-65 -19q-32 0 -63 11t-55 36t-39 66t-15 102v279h127v-252q0 -66 19 -95t52 -29q20 0 36.5 6.5t28 22.5t17.5 43t6 69v235h126v-479zM97 586q3 70 25.5 105t75.5 35q19 0 36 -8.5t34 -22.5t25.5 -18.5t16.5 -4.5q9 0 15 9t7 35h83
q-2 -70 -30 -105t-73 -35q-25 0 -43 10t-34 24q-17 14 -23 17t-13 3q-10 0 -14 -12t-5 -32h-83z" />
    <glyph glyph-name="Umacron" unicode="&#x16a;" horiz-adv-x="574" 
d="M295 -16q-49 0 -92.5 11.5t-76.5 41.5t-52.5 82.5t-19.5 134.5v428h138v-412q0 -85 21.5 -123.5t73.5 -38.5q55 0 75.5 38.5t20.5 123.5v412h137v-426q0 -82 -17.5 -134.5t-48.5 -83t-72 -42.5t-87 -12zM142 774v95h288v-95h-288z" />
    <glyph glyph-name="umacron" unicode="&#x16b;" horiz-adv-x="518" 
d="M462 0h-126v58q-17 -35 -49 -54t-65 -19q-32 0 -63 11t-55 36t-39 66t-15 102v279h127v-252q0 -66 19 -95t52 -29q20 0 36.5 6.5t28 22.5t17.5 43t6 69v235h126v-479zM122 589v95h268v-95h-268z" />
    <glyph glyph-name="Ubreve" unicode="&#x16c;" horiz-adv-x="574" 
d="M295 -16q-49 0 -92.5 11.5t-76.5 41.5t-52.5 82.5t-19.5 134.5v428h138v-412q0 -85 21.5 -123.5t73.5 -38.5q55 0 75.5 38.5t20.5 123.5v412h137v-426q0 -82 -17.5 -134.5t-48.5 -83t-72 -42.5t-87 -12zM443 877q-2 -26 -12.5 -49.5t-30 -42t-47.5 -29.5t-64 -11
q-72 0 -111 33.5t-43 98.5h91q3 -16 17 -29.5t46 -13.5t46.5 13.5t16.5 29.5h91z" />
    <glyph glyph-name="ubreve" unicode="&#x16d;" horiz-adv-x="518" 
d="M462 0h-126v58q-17 -35 -49 -54t-65 -19q-32 0 -63 11t-55 36t-39 66t-15 102v279h127v-252q0 -66 19 -95t52 -29q20 0 36.5 6.5t28 22.5t17.5 43t6 69v235h126v-479zM410 719q-2 -32 -13 -59.5t-30.5 -48t-47.5 -32.5t-63 -12q-67 0 -108 36t-46 116h89q3 -25 18 -42.5
t47 -17.5t47.5 18t17.5 42h89z" />
    <glyph glyph-name="Uring" unicode="&#x16e;" horiz-adv-x="574" 
d="M295 -16q-49 0 -92.5 11.5t-76.5 41.5t-52.5 82.5t-19.5 134.5v428h138v-412q0 -85 21.5 -123.5t73.5 -38.5q55 0 75.5 38.5t20.5 123.5v412h137v-426q0 -82 -17.5 -134.5t-48.5 -83t-72 -42.5t-87 -12zM237 834q0 -20 14.5 -34.5t34.5 -14.5t34.5 14.5t14.5 34.5
t-14.5 34.5t-34.5 14.5t-34.5 -14.5t-14.5 -34.5zM165 834q0 25 9 47t25.5 38.5t38.5 26t48 9.5q25 0 47 -9.5t38.5 -26t26 -38.5t9.5 -47t-9.5 -47t-26 -38.5t-38.5 -26t-47 -9.5q-26 0 -48 9.5t-38.5 26t-25.5 38.5t-9 47z" />
    <glyph glyph-name="uring" unicode="&#x16f;" horiz-adv-x="518" 
d="M462 0h-126v58q-17 -35 -49 -54t-65 -19q-32 0 -63 11t-55 36t-39 66t-15 102v279h127v-252q0 -66 19 -95t52 -29q20 0 36.5 6.5t28 22.5t17.5 43t6 69v235h126v-479zM207 649q0 -20 14.5 -34.5t34.5 -14.5t34.5 14.5t14.5 34.5t-14.5 34.5t-34.5 14.5t-34.5 -14.5
t-14.5 -34.5zM135 649q0 25 9 47t25.5 38.5t38.5 26t48 9.5q25 0 47 -9.5t38.5 -26t26 -38.5t9.5 -47t-9.5 -47t-26 -38.5t-38.5 -26t-47 -9.5q-26 0 -48 9.5t-38.5 26t-25.5 38.5t-9 47z" />
    <glyph glyph-name="Uhungarumlaut" unicode="&#x170;" horiz-adv-x="574" 
d="M295 -16q-49 0 -92.5 11.5t-76.5 41.5t-52.5 82.5t-19.5 134.5v428h138v-412q0 -85 21.5 -123.5t73.5 -38.5q55 0 75.5 38.5t20.5 123.5v412h137v-426q0 -82 -17.5 -134.5t-48.5 -83t-72 -42.5t-87 -12zM333 841l-155 -115l-49 58l142 128zM523 841l-155 -115l-49 58
l142 128z" />
    <glyph glyph-name="uhungarumlaut" unicode="&#x171;" horiz-adv-x="518" 
d="M462 0h-126v58q-17 -35 -49 -54t-65 -19q-32 0 -63 11t-55 36t-39 66t-15 102v279h127v-252q0 -66 19 -95t52 -29q20 0 36.5 6.5t28 22.5t17.5 43t6 69v235h126v-479zM281 706l-110 -158l-65 40l94 166zM446 706l-110 -158l-65 40l94 166z" />
    <glyph glyph-name="Uogonek" unicode="&#x172;" horiz-adv-x="574" 
d="M398 -209q-11 -2 -28.5 -4t-32.5 -2q-53 0 -77 26t-24 68q0 26 14.5 55t38.5 50q-48 1 -90.5 13t-75 42t-51 82t-18.5 133v428h138v-412q0 -85 21.5 -123.5t73.5 -38.5q55 0 75.5 38.5t20.5 123.5v412h137v-426q0 -106 -29 -164t-77 -83q-48 -21 -67 -43.5t-19 -56.5
q0 -36 39 -36q14 0 31 3v-85z" />
    <glyph glyph-name="uogonek" unicode="&#x173;" horiz-adv-x="518" 
d="M462 -209q-11 -2 -28.5 -4t-32.5 -2q-53 0 -78.5 26t-25.5 68q0 36 21.5 70t56.5 51h-39v58q-17 -35 -49 -54t-65 -19q-32 0 -63 11t-55 36t-39 66t-15 102v279h127v-252q0 -66 19 -95t52 -29q20 0 36.5 6.5t28 22.5t17.5 43t6 69v235h126v-479q-16 -2 -29.5 -11t-23 -22
t-15 -28t-5.5 -30q0 -36 42 -36q14 0 31 3v-85z" />
    <glyph glyph-name="Wcircumflex" unicode="&#x174;" horiz-adv-x="730" 
d="M389 333q-8 46 -12.5 79.5t-8.5 70.5h-4q-4 -32 -8.5 -67.5t-12.5 -79.5l-58 -336h-143l-147 682h139l59 -330q9 -50 14 -83t7 -59h4q4 32 10 69.5t13 72.5l60 330h136l61 -329q8 -41 13.5 -76t8.5 -66h4q5 44 10 81.5t9 59.5l57 330h135l-135 -682h-153zM515 798
l-38 -65l-109 52l-110 -52l-37 65l147 97z" />
    <glyph glyph-name="wcircumflex" unicode="&#x175;" horiz-adv-x="653" 
d="M531 0h-150l-40 237q-2 12 -4.5 28t-5 33t-4 33t-2.5 28h-4q0 -12 -1.5 -28t-4 -33t-5 -33t-4.5 -28l-43 -237h-152l-99 479h123l38 -199q5 -27 11.5 -65.5t8.5 -72.5h4q3 35 9.5 69t13.5 69l39 199h135l35 -199q2 -14 5 -31.5t6 -36t5.5 -37t3.5 -33.5h4q3 32 9.5 69
t13.5 69l42 199h123zM477 612l-47 -63l-104 72l-104 -72l-47 63l151 119z" />
    <glyph glyph-name="Ycircumflex" unicode="&#x176;" horiz-adv-x="494" 
d="M179 257l-184 425h148l77 -192q9 -23 17 -48t13 -47h4q10 44 29 94l73 193h143l-182 -424v-258h-138v257zM396 798l-38 -65l-109 52l-110 -52l-37 65l147 97z" />
    <glyph glyph-name="ycircumflex" unicode="&#x177;" horiz-adv-x="436" 
d="M155 8l-160 471h137l55 -184q4 -14 9 -32l10 -36t8.5 -35.5t5.5 -29.5h2q2 12 5.5 30t8 36.5t9 36.5t8.5 30l55 184h130l-240 -714h-128zM372 612l-47 -63l-104 72l-104 -72l-47 63l151 119z" />
    <glyph glyph-name="Ydieresis" unicode="&#x178;" horiz-adv-x="494" 
d="M179 257l-184 425h148l77 -192q9 -23 17 -48t13 -47h4q10 44 29 94l73 193h143l-182 -424v-258h-138v257zM109 887h116v-120h-116v120zM277 887h116v-120h-116v120z" />
    <glyph glyph-name="Zacute" unicode="&#x179;" horiz-adv-x="510" 
d="M46 682h418v-119l-270 -439h284v-124h-446v118l270 440h-256v124zM377 827l-170 -90l-42 63l161 112z" />
    <glyph glyph-name="zacute" unicode="&#x17a;" horiz-adv-x="417" 
d="M41 479h336v-104l-189 -263h197v-112h-353v104l190 263h-181v112zM331 671l-151 -119l-54 54l138 139z" />
    <glyph glyph-name="Zdotaccent" unicode="&#x17b;" horiz-adv-x="510" 
d="M46 682h418v-119l-270 -439h284v-124h-446v118l270 440h-256v124zM195 887h116v-120h-116v120z" />
    <glyph glyph-name="zdotaccent" unicode="&#x17c;" horiz-adv-x="417" 
d="M41 479h336v-104l-189 -263h197v-112h-353v104l190 263h-181v112zM147 704h116v-120h-116v120z" />
    <glyph glyph-name="Zcaron" unicode="&#x17d;" horiz-adv-x="510" 
d="M46 682h418v-119l-270 -439h284v-124h-446v118l270 440h-256v124zM106 830l38 65l109 -52l110 52l37 -65l-147 -97z" />
    <glyph glyph-name="zcaron" unicode="&#x17e;" horiz-adv-x="417" 
d="M41 479h336v-104l-189 -263h197v-112h-353v104l190 263h-181v112zM54 667l47 63l104 -72l104 72l47 -63l-151 -119z" />
    <glyph glyph-name="longs" unicode="&#x17f;" horiz-adv-x="255" 
d="M62 545q0 46 7.5 80t26 57t50.5 34.5t82 11.5q13 0 28.5 -2t23.5 -4v-114q-8 2 -16.5 3t-18.5 1q-35 0 -45 -17t-10 -47v-548h-128v545z" />
    <glyph glyph-name="florin" unicode="&#x192;" horiz-adv-x="525" 
d="M242 -74q-8 -51 -21 -86t-34 -56.5t-52.5 -31t-76.5 -9.5q-13 0 -31.5 2t-29.5 7v114q11 -3 25.5 -5t26.5 -2q32 0 45 13.5t19 50.5l70 442h-85v114h103l6 36q8 49 20 83.5t32.5 56.5t52.5 32.5t80 10.5q11 0 30 -2.5t31 -6.5v-114q-10 3 -25 5t-27 2q-30 0 -44.5 -14
t-20.5 -50l-7 -39h90v-114h-108z" />
    <glyph glyph-name="Scommaaccent" unicode="&#x218;" horiz-adv-x="505" 
d="M325 503q-2 38 -21 58.5t-48 20.5t-49 -17.5t-20 -47.5q0 -13 3.5 -24.5t16 -24t37.5 -27t67 -33.5q89 -40 125.5 -96t36.5 -134q0 -34 -13 -68.5t-39.5 -62.5t-67.5 -45.5t-97 -17.5q-116 0 -171.5 57t-57.5 159h143q1 -100 86 -100q32 0 55.5 20.5t23.5 55.5
q0 39 -23 66.5t-84 54.5q-53 24 -88 49.5t-55 53t-28 56.5t-8 61q0 40 16.5 73t44 57t64.5 37.5t79 13.5q53 0 91 -14t63.5 -40t38.5 -62t16 -79h-137zM198 -58h116v-61q0 -79 -48 -134h-61q15 20 26 48.5t11 47.5h-44v99z" />
    <glyph glyph-name="scommaaccent" unicode="&#x219;" horiz-adv-x="428" 
d="M260 351q-2 24 -15 36t-32 12q-20 0 -31.5 -10t-11.5 -27q0 -9 2.5 -16.5t11 -15.5t23.5 -16.5t40 -17.5q48 -18 76.5 -37t44.5 -39t21 -42.5t5 -47.5q0 -28 -11.5 -54.5t-34.5 -47t-56.5 -33t-77.5 -12.5q-40 0 -73 8.5t-57 27t-38 48.5t-16 72h128q1 -60 59 -60
q23 0 36 14t13 32q0 9 -2.5 18t-11 17.5t-25 18t-43.5 20.5q-69 27 -105.5 60.5t-36.5 91.5q0 28 10 54t31.5 46t54 32t77.5 12q40 0 71.5 -11.5t53 -31t33.5 -45.5t13 -56h-126zM161 -59h116v-61q0 -79 -48 -134h-61q15 20 26 48.5t11 47.5h-44v99z" />
    <glyph glyph-name="uni021A" unicode="&#x21a;" horiz-adv-x="400" 
d="M131 558h-126v124h390v-124h-126v-558h-138v558zM149 -59h116v-61q0 -79 -48 -134h-61q15 20 26 48.5t11 47.5h-44v99z" />
    <glyph glyph-name="uni021B" unicode="&#x21b;" horiz-adv-x="298" 
d="M0 479h60v154h127v-154h94v-114h-94v-189q0 -39 10.5 -53.5t42.5 -14.5q8 0 20 1t24 3v-112q-7 -2 -16.5 -3t-19 -1.5t-18.5 -1t-15 -0.5q-44 0 -73.5 10t-47.5 30.5t-26 52.5t-8 76v202h-60v114zM127 -59h116v-61q0 -79 -48 -134h-61q15 20 26 48.5t11 47.5h-44v99z" />
    <glyph glyph-name="uni0237" unicode="&#x237;" horiz-adv-x="240" 
d="M184 479v-531q0 -41 -8.5 -75t-28 -58t-51 -37t-78.5 -13q-11 0 -29 2t-30 4v114q8 -2 19.5 -3t19.5 -1q33 0 45.5 15.5t12.5 52.5v530h128z" />
    <glyph glyph-name="circumflex" unicode="&#x2c6;" horiz-adv-x="318" 
d="M310 612l-47 -63l-104 72l-104 -72l-47 63l151 119z" />
    <glyph glyph-name="caron" unicode="&#x2c7;" horiz-adv-x="318" 
d="M8 667l47 63l104 -72l104 72l47 -63l-151 -119z" />
    <glyph glyph-name="uni02C9" unicode="&#x2c9;" horiz-adv-x="318" 
d="M25 589v95h268v-95h-268z" />
    <glyph glyph-name="breve" unicode="&#x2d8;" horiz-adv-x="318" 
d="M313 719q-2 -32 -13 -59.5t-30.5 -48t-47.5 -32.5t-63 -12q-67 0 -108 36t-46 116h89q3 -25 18 -42.5t47 -17.5t47.5 18t17.5 42h89z" />
    <glyph glyph-name="dotaccent" unicode="&#x2d9;" horiz-adv-x="318" 
d="M101 704h116v-120h-116v120z" />
    <glyph glyph-name="ring" unicode="&#x2da;" horiz-adv-x="318" 
d="M110 649q0 -20 14.5 -34.5t34.5 -14.5t34.5 14.5t14.5 34.5t-14.5 34.5t-34.5 14.5t-34.5 -14.5t-14.5 -34.5zM38 649q0 25 9 47t25.5 38.5t38.5 26t48 9.5q25 0 47 -9.5t38.5 -26t26 -38.5t9.5 -47t-9.5 -47t-26 -38.5t-38.5 -26t-47 -9.5q-26 0 -48 9.5t-38.5 26
t-25.5 38.5t-9 47z" />
    <glyph glyph-name="ogonek" unicode="&#x2db;" horiz-adv-x="318" 
d="M236 -209q-11 -2 -28.5 -4t-32.5 -2q-53 0 -77 26t-24 68q0 16 5.5 33t15.5 33.5t24 31t30 23.5h75q-29 -27 -43.5 -50.5t-14.5 -40.5q0 -36 39 -36q14 0 31 3v-85z" />
    <glyph glyph-name="tilde" unicode="&#x2dc;" horiz-adv-x="318" 
d="M0 586q3 70 25.5 105t75.5 35q19 0 36 -8.5t34 -22.5t25.5 -18.5t16.5 -4.5q9 0 15 9t7 35h83q-2 -70 -30 -105t-73 -35q-25 0 -43 10t-34 24q-17 14 -23 17t-13 3q-10 0 -14 -12t-5 -32h-83z" />
    <glyph glyph-name="hungarumlaut" unicode="&#x2dd;" horiz-adv-x="318" 
d="M184 706l-110 -158l-65 40l94 166zM349 706l-110 -158l-65 40l94 166z" />
    <glyph glyph-name="uni0374" unicode="&#x374;" horiz-adv-x="258" 
d="M238 660l-95 -256l-99 27l74 267z" />
    <glyph glyph-name="uni0375" unicode="&#x375;" horiz-adv-x="258" 
d="M24 -197l95 256l99 -27l-74 -267z" />
    <glyph glyph-name="uni037E" unicode="&#x37e;" horiz-adv-x="268" 
d="M55 150h158v-53q0 -80 -19.5 -138t-39.5 -94h-77q20 42 31 78.5t13 56.5h-66v150zM55 473h158v-150h-158v150z" />
    <glyph glyph-name="tonos" unicode="&#x384;" horiz-adv-x="285" 
d="M112 755l103 -22l-63 -213l-82 17z" />
    <glyph glyph-name="dieresistonos" unicode="&#x385;" horiz-adv-x="419" 
d="M0 684h116v-120h-116v120zM303 684h116v-120h-116v120zM186 755l103 -22l-63 -213l-82 17z" />
    <glyph glyph-name="Alphatonos" unicode="&#x386;" horiz-adv-x="605" 
d="M57 698l103 -22l-63 -213l-82 17zM267 682h133l215 -682h-144l-43 155h-200l-43 -155h-140zM255 257h146l-32 115q-4 14 -9 32.5t-9.5 38.5t-9 39.5t-7.5 34.5h-4q-4 -16 -9 -35t-10.5 -39t-11 -38.5t-9.5 -33.5z" />
    <glyph glyph-name="anoteleia" unicode="&#x387;" horiz-adv-x="258" 
d="M50 479h158v-150h-158v150z" />
    <glyph glyph-name="Epsilontonos" unicode="&#x388;" horiz-adv-x="602" 
d="M57 698l103 -22l-63 -213l-82 17zM556 558h-203v-147h193v-118h-193v-169h211v-124h-349v682h341v-124z" />
    <glyph glyph-name="Etatonos" unicode="&#x389;" horiz-adv-x="770" 
d="M572 290h-219v-290h-138v682h138v-268h219v268h138v-682h-138v290zM57 698l103 -22l-63 -213l-82 17z" />
    <glyph glyph-name="Iotatonos" unicode="&#x38a;" horiz-adv-x="413" 
d="M215 682h138v-682h-138v682zM57 698l103 -22l-63 -213l-82 17z" />
    <glyph glyph-name="Omicrontonos" unicode="&#x38c;" horiz-adv-x="775" 
d="M310 341q0 -63 11.5 -107.5t31 -72t46.5 -40.5t58 -13t58.5 13t47 40.5t31 72t11.5 107.5q0 62 -10.5 106t-30 72.5t-47 41.5t-60.5 13q-31 0 -58 -13t-46.5 -40.5t-31 -72t-11.5 -107.5zM170 341q0 86 21.5 152.5t60 112t91 69t115.5 23.5q67 0 120 -24t90 -70t57 -112
t20 -151q0 -88 -22 -155t-60 -112t-91 -67.5t-114 -22.5q-74 0 -128.5 27t-90 74.5t-52.5 113t-17 142.5zM57 698l103 -22l-63 -213l-82 17z" />
    <glyph glyph-name="Upsilontonos" unicode="&#x38e;" horiz-adv-x="699" 
d="M384 142q0 39 -4 84t-13 91.5t-22.5 92.5t-32.5 86q-23 48 -50 93t-62 93h148q15 -25 32.5 -56.5t36.5 -79.5q13 -32 23 -64t15 -62h4q7 34 17 67.5t19 57.5q18 48 33.5 79t32.5 58h143q-31 -48 -57.5 -94t-46.5 -93t-35 -90.5t-24.5 -86t-14 -85.5t-4.5 -90v-143h-138
v142zM57 698l103 -22l-63 -213l-82 17z" />
    <glyph glyph-name="Omegatonos" unicode="&#x38f;" horiz-adv-x="793" 
d="M513 0v173q57 29 82.5 76.5t25.5 126.5q0 100 -40 152t-110 52q-69 0 -112 -51t-43 -153q0 -78 25.5 -129.5t82.5 -73.5v-173h-242v120h122v5q-35 19 -59.5 46.5t-39.5 60t-22 69t-7 74.5q0 75 22 136t61 103.5t93 66t119 23.5q67 0 120.5 -22.5t91 -65t58 -103.5
t20.5 -137q0 -80 -32.5 -144.5t-95.5 -106.5v-5h122v-120h-242zM57 698l103 -22l-63 -213l-82 17z" />
    <glyph glyph-name="iotadieresistonos" unicode="&#x390;" horiz-adv-x="264" 
d="M180 479v-312q0 -34 9 -46.5t32 -12.5q10 0 18.5 1t16.5 3v-107q-13 -5 -36.5 -8t-45.5 -3q-66 0 -93.5 41.5t-27.5 113.5v330h127zM-92 684h116v-120h-116v120zM211 684h116v-120h-116v120zM94 755l103 -22l-63 -213l-82 17z" />
    <glyph glyph-name="Alpha" unicode="&#x391;" horiz-adv-x="550" 
d="M212 682h133l215 -682h-144l-43 155h-200l-43 -155h-140zM200 257h146l-32 115q-4 14 -9 32.5t-9.5 38.5t-9 39.5t-7.5 34.5h-4q-4 -16 -9 -35t-10.5 -39t-11 -38.5t-9.5 -33.5z" />
    <glyph glyph-name="Beta" unicode="&#x392;" horiz-adv-x="526" 
d="M60 682h193q112 0 163 -47.5t51 -125.5q0 -58 -30 -93.5t-71 -51.5v-2q34 -6 57.5 -22t38.5 -39.5t22 -52.5t7 -61q0 -48 -17 -83t-46.5 -58.5t-70 -34.5t-87.5 -11h-210v682zM353 207q0 44 -24 71t-69 27h-62v-197h70q46 0 65.5 27t19.5 72zM329 493q0 42 -21 61.5
t-55 19.5h-55v-164h63q30 0 49 25t19 58z" />
    <glyph glyph-name="Gamma" unicode="&#x393;" horiz-adv-x="404" 
d="M65 682h334v-124h-196v-558h-138v682z" />
    <glyph glyph-name="Delta" unicode="&#x394;" horiz-adv-x="550" 
d="M212 682h133l215 -682h-570zM156 112h230l-72 260q-4 14 -8.5 32.5t-9.5 38.5t-9.5 39.5t-7.5 34.5h-4q-4 -16 -9 -35t-10.5 -39t-11 -38.5t-9.5 -33.5z" />
    <glyph glyph-name="Epsilon" unicode="&#x395;" horiz-adv-x="447" 
d="M401 558h-203v-147h193v-118h-193v-169h211v-124h-349v682h341v-124z" />
    <glyph glyph-name="Zeta" unicode="&#x396;" horiz-adv-x="510" 
d="M46 682h418v-119l-270 -439h284v-124h-446v118l270 440h-256v124z" />
    <glyph glyph-name="Eta" unicode="&#x397;" horiz-adv-x="615" 
d="M417 290h-219v-290h-138v682h138v-268h219v268h138v-682h-138v290z" />
    <glyph glyph-name="Theta" unicode="&#x398;" horiz-adv-x="635" 
d="M170 341q0 -63 11.5 -107.5t31 -72t46.5 -40.5t58 -13t58.5 13t47 40.5t31 72t11.5 107.5q0 62 -10.5 106t-30 72.5t-47 41.5t-60.5 13q-31 0 -58 -13t-46.5 -40.5t-31 -72t-11.5 -107.5zM30 341q0 86 21.5 152.5t60 112t91 69t115.5 23.5q67 0 120 -24t90 -70t57 -112
t20 -151q0 -88 -22 -155t-60 -112t-91 -67.5t-114 -22.5q-74 0 -128.5 27t-90 74.5t-52.5 113t-17 142.5zM220 401h195v-118h-195v118z" />
    <glyph glyph-name="Iota" unicode="&#x399;" horiz-adv-x="258" 
d="M60 682h138v-682h-138v682z" />
    <glyph glyph-name="Kappa" unicode="&#x39a;" horiz-adv-x="539" 
d="M222 292l-24 -32v-260h-138v682h138v-246l169 246h157l-213 -286l225 -396h-158z" />
    <glyph glyph-name="Lambda" unicode="&#x39b;" horiz-adv-x="531" 
d="M195 682h136q54 -172 102.5 -341t102.5 -341h-145l-90 338q-9 35 -19 79t-18 79q-8 -35 -19.5 -79.5t-20.5 -79.5l-90 -337h-139z" />
    <glyph glyph-name="Mu" unicode="&#x39c;" horiz-adv-x="753" 
d="M718 0h-137l-26 304q-4 46 -6 87t-2 87h-4q-8 -35 -16.5 -83t-18.5 -90l-72 -305h-114l-77 295q-5 19 -10.5 43t-10.5 48.5t-9.5 48.5t-7.5 44h-4q-1 -32 -2.5 -79t-6.5 -105l-24 -295h-135l68 682h160l81 -330q3 -12 7 -29.5t8.5 -37l9 -39t7.5 -34.5h4q3 16 7.5 35
t9 38.5t8.5 37t7 29.5l79 330h160z" />
    <glyph glyph-name="Nu" unicode="&#x39d;" horiz-adv-x="609" 
d="M186 438q0 -12 0.5 -28.5t1 -33.5t0.5 -33.5v-27.5v-315h-128v682h131l134 -243q15 -28 30.5 -57t28 -55.5t22 -48.5t14.5 -34h3q-1 27 -1.5 54.5t-0.5 54.5v329h128v-682h-131l-136 247q-35 65 -60 116.5t-33 74.5h-3z" />
    <glyph glyph-name="Xi" unicode="&#x39e;" horiz-adv-x="447" 
d="M46 682h355v-124h-355v124zM38 124h371v-124h-371v124zM56 411h335v-118h-335v118z" />
    <glyph glyph-name="Omicron" unicode="&#x39f;" horiz-adv-x="635" 
d="M170 341q0 -63 11.5 -107.5t31 -72t46.5 -40.5t58 -13t58.5 13t47 40.5t31 72t11.5 107.5q0 62 -10.5 106t-30 72.5t-47 41.5t-60.5 13q-31 0 -58 -13t-46.5 -40.5t-31 -72t-11.5 -107.5zM30 341q0 86 21.5 152.5t60 112t91 69t115.5 23.5q67 0 120 -24t90 -70t57 -112
t20 -151q0 -88 -22 -155t-60 -112t-91 -67.5t-114 -22.5q-74 0 -128.5 27t-90 74.5t-52.5 113t-17 142.5z" />
    <glyph glyph-name="Pi" unicode="&#x3a0;" horiz-adv-x="601" 
d="M403 558h-205v-558h-138v682h481v-682h-138v558z" />
    <glyph glyph-name="Rho" unicode="&#x3a1;" horiz-adv-x="502" 
d="M336 461q0 46 -23 76t-79 30h-36v-211h35q31 0 51.5 8.5t31.5 23t15.5 33.5t4.5 40zM60 682h178q47 0 90 -13.5t76 -40.5t53 -68.5t20 -97.5q0 -51 -17 -92t-48.5 -69.5t-77 -44t-102.5 -15.5h-34v-241h-138v682z" />
    <glyph glyph-name="Sigma" unicode="&#x3a3;" horiz-adv-x="510" 
d="M204 124h274v-124h-446v118l177 219l-163 226v119h418v-124h-246l157 -221z" />
    <glyph glyph-name="Tau" unicode="&#x3a4;" horiz-adv-x="400" 
d="M131 558h-126v124h390v-124h-126v-558h-138v558z" />
    <glyph glyph-name="Upsilon" unicode="&#x3a5;" horiz-adv-x="494" 
d="M179 142q0 39 -4 84t-13 91.5t-22.5 92.5t-32.5 86q-23 48 -50 93t-62 93h148q15 -25 32.5 -56.5t36.5 -79.5q13 -32 23 -64t15 -62h4q7 34 17 67.5t19 57.5q18 48 33.5 79t32.5 58h143q-31 -48 -57.5 -94t-46.5 -93t-35 -90.5t-24.5 -86t-14 -85.5t-4.5 -90v-143h-138
v142z" />
    <glyph glyph-name="Phi" unicode="&#x3a6;" horiz-adv-x="698" 
d="M668 346q0 -59 -18 -107t-51 -83.5t-80 -58t-104 -29.5v-78h-132v78q-65 9 -112.5 33.5t-78.5 61.5t-46.5 83.5t-15.5 99.5q0 57 18.5 104.5t51.5 83t79.5 59t103.5 32.5v67h132v-67q66 -8 113.5 -32.5t78.5 -61.5t46 -84.5t15 -100.5zM536 346q0 76 -32 118.5t-89 50.5
v-337q57 8 89 50t32 118zM162 346q0 -71 32.5 -114.5t88.5 -53.5v337q-56 -11 -88.5 -54t-32.5 -115z" />
    <glyph glyph-name="Chi" unicode="&#x3a7;" horiz-adv-x="516" 
d="M228 549q10 -20 17 -35.5t14 -33.5h2q6 21 12.5 36.5t15.5 34.5l64 131h145l-177 -326l185 -356h-150l-68 142q-11 23 -20 42.5t-15 36.5h-2q-8 -23 -15 -42.5t-15 -38.5l-63 -140h-148l184 352l-178 330h148z" />
    <glyph glyph-name="Psi" unicode="&#x3a8;" horiz-adv-x="724" 
d="M292 144q-50 1 -94 13t-77.5 42.5t-53 82.5t-19.5 132v268h136v-262q0 -85 26 -122.5t84 -37.5v422h136v-422q61 1 85.5 38.5t24.5 121.5v262h136v-266q0 -80 -18.5 -132.5t-50.5 -83t-76.5 -43t-96.5 -13.5v-154h-142v154z" />
    <glyph glyph-name="Omega" unicode="&#x3a9;" horiz-adv-x="649" 
d="M369 0v173q57 29 82.5 76.5t25.5 126.5q0 100 -40 152t-110 52q-69 0 -112 -51t-43 -153q0 -78 25.5 -129.5t82.5 -73.5v-173h-242v120h122v5q-35 19 -59.5 46.5t-39.5 60t-22 69t-7 74.5q0 75 22 136t61 103.5t93 66t119 23.5q67 0 120.5 -22.5t91 -65t58 -103.5
t20.5 -137q0 -80 -32.5 -144.5t-95.5 -106.5v-5h122v-120h-242z" />
    <glyph glyph-name="Iotadieresis" unicode="&#x3aa;" horiz-adv-x="258" 
d="M60 682h138v-682h-138v682zM-13 887h116v-120h-116v120zM155 887h116v-120h-116v120z" />
    <glyph glyph-name="Upsilondieresis" unicode="&#x3ab;" horiz-adv-x="494" 
d="M179 142q0 39 -4 84t-13 91.5t-22.5 92.5t-32.5 86q-23 48 -50 93t-62 93h148q15 -25 32.5 -56.5t36.5 -79.5q13 -32 23 -64t15 -62h4q7 34 17 67.5t19 57.5q18 48 33.5 79t32.5 58h143q-31 -48 -57.5 -94t-46.5 -93t-35 -90.5t-24.5 -86t-14 -85.5t-4.5 -90v-143h-138
v142zM109 887h116v-120h-116v120zM277 887h116v-120h-116v120z" />
    <glyph glyph-name="alphatonos" unicode="&#x3ac;" horiz-adv-x="534" 
d="M504 479q-4 -65 -19.5 -128.5t-41.5 -127.5q11 -54 28 -113t37 -110h-130q-5 19 -10 44t-7 38q-25 -47 -61 -72.5t-90 -25.5q-39 0 -72.5 18t-58 51.5t-38 81t-13.5 105.5q0 59 16 105.5t43.5 79t63 49.5t74.5 17q49 0 85 -25t60 -73q3 16 4.5 43t1.5 43h128zM158 239
q0 -69 22 -104t57 -35q34 0 63.5 33.5t40.5 96.5q-7 74 -33 109.5t-68 35.5q-35 0 -58.5 -35t-23.5 -101zM226 755l103 -22l-63 -213l-82 17z" />
    <glyph glyph-name="epsilontonos" unicode="&#x3ad;" horiz-adv-x="417" 
d="M391 137q-8 -75 -53.5 -114.5t-133.5 -39.5q-45 0 -77.5 12t-53.5 32.5t-31 46.5t-10 53q0 46 25.5 78t60.5 40q-34 10 -54.5 38.5t-20.5 68.5q0 33 13 59.5t36 45t54.5 28.5t68.5 10q72 0 118.5 -38t50.5 -105h-120q-7 41 -48 41q-20 0 -32.5 -14t-12.5 -34
q0 -53 59 -53h22v-94h-28q-30 0 -46 -15.5t-16 -42.5q0 -22 12.5 -38.5t38.5 -16.5q50 0 55 52h123zM186 755l103 -22l-63 -213l-82 17z" />
    <glyph glyph-name="etatonos" unicode="&#x3ae;" horiz-adv-x="534" 
d="M181 401q17 45 53.5 69t86.5 24q32 0 61.5 -11t52 -36t36 -66t13.5 -102v-514h-127v495q0 66 -19 91t-52 25q-41 0 -64.5 -32t-23.5 -108v-236h-126v327q0 29 -10.5 39.5t-27.5 10.5q-10 0 -19 -3v107q24 9 59 9q89 0 104 -89h3zM256 755l103 -22l-63 -213l-82 17z" />
    <glyph glyph-name="iotatonos" unicode="&#x3af;" horiz-adv-x="264" 
d="M180 479v-312q0 -34 9 -46.5t32 -12.5q10 0 18.5 1t16.5 3v-107q-13 -5 -36.5 -8t-45.5 -3q-66 0 -93.5 41.5t-27.5 113.5v330h127zM102 755l103 -22l-63 -213l-82 17z" />
    <glyph glyph-name="upsilondieresistonos" unicode="&#x3b0;" horiz-adv-x="505" 
d="M176 213q0 -60 18.5 -85t56.5 -25q20 0 36 7t27 24t17 46.5t6 74.5q0 57 -12 112t-33 112h126q20 -46 32.5 -104t12.5 -121q0 -138 -57.5 -203.5t-157.5 -65.5q-98 0 -148 52t-50 167v275h126v-266zM33 684h116v-120h-116v120zM336 684h116v-120h-116v120zM219 755
l103 -22l-63 -213l-82 17z" />
    <glyph glyph-name="alpha" unicode="&#x3b1;" horiz-adv-x="534" 
d="M504 479q-4 -65 -19.5 -128.5t-41.5 -127.5q11 -54 28 -113t37 -110h-130q-5 19 -10 44t-7 38q-25 -47 -61 -72.5t-90 -25.5q-39 0 -72.5 18t-58 51.5t-38 81t-13.5 105.5q0 59 16 105.5t43.5 79t63 49.5t74.5 17q49 0 85 -25t60 -73q3 16 4.5 43t1.5 43h128zM158 239
q0 -69 22 -104t57 -35q34 0 63.5 33.5t40.5 96.5q-7 74 -33 109.5t-68 35.5q-35 0 -58.5 -35t-23.5 -101z" />
    <glyph glyph-name="beta" unicode="&#x3b2;" horiz-adv-x="541" 
d="M363 401q66 -9 105 -58.5t39 -125.5q0 -115 -53.5 -174t-145.5 -59q-42 0 -74 14.5t-50 44.5v-278h-128v735q0 228 208 228q43 0 79 -11.5t61.5 -34t39.5 -54.5t14 -73q0 -63 -27 -101t-68 -50v-2v-1zM248 441q80 0 80 91q0 42 -19.5 61t-48.5 19q-38 0 -57 -24t-19 -87
v-279q0 -59 23 -91.5t75 -32.5q42 0 68.5 27t26.5 87q0 62 -27 88.5t-72 26.5h-42v114h12z" />
    <glyph glyph-name="gamma" unicode="&#x3b3;" horiz-adv-x="428" 
d="M443 479q-77 -142 -120 -288t-43 -287v-139h-131v136q0 72 -13 151t-35.5 155.5t-52.5 146.5t-63 125h139q35 -68 58 -144.5t31 -147.5h2q4 34 12.5 72.5t20.5 76.5t26 74.5t30 68.5h139z" />
    <glyph glyph-name="delta" unicode="&#x3b4;" horiz-adv-x="475" 
d="M158 196q0 -19 5 -36.5t14.5 -31t24.5 -21.5t35 -8q40 0 60 28.5t20 70.5q0 44 -18.5 79.5t-60.5 59.5q-38 -17 -59 -52t-21 -89zM289 561q-2 26 -17 38t-35 12q-25 0 -37 -15.5t-12 -36.5t18 -43t62 -51q53 -35 87.5 -66.5t55 -62.5t28.5 -64.5t8 -73.5q0 -47 -17 -86.5
t-46 -68t-68 -44.5t-83 -16q-51 0 -89 17.5t-64 46t-39 65.5t-13 75q0 81 35 134.5t87 82.5v4q-49 38 -68.5 75.5t-19.5 75.5q0 28 9.5 57.5t30.5 53.5t53.5 39.5t78.5 15.5q44 0 77 -13t55.5 -35.5t34.5 -52.5t14 -63h-126z" />
    <glyph glyph-name="epsilon" unicode="&#x3b5;" horiz-adv-x="417" 
d="M391 137q-8 -75 -53.5 -114.5t-133.5 -39.5q-45 0 -77.5 12t-53.5 32.5t-31 46.5t-10 53q0 46 25.5 78t60.5 40q-34 10 -54.5 38.5t-20.5 68.5q0 33 13 59.5t36 45t54.5 28.5t68.5 10q72 0 118.5 -38t50.5 -105h-120q-7 41 -48 41q-20 0 -32.5 -14t-12.5 -34
q0 -53 59 -53h22v-94h-28q-30 0 -46 -15.5t-16 -42.5q0 -22 12.5 -38.5t38.5 -16.5q50 0 55 52h123z" />
    <glyph glyph-name="zeta" unicode="&#x3b6;" horiz-adv-x="395" 
d="M222 -209q16 27 25.5 57.5t9.5 63.5q0 18 -3.5 33t-13.5 27.5t-27 22t-45 17.5q-39 11 -66 28.5t-43.5 43t-23.5 61.5t-7 84q0 46 15.5 99.5t41.5 105t61.5 97t75.5 77.5h-166v114h321v-105q-50 -34 -90.5 -78t-69 -94t-44 -104t-15.5 -107q0 -26 3.5 -43.5t13.5 -30
t26.5 -21t43.5 -17.5q77 -25 108.5 -67.5t31.5 -112.5q0 -35 -9.5 -75.5t-26.5 -75.5h-127z" />
    <glyph glyph-name="eta" unicode="&#x3b7;" horiz-adv-x="534" 
d="M181 401q17 45 53.5 69t86.5 24q32 0 61.5 -11t52 -36t36 -66t13.5 -102v-514h-127v495q0 66 -19 91t-52 25q-41 0 -64.5 -32t-23.5 -108v-236h-126v327q0 29 -10.5 39.5t-27.5 10.5q-10 0 -19 -3v107q24 9 59 9q89 0 104 -89h3z" />
    <glyph glyph-name="theta" unicode="&#x3b8;" horiz-adv-x="499" 
d="M28 359q0 101 19.5 170.5t51 113t71.5 63t81 19.5t80.5 -17.5t70.5 -59t50 -111.5t19 -175q0 -116 -21.5 -189.5t-54.5 -115.5t-72 -57.5t-73 -15.5q-39 0 -78.5 17t-71.5 60t-52 115.5t-20 182.5zM250 100q17 0 33.5 12t29 37t20 63t7.5 90h-182q0 -106 27 -154t65 -48z
M251 609q-38 0 -65.5 -48t-27.5 -143h182q0 90 -25.5 140.5t-63.5 50.5z" />
    <glyph glyph-name="iota" unicode="&#x3b9;" horiz-adv-x="264" 
d="M180 479v-312q0 -34 9 -46.5t32 -12.5q10 0 18.5 1t16.5 3v-107q-13 -5 -36.5 -8t-45.5 -3q-66 0 -93.5 41.5t-27.5 113.5v330h127z" />
    <glyph glyph-name="kappa" unicode="&#x3ba;" horiz-adv-x="472" 
d="M187 255l133 224h138l-146 -222l156 -257h-140zM56 479h128v-479h-128v479z" />
    <glyph glyph-name="lambda" unicode="&#x3bb;" horiz-adv-x="461" 
d="M385 163q11 -34 21.5 -43.5t27.5 -9.5q5 0 13.5 0.5t13.5 2.5v-112q-14 -4 -31 -5.5t-35 -1.5q-39 0 -66 25t-47 81l-41 117q-10 28 -17 60t-9 54h-2q-2 -20 -6.5 -45t-10.5 -45l-72 -241h-129l158 475l-30 88q-9 28 -19 37t-26 9q-7 0 -13.5 -1t-11.5 -3v110q9 4 26 7
t32 3q48 0 74.5 -26.5t43.5 -77.5z" />
    <glyph glyph-name="mu" unicode="&#x3bc;" horiz-adv-x="544" 
d="M56 479h131v-267q0 -63 17.5 -87.5t49.5 -24.5q39 0 61 30t22 101v248h131v-323q0 -29 10.5 -39.5t27.5 -10.5q10 0 19 3v-107q-12 -4 -25.5 -6.5t-27.5 -2.5q-49 0 -75 22.5t-35 59.5h-3q-17 -39 -47.5 -65t-72.5 -26q-14 0 -31 5.5t-29 18.5l-3 -2q7 -27 9 -59t2 -63
v-119h-131v714z" />
    <glyph glyph-name="nu" unicode="&#x3bd;" horiz-adv-x="443" 
d="M433 479q-10 -134 -57.5 -252t-135.5 -227h-85l-160 479h134l54 -184q4 -13 8.5 -30.5t9 -36t8 -36t5.5 -30.5h2q29 58 53.5 137t29.5 180h134z" />
    <glyph glyph-name="xi" unicode="&#x3be;" horiz-adv-x="407" 
d="M178 1q-78 21 -114 69t-36 133q0 75 30 122t92 72q-36 11 -56.5 38.5t-20.5 65.5q0 42 23 68.5t52 36.5h-97v114h311v-114h-62q-43 0 -70 -20t-27 -62q0 -79 85 -79h48v-114h-71q-53 0 -80 -27t-27 -73q0 -25 4.5 -43t15 -31t28 -22t43.5 -16q77 -20 109.5 -62.5
t32.5 -108.5q0 -51 -11 -89t-25 -66h-121q12 23 19.5 55t7.5 54q0 41 -18.5 64t-64.5 35z" />
    <glyph glyph-name="omicron" unicode="&#x3bf;" horiz-adv-x="529" 
d="M28 240q0 55 17 102t48.5 80.5t74.5 52.5t96 19q54 0 98 -19.5t74.5 -53.5t47.5 -80.5t17 -100.5q0 -53 -17 -99.5t-48 -81.5t-74.5 -55t-97.5 -20q-53 0 -96 19.5t-74.5 54t-48.5 81.5t-17 101zM158 240q0 -35 9 -61t23.5 -43.5t33.5 -26.5t40 -9q46 0 76.5 36t30.5 104
q0 66 -29.5 102t-77.5 36q-46 0 -76 -34.5t-30 -103.5z" />
    <glyph glyph-name="pi" unicode="&#x3c0;" horiz-adv-x="579" 
d="M532 5q-16 -5 -38 -8t-44 -3q-66 0 -93.5 41.5t-27.5 113.5v216h-98v-230q0 -44 -4.5 -76.5t-12.5 -58.5h-128q9 29 13.5 66t4.5 75v224q-16 0 -46.5 -6.5t-52.5 -18.5v110q23 14 56.5 21.5t71.5 7.5h418v-114h-95v-198q0 -34 9 -46.5t32 -12.5q10 0 19 1t16 3v-107z" />
    <glyph glyph-name="rho" unicode="&#x3c1;" horiz-adv-x="549" 
d="M50 220q0 66 15 112t38.5 76.5t52 47.5t54.5 25.5t46 10.5t28 2q55 0 99 -18t74.5 -51.5t47 -81t16.5 -105.5q0 -56 -15 -102.5t-42.5 -80t-66.5 -52.5t-87 -19q-45 0 -78.5 18.5t-53.5 50.5v-288h-128v455zM391 238q0 26 -6 51.5t-19.5 45.5t-34.5 32.5t-51 12.5
q-50 0 -76 -38.5t-26 -100.5q0 -66 28 -104.5t72 -38.5q31 0 52.5 12t35 32t19.5 45t6 51z" />
    <glyph glyph-name="sigma1" unicode="&#x3c2;" horiz-adv-x="376" 
d="M28 248q0 50 15 95t44 78.5t72 53t99 19.5q24 0 47.5 -5t41.5 -13v-120q-18 11 -40 16.5t-43 5.5q-43 0 -74.5 -33t-31.5 -99q0 -54 18.5 -82t60.5 -45q63 -26 94 -69t31 -112q0 -41 -11 -79t-25 -66h-121q12 23 19.5 55t7.5 54q0 43 -15.5 66t-57.5 39q-63 23 -97 81
t-34 160z" />
    <glyph glyph-name="sigma" unicode="&#x3c3;" horiz-adv-x="531" 
d="M28 233q0 54 15.5 99t45.5 78t73.5 51t100.5 18h252v-114h-77q24 -30 35.5 -65t11.5 -82q0 -52 -17 -95t-48 -74t-73 -48t-91 -17q-51 0 -93 18.5t-72 51.5t-46.5 78.5t-16.5 100.5zM158 233q0 -35 8 -60t21.5 -41.5t31.5 -24t37 -7.5q42 0 70.5 30.5t28.5 90.5
q0 46 -10.5 83.5t-29.5 60.5h-48q-109 0 -109 -132z" />
    <glyph glyph-name="tau" unicode="&#x3c4;" horiz-adv-x="431" 
d="M134 365q-15 0 -33 -2.5t-36 -6.5t-33.5 -9.5t-26.5 -11.5v115q23 14 61.5 21.5t76.5 7.5h260v-114h-133v-198q0 -34 9 -46.5t32 -12.5q10 0 18.5 1t16.5 3v-107q-13 -5 -36.5 -8t-45.5 -3q-66 0 -93.5 41.5t-27.5 113.5v216h-9z" />
    <glyph glyph-name="upsilon" unicode="&#x3c5;" horiz-adv-x="505" 
d="M176 213q0 -60 18.5 -85t56.5 -25q20 0 36 7t27 24t17 46.5t6 74.5q0 57 -12 112t-33 112h126q20 -46 32.5 -104t12.5 -121q0 -138 -57.5 -203.5t-157.5 -65.5q-98 0 -148 52t-50 167v275h126v-266z" />
    <glyph glyph-name="phi" unicode="&#x3c6;" horiz-adv-x="688" 
d="M660 238q0 -55 -19 -100t-53 -78t-80.5 -51.5t-100.5 -20.5v-223h-126v223q-54 2 -100.5 21.5t-80.5 53t-53 79t-19 99.5q0 55 19 100t53 78t80.5 51.5t100.5 20.5v229h126v-229q54 -2 100.5 -21.5t80.5 -53t53 -79t19 -99.5zM534 238q0 34 -10.5 59.5t-28 43t-40.5 26
t-48 8.5v-272q56 0 91.5 33.5t35.5 101.5zM154 240q0 -35 10.5 -60.5t28 -42.5t40.5 -25.5t48 -8.5v272q-56 0 -91.5 -34t-35.5 -101z" />
    <glyph glyph-name="chi" unicode="&#x3c7;" horiz-adv-x="412" 
d="M131 153l-127 326h139l46 -135q5 -16 9.5 -32t6.5 -33h2q3 17 8 34.5t10 32.5l46 133h137l-133 -332l141 -382h-140l-62 194q-10 29 -16 69h-3q-2 -18 -6.5 -38.5t-9.5 -35.5l-63 -189h-141z" />
    <glyph glyph-name="psi" unicode="&#x3c8;" horiz-adv-x="698" 
d="M412 -235h-126v235q-113 0 -174.5 55.5t-61.5 165.5v258h126v-255q0 -108 110 -108v363h126v-363q110 0 110 108v255h126v-256q0 -112 -61.5 -167.5t-174.5 -55.5v-235z" />
    <glyph glyph-name="omega" unicode="&#x3c9;" horiz-adv-x="677" 
d="M218 479q-28 -75 -39 -136t-11 -109q0 -71 14.5 -101.5t40.5 -30.5q12 0 21.5 4.5t16 15t10.5 28.5t4 46v203h126v-203q0 -94 52 -94q26 0 41 28.5t15 103.5q0 48 -11.5 109t-39.5 136h126q23 -56 37 -115t14 -127q0 -71 -13.5 -119.5t-36.5 -78t-53.5 -42t-64.5 -12.5
q-49 0 -81.5 20.5t-47.5 58.5q-17 -35 -49 -57t-82 -22q-77 0 -121 61.5t-44 193.5q0 66 13.5 124.5t36.5 114.5h126z" />
    <glyph glyph-name="iotadieresis" unicode="&#x3ca;" horiz-adv-x="264" 
d="M180 479v-312q0 -34 9 -46.5t32 -12.5q10 0 18.5 1t16.5 3v-107q-13 -5 -36.5 -8t-45.5 -3q-66 0 -93.5 41.5t-27.5 113.5v330h127zM-25 702h116v-120h-116v120zM143 702h116v-120h-116v120z" />
    <glyph glyph-name="upsilondieresis" unicode="&#x3cb;" horiz-adv-x="505" 
d="M176 213q0 -60 18.5 -85t56.5 -25q20 0 36 7t27 24t17 46.5t6 74.5q0 57 -12 112t-33 112h126q20 -46 32.5 -104t12.5 -121q0 -138 -57.5 -203.5t-157.5 -65.5q-98 0 -148 52t-50 167v275h126v-266zM97 702h116v-120h-116v120zM265 702h116v-120h-116v120z" />
    <glyph glyph-name="omicrontonos" unicode="&#x3cc;" horiz-adv-x="529" 
d="M28 240q0 55 17 102t48.5 80.5t74.5 52.5t96 19q54 0 98 -19.5t74.5 -53.5t47.5 -80.5t17 -100.5q0 -53 -17 -99.5t-48 -81.5t-74.5 -55t-97.5 -20q-53 0 -96 19.5t-74.5 54t-48.5 81.5t-17 101zM158 240q0 -35 9 -61t23.5 -43.5t33.5 -26.5t40 -9q46 0 76.5 36t30.5 104
q0 66 -29.5 102t-77.5 36q-46 0 -76 -34.5t-30 -103.5zM249 755l103 -22l-63 -213l-82 17z" />
    <glyph glyph-name="upsilontonos" unicode="&#x3cd;" horiz-adv-x="505" 
d="M176 213q0 -60 18.5 -85t56.5 -25q20 0 36 7t27 24t17 46.5t6 74.5q0 57 -12 112t-33 112h126q20 -46 32.5 -104t12.5 -121q0 -138 -57.5 -203.5t-157.5 -65.5q-98 0 -148 52t-50 167v275h126v-266zM232 755l103 -22l-63 -213l-82 17z" />
    <glyph glyph-name="omegatonos" unicode="&#x3ce;" horiz-adv-x="677" 
d="M218 479q-28 -75 -39 -136t-11 -109q0 -71 14.5 -101.5t40.5 -30.5q12 0 21.5 4.5t16 15t10.5 28.5t4 46v203h126v-203q0 -94 52 -94q26 0 41 28.5t15 103.5q0 48 -11.5 109t-39.5 136h126q23 -56 37 -115t14 -127q0 -71 -13.5 -119.5t-36.5 -78t-53.5 -42t-64.5 -12.5
q-49 0 -81.5 20.5t-47.5 58.5q-17 -35 -49 -57t-82 -22q-77 0 -121 61.5t-44 193.5q0 66 13.5 124.5t36.5 114.5h126zM328 755l103 -22l-63 -213l-82 17z" />
    <glyph glyph-name="uni0400" unicode="&#x400;" horiz-adv-x="447" 
d="M401 558h-203v-147h193v-118h-193v-169h211v-124h-349v682h341v-124zM152 912l161 -112l-42 -63l-170 90z" />
    <glyph glyph-name="afii10023" unicode="&#x401;" horiz-adv-x="447" 
d="M401 558h-203v-147h193v-118h-193v-169h211v-124h-349v682h341v-124zM85 887h116v-120h-116v120zM253 887h116v-120h-116v120z" />
    <glyph glyph-name="afii10051" unicode="&#x402;" horiz-adv-x="605" 
d="M411 234q0 55 -18 78t-47 23q-33 0 -55 -28.5t-22 -101.5v-205h-138v558h-126v124h391v-124h-127v-167h3q15 26 46.5 47t73.5 21q39 0 68 -15t49 -42t30 -64.5t10 -83.5v-286q0 -103 -43.5 -147t-121.5 -44q-24 0 -48.5 3.5t-38.5 8.5v107q8 -3 23.5 -5t26.5 -2
q35 0 49.5 15t14.5 58v272z" />
    <glyph glyph-name="afii10052" unicode="&#x403;" horiz-adv-x="404" 
d="M65 682h334v-124h-196v-558h-138v682zM368 827l-170 -90l-42 63l161 112z" />
    <glyph glyph-name="afii10053" unicode="&#x404;" horiz-adv-x="604" 
d="M312 698q62 0 108.5 -17t79 -46.5t51 -69t24.5 -83.5h-144q-10 48 -41.5 70t-76.5 22q-24 0 -47 -9t-41.5 -29t-31.5 -51t-19 -74h207v-118h-209q8 -93 46.5 -139t91.5 -46q49 0 81 24.5t43 81.5h144q-23 -118 -91.5 -174t-180.5 -56q-60 0 -111 22.5t-87.5 67.5t-57 112
t-20.5 157t22 156.5t60.5 110.5t89.5 66t110 22z" />
    <glyph glyph-name="afii10054" unicode="&#x405;" horiz-adv-x="505" 
d="M325 503q-2 38 -21 58.5t-48 20.5t-49 -17.5t-20 -47.5q0 -13 3.5 -24.5t16 -24t37.5 -27t67 -33.5q89 -40 125.5 -96t36.5 -134q0 -34 -13 -68.5t-39.5 -62.5t-67.5 -45.5t-97 -17.5q-116 0 -171.5 57t-57.5 159h143q1 -100 86 -100q32 0 55.5 20.5t23.5 55.5
q0 39 -23 66.5t-84 54.5q-53 24 -88 49.5t-55 53t-28 56.5t-8 61q0 40 16.5 73t44 57t64.5 37.5t79 13.5q53 0 91 -14t63.5 -40t38.5 -62t16 -79h-137z" />
    <glyph glyph-name="afii10055" unicode="&#x406;" horiz-adv-x="258" 
d="M60 682h138v-682h-138v682z" />
    <glyph glyph-name="afii10056" unicode="&#x407;" horiz-adv-x="258" 
d="M60 682h138v-682h-138v682zM-13 887h116v-120h-116v120zM155 887h116v-120h-116v120z" />
    <glyph glyph-name="afii10057" unicode="&#x408;" horiz-adv-x="318" 
d="M124 682h138v-477q0 -60 -12 -102.5t-34.5 -68.5t-53.5 -38t-70 -12q-24 0 -48.5 3.5t-38.5 8.5v117q8 -3 24 -5t27 -2q38 0 53 21.5t15 75.5v479z" />
    <glyph glyph-name="afii10058" unicode="&#x409;" horiz-adv-x="833" 
d="M670 209q0 45 -24 67.5t-69 22.5h-48v-184h56q46 0 65.5 24.5t19.5 69.5zM263 558l-38 -366q-6 -53 -17 -90.5t-30.5 -61.5t-48 -35t-67.5 -11q-13 0 -29 2.5t-28 7.5v120q5 -2 14.5 -4t18.5 -2q23 0 35 17t17 65l48 482h391v-268h49q60 0 103.5 -14.5t71.5 -41.5
t41.5 -65.5t13.5 -86.5q0 -53 -17 -91.5t-46.5 -64t-70 -38t-87.5 -12.5h-196v558h-128z" />
    <glyph glyph-name="afii10059" unicode="&#x40a;" horiz-adv-x="812" 
d="M557 414q60 0 103.5 -14.5t71.5 -41.5t41.5 -65.5t13.5 -86.5q0 -53 -17 -91.5t-46.5 -64t-70 -38t-87.5 -12.5h-196v290h-172v-290h-138v682h138v-268h172v268h138v-268h49zM649 209q0 45 -24 67.5t-69 22.5h-48v-184h56q46 0 65.5 24.5t19.5 69.5z" />
    <glyph glyph-name="afii10060" unicode="&#x40b;" horiz-adv-x="605" 
d="M269 391h3q15 26 46.5 47t73.5 21q39 0 68 -15t49 -42t30 -64.5t10 -83.5v-254h-138v234q0 55 -18 78t-47 23q-33 0 -55 -28.5t-22 -101.5v-205h-138v558h-126v124h391v-124h-127v-167z" />
    <glyph glyph-name="afii10061" unicode="&#x40c;" horiz-adv-x="539" 
d="M198 348v-348h-138v682h138v-311l178 311h156l-195 -318l199 -364h-158zM418 830l-170 -90l-42 63l161 112z" />
    <glyph glyph-name="uni040D" unicode="&#x40d;" horiz-adv-x="615" 
d="M417 299q0 35 1 67.5t3 67.5h-4q-26 -56 -52.5 -107.5t-42.5 -81.5l-133 -245h-129v682h138v-288q0 -32 -1 -66.5t-3 -66.5h4q29 58 52.5 101t46.5 85l128 235h130v-682h-138v299zM246 912l161 -112l-42 -63l-170 90z" />
    <glyph glyph-name="afii10062" unicode="&#x40e;" horiz-adv-x="498" 
d="M-10 682h148l91 -212q10 -22 19.5 -47.5t14.5 -47.5h4q5 23 12 46.5t15 47.5l74 213h145l-206 -502q-18 -44 -35 -78.5t-37.5 -58.5t-48 -36.5t-66.5 -12.5q-16 0 -35 4t-31 9v120q5 -2 21 -5.5t24 -3.5q23 0 37.5 10.5t30.5 46.5l27 62zM413 877q-2 -26 -12.5 -49.5
t-30 -42t-47.5 -29.5t-64 -11q-72 0 -111 33.5t-43 98.5h91q3 -16 17 -29.5t46 -13.5t46.5 13.5t16.5 29.5h91z" />
    <glyph glyph-name="afii10145" unicode="&#x40f;" horiz-adv-x="601" 
d="M198 124h205v558h138v-682h-171v-155h-138v155h-172v682h138v-558z" />
    <glyph glyph-name="afii10017" unicode="&#x410;" horiz-adv-x="550" 
d="M212 682h133l215 -682h-144l-43 155h-200l-43 -155h-140zM200 257h146l-32 115q-4 14 -9 32.5t-9.5 38.5t-9 39.5t-7.5 34.5h-4q-4 -16 -9 -35t-10.5 -39t-11 -38.5t-9.5 -33.5z" />
    <glyph glyph-name="afii10018" unicode="&#x411;" horiz-adv-x="502" 
d="M339 209q0 42 -24 66t-69 24h-48v-184h50q51 0 71 26t20 68zM253 414q115 0 169.5 -56.5t54.5 -151.5q0 -53 -17 -91.5t-46.5 -64t-70 -38t-87.5 -12.5h-196v682h353v-124h-215v-144h55z" />
    <glyph glyph-name="afii10019" unicode="&#x412;" horiz-adv-x="526" 
d="M60 682h193q112 0 163 -47.5t51 -125.5q0 -58 -30 -93.5t-71 -51.5v-2q34 -6 57.5 -22t38.5 -39.5t22 -52.5t7 -61q0 -48 -17 -83t-46.5 -58.5t-70 -34.5t-87.5 -11h-210v682zM353 207q0 44 -24 71t-69 27h-62v-197h70q46 0 65.5 27t19.5 72zM329 493q0 42 -21 61.5
t-55 19.5h-55v-164h63q30 0 49 25t19 58z" />
    <glyph glyph-name="afii10020" unicode="&#x413;" horiz-adv-x="404" 
d="M65 682h334v-124h-196v-558h-138v682z" />
    <glyph glyph-name="afii10021" unicode="&#x414;" horiz-adv-x="656" 
d="M563 124h78v-279h-138v155h-355v-155h-138v279h20q13 0 28.5 6.5t29.5 22.5t24.5 43t13.5 69l33 417h404v-558zM264 257q-6 -85 -42 -133h203v434h-138z" />
    <glyph glyph-name="afii10022" unicode="&#x415;" horiz-adv-x="447" 
d="M401 558h-203v-147h193v-118h-193v-169h211v-124h-349v682h341v-124z" />
    <glyph glyph-name="afii10024" unicode="&#x416;" horiz-adv-x="832" 
d="M347 682h138v-311l185 311h156l-202 -318l206 -364h-158l-187 348v-348h-138v348l-187 -348h-158l206 364l-202 318h156l185 -311v311z" />
    <glyph glyph-name="afii10025" unicode="&#x417;" horiz-adv-x="502" 
d="M158 185q3 -35 22.5 -56t61.5 -21q38 0 62 25.5t24 73.5q0 45 -21.5 73t-63.5 28h-62v124h52q29 0 46 18.5t17 54.5q0 28 -15.5 48.5t-45.5 20.5q-26 0 -42.5 -15t-18.5 -44h-142q3 48 20 83t44.5 57t64 32.5t78.5 10.5q88 0 141 -46.5t53 -129.5q0 -48 -22 -84t-57 -56
v-3q49 -15 81 -60.5t32 -116.5q0 -49 -15.5 -89t-45 -68.5t-71.5 -44.5t-95 -16q-110 0 -164.5 55t-59.5 146h142z" />
    <glyph glyph-name="afii10026" unicode="&#x418;" horiz-adv-x="615" 
d="M417 299q0 35 1 67.5t3 67.5h-4q-26 -56 -52.5 -107.5t-42.5 -81.5l-133 -245h-129v682h138v-288q0 -32 -1 -66.5t-3 -66.5h4q29 58 52.5 101t46.5 85l128 235h130v-682h-138v299z" />
    <glyph glyph-name="afii10027" unicode="&#x419;" horiz-adv-x="615" 
d="M417 299q0 35 1 67.5t3 67.5h-4q-26 -56 -52.5 -107.5t-42.5 -81.5l-133 -245h-129v682h138v-288q0 -32 -1 -66.5t-3 -66.5h4q29 58 52.5 101t46.5 85l128 235h130v-682h-138v299zM460 877q-2 -26 -12.5 -49.5t-30 -42t-47.5 -29.5t-64 -11q-72 0 -111 33.5t-43 98.5h91
q3 -16 17 -29.5t46 -13.5t46.5 13.5t16.5 29.5h91z" />
    <glyph glyph-name="afii10028" unicode="&#x41a;" horiz-adv-x="539" 
d="M198 348v-348h-138v682h138v-311l178 311h156l-195 -318l199 -364h-158z" />
    <glyph glyph-name="afii10029" unicode="&#x41b;" horiz-adv-x="626" 
d="M225 192q-6 -53 -17 -90.5t-30.5 -61.5t-48 -35t-67.5 -11q-13 0 -29 2.5t-28 7.5v120q5 -2 14.5 -4t18.5 -2q23 0 35 17t17 65l48 482h428v-682h-138v558h-165z" />
    <glyph glyph-name="afii10030" unicode="&#x41c;" horiz-adv-x="753" 
d="M718 0h-137l-26 304q-4 46 -6 87t-2 87h-4q-8 -35 -16.5 -83t-18.5 -90l-72 -305h-114l-77 295q-5 19 -10.5 43t-10.5 48.5t-9.5 48.5t-7.5 44h-4q-1 -32 -2.5 -79t-6.5 -105l-24 -295h-135l68 682h160l81 -330q3 -12 7 -29.5t8.5 -37l9 -39t7.5 -34.5h4q3 16 7.5 35
t9 38.5t8.5 37t7 29.5l79 330h160z" />
    <glyph glyph-name="afii10031" unicode="&#x41d;" horiz-adv-x="615" 
d="M417 290h-219v-290h-138v682h138v-268h219v268h138v-682h-138v290z" />
    <glyph glyph-name="afii10032" unicode="&#x41e;" horiz-adv-x="635" 
d="M170 341q0 -63 11.5 -107.5t31 -72t46.5 -40.5t58 -13t58.5 13t47 40.5t31 72t11.5 107.5q0 62 -10.5 106t-30 72.5t-47 41.5t-60.5 13q-31 0 -58 -13t-46.5 -40.5t-31 -72t-11.5 -107.5zM30 341q0 86 21.5 152.5t60 112t91 69t115.5 23.5q67 0 120 -24t90 -70t57 -112
t20 -151q0 -88 -22 -155t-60 -112t-91 -67.5t-114 -22.5q-74 0 -128.5 27t-90 74.5t-52.5 113t-17 142.5z" />
    <glyph glyph-name="afii10033" unicode="&#x41f;" horiz-adv-x="601" 
d="M403 558h-205v-558h-138v682h481v-682h-138v558z" />
    <glyph glyph-name="afii10034" unicode="&#x420;" horiz-adv-x="502" 
d="M336 461q0 46 -23 76t-79 30h-36v-211h35q31 0 51.5 8.5t31.5 23t15.5 33.5t4.5 40zM60 682h178q47 0 90 -13.5t76 -40.5t53 -68.5t20 -97.5q0 -51 -17 -92t-48.5 -69.5t-77 -44t-102.5 -15.5h-34v-241h-138v682z" />
    <glyph glyph-name="afii10035" unicode="&#x421;" horiz-adv-x="604" 
d="M320 698q59 0 104.5 -17t77 -46.5t49.5 -69t24 -83.5h-144q-10 52 -41.5 72t-73.5 20q-28 0 -54.5 -13t-46.5 -40.5t-32.5 -71.5t-12.5 -107q0 -117 41 -175.5t106 -58.5q44 0 75 22.5t42 83.5h144q-21 -118 -89 -174t-171 -56q-65 0 -118 22.5t-91 67.5t-58.5 112
t-20.5 157t22 156.5t61 110.5t92 66t115 22z" />
    <glyph glyph-name="afii10036" unicode="&#x422;" horiz-adv-x="400" 
d="M131 558h-126v124h390v-124h-126v-558h-138v558z" />
    <glyph glyph-name="afii10037" unicode="&#x423;" horiz-adv-x="498" 
d="M-10 682h148l91 -212q10 -22 19.5 -47.5t14.5 -47.5h4q5 23 12 46.5t15 47.5l74 213h145l-206 -502q-18 -44 -35 -78.5t-37.5 -58.5t-48 -36.5t-66.5 -12.5q-16 0 -35 4t-31 9v120q5 -2 21 -5.5t24 -3.5q23 0 37.5 10.5t30.5 46.5l27 62z" />
    <glyph glyph-name="afii10038" unicode="&#x424;" horiz-adv-x="698" 
d="M668 346q0 -59 -18 -107t-51 -83.5t-80 -58t-104 -29.5v-78h-132v78q-65 9 -112.5 33.5t-78.5 61.5t-46.5 83.5t-15.5 99.5q0 57 18.5 104.5t51.5 83t79.5 59t103.5 32.5v67h132v-67q66 -8 113.5 -32.5t78.5 -61.5t46 -84.5t15 -100.5zM536 346q0 76 -32 118.5t-89 50.5
v-337q57 8 89 50t32 118zM162 346q0 -71 32.5 -114.5t88.5 -53.5v337q-56 -11 -88.5 -54t-32.5 -115z" />
    <glyph glyph-name="afii10039" unicode="&#x425;" horiz-adv-x="516" 
d="M228 549q10 -20 17 -35.5t14 -33.5h2q6 21 12.5 36.5t15.5 34.5l64 131h145l-177 -326l185 -356h-150l-68 142q-11 23 -20 42.5t-15 36.5h-2q-8 -23 -15 -42.5t-15 -38.5l-63 -140h-148l184 352l-178 330h148z" />
    <glyph glyph-name="afii10040" unicode="&#x426;" horiz-adv-x="625" 
d="M198 124h205v558h138v-558h69v-279h-138v155h-412v682h138v-558z" />
    <glyph glyph-name="afii10041" unicode="&#x427;" horiz-adv-x="576" 
d="M230 239q-82 0 -131 54t-49 157v232h138v-210q0 -59 22 -84t71 -25q46 0 71.5 26.5t25.5 80.5v212h138v-682h-138v301h-4q-20 -23 -55.5 -42.5t-88.5 -19.5z" />
    <glyph glyph-name="afii10042" unicode="&#x428;" horiz-adv-x="862" 
d="M60 0v682h138v-558h164v558h138v-558h164v558h138v-682h-742z" />
    <glyph glyph-name="afii10043" unicode="&#x429;" horiz-adv-x="886" 
d="M362 682h138v-558h164v558h138v-558h69v-279h-138v155h-673v682h138v-558h164v558z" />
    <glyph glyph-name="afii10044" unicode="&#x42a;" horiz-adv-x="573" 
d="M410 209q0 42 -24 66t-69 24h-48v-184h50q51 0 71 25.5t20 68.5zM324 414q115 0 169.5 -56.5t54.5 -151.5q0 -53 -17 -91.5t-46.5 -64t-70 -38t-87.5 -12.5h-196v558h-126v124h264v-268h55z" />
    <glyph glyph-name="afii10045" unicode="&#x42b;" horiz-adv-x="760" 
d="M339 209q0 41 -24 65.5t-69 24.5h-48v-184h50q50 0 70.5 26.5t20.5 67.5zM253 414q115 0 169.5 -56.5t54.5 -151.5q0 -53 -17 -91.5t-46.5 -64t-70 -38t-87.5 -12.5h-196v682h138v-268h55zM562 682h138v-682h-138v682z" />
    <glyph glyph-name="afii10046" unicode="&#x42c;" horiz-adv-x="502" 
d="M339 209q0 41 -24 65.5t-69 24.5h-48v-184h50q50 0 70.5 26.5t20.5 67.5zM253 414q115 0 169.5 -56.5t54.5 -151.5q0 -53 -17 -91.5t-46.5 -64t-70 -38t-87.5 -12.5h-196v682h138v-268h55z" />
    <glyph glyph-name="afii10047" unicode="&#x42d;" horiz-adv-x="604" 
d="M284 -16q-59 0 -104.5 18t-78 49.5t-51 73.5t-24.5 89h144q10 -60 43 -83t75 -23q25 0 49 10t43.5 32.5t33 57.5t18.5 85h-209v118h206q-4 44 -16.5 75t-31.5 50.5t-43.5 28.5t-51.5 9q-42 0 -72.5 -23.5t-40.5 -68.5h-144q21 109 87.5 162.5t169.5 53.5q65 0 118 -22.5
t91 -67.5t58.5 -112.5t20.5 -156.5q0 -90 -22.5 -156.5t-61.5 -110.5t-92 -66t-114 -22z" />
    <glyph glyph-name="afii10048" unicode="&#x42e;" horiz-adv-x="870" 
d="M198 414h96q17 139 90.5 211.5t181.5 72.5q64 0 114.5 -24t86 -70t54.5 -112t19 -151q0 -88 -21 -155t-57.5 -112t-87 -67.5t-108.5 -22.5q-65 0 -114.5 22.5t-83 63t-52.5 97t-24 123.5h-94v-290h-138v682h138v-268zM430 341q0 -63 10.5 -107.5t28.5 -72t42.5 -40.5
t53.5 -13q28 0 53 13t43 40.5t28.5 72t10.5 107.5q0 62 -9.5 106t-27.5 72.5t-43 41.5t-55 13q-29 0 -53.5 -13t-42.5 -40.5t-28.5 -72t-10.5 -107.5z" />
    <glyph glyph-name="afii10049" unicode="&#x42f;" horiz-adv-x="513" 
d="M163 289q-56 17 -91.5 64.5t-35.5 131.5q0 93 59 145t159 52h199v-682h-138v269h-20l-148 -269h-155zM177 472q0 -42 19.5 -70t63.5 -28h55v193h-55q-43 0 -63 -24.5t-20 -70.5z" />
    <glyph glyph-name="afii10065" unicode="&#x430;" horiz-adv-x="555" 
d="M499 0h-128v55q-27 -38 -63 -54.5t-77 -16.5q-44 0 -81.5 18t-64.5 51.5t-42 80.5t-15 106q0 55 15 102t42.5 80.5t65.5 52.5t85 19q41 0 75 -15.5t60 -53.5v54h128v-479zM158 240q0 -26 6 -51.5t18.5 -45.5t33.5 -32.5t51 -12.5q49 0 81.5 38.5t32.5 100.5
q0 66 -30.5 104.5t-81.5 38.5q-31 0 -52 -12t-34 -32t-19 -45t-6 -51z" />
    <glyph glyph-name="afii10066" unicode="&#x431;" horiz-adv-x="513" 
d="M28 274q0 96 15.5 167t46 120t76.5 77.5t108 40.5q35 7 70 19t62 29l47 -109q-31 -20 -69 -30.5t-73 -15.5q-71 -10 -102.5 -39t-37.5 -77h3q17 14 42.5 23t60.5 9q45 0 83.5 -19t66 -53t43 -79.5t15.5 -99.5q0 -52 -16.5 -98t-46.5 -80.5t-72 -54.5t-94 -20
q-51 0 -93 20t-72 57.5t-46.5 91t-16.5 121.5zM158 237q0 -34 8 -59.5t21.5 -43t31.5 -26t37 -8.5q42 0 70.5 35.5t28.5 101.5q0 64 -27.5 99.5t-71.5 35.5q-42 0 -70 -34t-28 -101z" />
    <glyph glyph-name="afii10067" unicode="&#x432;" horiz-adv-x="440" 
d="M56 479h187q71 0 113 -34.5t42 -87.5q0 -47 -21.5 -75t-53.5 -37q41 -9 66 -37t25 -74q0 -27 -10 -51t-31 -42.5t-53.5 -29.5t-77.5 -11h-186v479zM178 199v-107h59q25 0 39 13.5t14 40.5q0 24 -13.5 38.5t-39.5 14.5h-59zM178 387v-96h45q27 0 39 12.5t12 32.5
q0 51 -51 51h-45z" />
    <glyph glyph-name="afii10068" unicode="&#x433;" horiz-adv-x="338" 
d="M333 479v-114h-150v-365h-127v479h277z" />
    <glyph glyph-name="afii10069" unicode="&#x434;" horiz-adv-x="561" 
d="M483 114h63v-269h-126v155h-279v-155h-126v269h14q14 0 29 7t27.5 24t22.5 45t14 69l23 220h338v-365zM253 355l-11 -110q-5 -48 -14.5 -78t-26.5 -53h156v241h-104z" />
    <glyph glyph-name="afii10070" unicode="&#x435;" horiz-adv-x="503" 
d="M252 495q57 0 99 -20.5t69.5 -55t41 -79t13.5 -92.5q0 -11 -0.5 -21.5t-1.5 -19.5h-315q2 -55 27 -88.5t76 -33.5q32 0 52 14.5t27 34.5h128q-9 -31 -28 -58.5t-46.5 -48t-62 -32.5t-74.5 -12q-54 0 -96.5 18.5t-72 53t-45 83t-15.5 108.5q0 58 17.5 104t47.5 78t71 49.5
t88 17.5zM344 299q0 19 -6 37.5t-18 32t-29 22t-39 8.5q-40 0 -65.5 -28.5t-27.5 -71.5h185z" />
    <glyph glyph-name="afii10072" unicode="&#x436;" horiz-adv-x="656" 
d="M266 0v245l-124 -245h-138l141 257l-131 222h136l116 -216v216h124v-216l116 216h136l-131 -222l141 -257h-138l-124 245v-245h-124z" />
    <glyph glyph-name="afii10073" unicode="&#x437;" horiz-adv-x="407" 
d="M133 137q5 -52 58 -52q27 0 40.5 16.5t13.5 38.5q0 27 -16 42.5t-46 15.5h-29v94h30q28 0 40 13t12 40q0 20 -12.5 34t-32.5 14q-41 0 -48 -41h-120q4 67 50.5 105t118.5 38q81 0 126.5 -38t45.5 -103q0 -42 -20.5 -70.5t-54.5 -38.5q35 -8 60.5 -40t25.5 -78
q0 -27 -10.5 -53t-33 -46.5t-57.5 -32.5t-85 -12q-81 0 -126 39.5t-53 114.5h123z" />
    <glyph glyph-name="afii10074" unicode="&#x438;" horiz-adv-x="524" 
d="M56 479h126v-191v-40t-2 -40h4q10 19 22.5 39.5t24.5 39.5l120 192h117v-479h-127v197v42.5t2 42.5h-4q-10 -20 -20 -39t-21 -38l-126 -205h-116v479z" />
    <glyph glyph-name="afii10075" unicode="&#x439;" horiz-adv-x="524" 
d="M56 479h126v-191v-40t-2 -40h4q10 19 22.5 39.5t24.5 39.5l120 192h117v-479h-127v197v42.5t2 42.5h-4q-10 -20 -20 -39t-21 -38l-126 -205h-116v479zM415 719q-2 -32 -13 -59.5t-30.5 -48t-47.5 -32.5t-63 -12q-67 0 -108 36t-46 116h89q3 -25 18 -42.5t47 -17.5
t47.5 18t17.5 42h89z" />
    <glyph glyph-name="afii10076" unicode="&#x43a;" horiz-adv-x="479" 
d="M184 245v-245h-128v479h128v-216l141 216h140l-154 -222l164 -257h-141z" />
    <glyph glyph-name="afii10077" unicode="&#x43b;" horiz-adv-x="501" 
d="M93 479h352v-479h-126v363h-113l-24 -220q-5 -40 -13.5 -68.5t-24 -46.5t-39 -26t-57.5 -8q-13 0 -23 2t-19 5v114q10 -3 22 -3q14 0 23 9t11 36z" />
    <glyph glyph-name="afii10078" unicode="&#x43c;" horiz-adv-x="596" 
d="M576 0h-118l-29 210q-2 10 -4 25t-4 31t-3.5 32t-1.5 28h-4q-4 -26 -7.5 -59.5t-9.5 -61.5l-43 -205h-105l-46 206q-6 26 -11 59t-9 61h-4q-2 -25 -5.5 -55.5t-7.5 -58.5l-28 -212h-116l75 479h143l40 -183q6 -26 11 -55.5t9 -55.5h4q4 26 9.5 59.5t10.5 56.5l37 178h144
z" />
    <glyph glyph-name="afii10079" unicode="&#x43d;" horiz-adv-x="524" 
d="M56 479h126v-174h160v174h126v-479h-126v191h-160v-191h-126v479z" />
    <glyph glyph-name="afii10080" unicode="&#x43e;" horiz-adv-x="529" 
d="M28 240q0 55 17 102t48.5 80.5t74.5 52.5t96 19q54 0 98 -19.5t74.5 -53.5t47.5 -80.5t17 -100.5q0 -53 -17 -99.5t-48 -81.5t-74.5 -55t-97.5 -20q-53 0 -96 19.5t-74.5 54t-48.5 81.5t-17 101zM158 240q0 -35 9 -61t23.5 -43.5t33.5 -26.5t40 -9q46 0 76.5 36t30.5 104
q0 66 -29.5 102t-77.5 36q-46 0 -76 -34.5t-30 -103.5z" />
    <glyph glyph-name="afii10081" unicode="&#x43f;" horiz-adv-x="509" 
d="M56 479h397v-479h-127v365h-144v-365h-126v479z" />
    <glyph glyph-name="afii10082" unicode="&#x440;" horiz-adv-x="555" 
d="M56 479h128v-56q22 32 56 51.5t79 19.5q44 0 82 -18t66 -51.5t44 -81t16 -105.5q0 -56 -15 -102.5t-42.5 -80t-66.5 -52.5t-87 -19q-45 0 -78.5 18.5t-53.5 50.5v-288h-128v714zM397 238q0 26 -6 51.5t-19.5 45.5t-34.5 32.5t-51 12.5q-22 0 -42.5 -10t-36 -28.5
t-24.5 -44t-9 -56.5q0 -33 9 -59t24 -45t35 -29t42 -10q31 0 52.5 12t35 32t19.5 45t6 51z" />
    <glyph glyph-name="afii10083" unicode="&#x441;" horiz-adv-x="501" 
d="M265 494q46 0 82 -14.5t61.5 -39t41 -56t21.5 -64.5h-130q-8 26 -28.5 42t-52.5 16q-20 0 -38 -7.5t-32.5 -24t-23 -43t-8.5 -63.5q0 -66 29.5 -103t74.5 -37q68 0 85 64h130q-6 -33 -23.5 -65t-45 -57.5t-64.5 -41.5t-82 -16q-53 0 -96 17.5t-73.5 51t-47.5 81
t-17 107.5q0 52 15 98.5t45 80.5t74.5 54t102.5 20z" />
    <glyph glyph-name="afii10084" unicode="&#x442;" horiz-adv-x="357" 
d="M352 479v-114h-110v-365h-127v365h-110v114h347z" />
    <glyph glyph-name="afii10085" unicode="&#x443;" horiz-adv-x="436" 
d="M155 8l-160 471h137l55 -184q4 -14 9 -32l10 -36t8.5 -35.5t5.5 -29.5h2q2 12 5.5 30t8 36.5t9 36.5t8.5 30l55 184h130l-240 -714h-128z" />
    <glyph glyph-name="afii10086" unicode="&#x444;" horiz-adv-x="769" 
d="M164 240q0 -29 4.5 -54.5t14.5 -45t25.5 -31t38.5 -11.5q15 0 30 9t27 27t19 44t7 59q0 70 -24.5 106.5t-57.5 36.5q-23 0 -39 -11t-26 -30.5t-14.5 -45t-4.5 -53.5zM320 55q-20 -32 -47.5 -51.5t-65.5 -19.5q-37 0 -68.5 16.5t-55 49t-36.5 80.5t-13 110q0 59 12.5 106
t35 80t55 50.5t73.5 17.5q38 0 65.5 -18.5t44.5 -50.5v295h128v-297q20 32 47.5 51.5t65.5 19.5q37 0 69 -16.5t55 -49t36.5 -80.5t13.5 -110q0 -59 -12.5 -106t-35 -80t-55.5 -50.5t-73 -17.5q-38 0 -66 18.5t-45 50.5v-288h-128v290zM605 238q0 29 -4.5 54.5t-14.5 45
t-26 31t-38 11.5q-16 0 -31 -9t-27 -27t-19 -44t-7 -59q0 -70 25 -106.5t57 -36.5q23 0 39.5 11t26.5 30t14.5 44.5t4.5 54.5z" />
    <glyph glyph-name="afii10087" unicode="&#x445;" horiz-adv-x="425" 
d="M143 244l-132 235h143l40 -83q5 -8 12 -25.5t10 -31.5h3q3 10 9 25t12 28l39 87h138l-130 -232l134 -247h-140l-47 100q-5 11 -11.5 26t-8.5 23h-3q-4 -10 -10.5 -25t-11.5 -26l-50 -98h-135z" />
    <glyph glyph-name="afii10088" unicode="&#x446;" horiz-adv-x="533" 
d="M455 114h63v-269h-126v155h-336v479h127v-365h146v365h126v-365z" />
    <glyph glyph-name="afii10089" unicode="&#x447;" horiz-adv-x="510" 
d="M454 0h-126v210q-13 -26 -49 -47t-82 -21q-72 0 -113.5 51t-41.5 164v122h127v-103q0 -66 19.5 -91t55.5 -25q35 0 59.5 28.5t24.5 90.5v100h126v-479z" />
    <glyph glyph-name="afii10090" unicode="&#x448;" horiz-adv-x="774" 
d="M56 0v479h127v-365h141v365h127v-365h141v365h126v-479h-662z" />
    <glyph glyph-name="afii10091" unicode="&#x449;" horiz-adv-x="796" 
d="M56 0v479h127v-365h141v365h127v-365h141v365h126v-365h63v-269h-126v155h-599z" />
    <glyph glyph-name="afii10092" unicode="&#x44a;" horiz-adv-x="491" 
d="M241 211v-117h37q25 0 42 13.5t17 45.5q0 28 -15.5 43t-43.5 15h-37zM5 365v114h236v-174h46q38 0 70.5 -9t56 -27t36.5 -46.5t13 -67.5q0 -74 -43.5 -114.5t-138.5 -40.5h-166v365h-110z" />
    <glyph glyph-name="afii10093" unicode="&#x44b;" horiz-adv-x="647" 
d="M182 211v-117h38q26 0 42 13.5t16 45.5q0 58 -58 58h-38zM228 305q38 0 70.5 -9t56 -27t36.5 -46.5t13 -67.5q0 -74 -43.5 -114.5t-138.5 -40.5h-166v479h126v-174h46zM463 479h128v-479h-128v479z" />
    <glyph glyph-name="afii10094" unicode="&#x44c;" horiz-adv-x="432" 
d="M182 211v-117h38q26 0 42 13.5t16 45.5q0 58 -58 58h-38zM228 305q38 0 70.5 -9t56 -27t36.5 -46.5t13 -67.5q0 -74 -43.5 -114.5t-138.5 -40.5h-166v479h126v-174h46z" />
    <glyph glyph-name="afii10095" unicode="&#x44d;" horiz-adv-x="501" 
d="M208 292h130q-8 45 -33 65.5t-63 20.5q-32 0 -53 -14t-29 -34h-130q6 31 23 61t44 52.5t63.5 36.5t81.5 14q52 0 95 -17.5t73 -51t46.5 -81t16.5 -107.5q0 -53 -15.5 -99t-46 -80t-75.5 -54t-103 -20q-44 0 -80 14t-63 37.5t-43.5 55t-22.5 67.5h130q6 -28 28.5 -43
t55.5 -15q39 0 66.5 22t35.5 76h-132v94z" />
    <glyph glyph-name="afii10096" unicode="&#x44e;" horiz-adv-x="739" 
d="M479 -16q-45 0 -83.5 15.5t-68 43t-49 65.5t-26.5 83h-70v-191h-126v479h126v-174h73q9 42 28.5 77t48.5 60t66 38.5t81 13.5q53 0 96 -19.5t73 -53.5t46.5 -80.5t16.5 -100.5q0 -53 -16.5 -99.5t-47 -81.5t-73.5 -55t-95 -20zM378 240q0 -35 8.5 -61t22.5 -43.5
t32 -26.5t38 -9q44 0 73 36t29 104q0 66 -28.5 102t-73.5 36q-44 0 -72.5 -34.5t-28.5 -103.5z" />
    <glyph glyph-name="afii10097" unicode="&#x44f;" horiz-adv-x="452" 
d="M230 164l-79 -164h-139l103 186q-35 18 -56 51.5t-21 84.5q0 30 10 58t31.5 50t56 35.5t83.5 13.5h177v-479h-122v164h-44zM274 256v131h-40q-38 0 -54 -20.5t-16 -45.5q0 -26 15.5 -45.5t53.5 -19.5h41z" />
    <glyph glyph-name="uni0450" unicode="&#x450;" horiz-adv-x="503" 
d="M252 495q57 0 99 -20.5t69.5 -55t41 -79t13.5 -92.5q0 -11 -0.5 -21.5t-1.5 -19.5h-315q2 -55 27 -88.5t76 -33.5q32 0 52 14.5t27 34.5h128q-9 -31 -28 -58.5t-46.5 -48t-62 -32.5t-74.5 -12q-54 0 -96.5 18.5t-72 53t-45 83t-15.5 108.5q0 58 17.5 104t47.5 78t71 49.5
t88 17.5zM344 299q0 19 -6 37.5t-18 32t-29 22t-39 8.5q-40 0 -65.5 -28.5t-27.5 -71.5h185zM187 745l138 -139l-53 -54l-151 119z" />
    <glyph glyph-name="afii10071" unicode="&#x451;" horiz-adv-x="503" 
d="M252 495q57 0 99 -20.5t69.5 -55t41 -79t13.5 -92.5q0 -11 -0.5 -21.5t-1.5 -19.5h-315q2 -55 27 -88.5t76 -33.5q32 0 52 14.5t27 34.5h128q-9 -31 -28 -58.5t-46.5 -48t-62 -32.5t-74.5 -12q-54 0 -96.5 18.5t-72 53t-45 83t-15.5 108.5q0 58 17.5 104t47.5 78t71 49.5
t88 17.5zM344 299q0 19 -6 37.5t-18 32t-29 22t-39 8.5q-40 0 -65.5 -28.5t-27.5 -71.5h185zM107 702h116v-120h-116v120zM275 702h116v-120h-116v120z" />
    <glyph glyph-name="afii10099" unicode="&#x452;" horiz-adv-x="518" 
d="M468 -51q0 -41 -8.5 -75t-28 -58t-51 -37.5t-78.5 -13.5q-11 0 -29 2t-30 4v114q8 -2 19.5 -3t19.5 -1q33 0 46 16t13 55v308q0 66 -19 91t-52 25q-41 0 -64.5 -32t-23.5 -108v-236h-126v559h-56v95h56v66h126v-66h136v-95h-136v-138q18 35 52.5 54t69.5 19
q79 0 121.5 -50.5t42.5 -164.5v-330z" />
    <glyph glyph-name="afii10100" unicode="&#x453;" horiz-adv-x="338" 
d="M333 479v-114h-150v-365h-127v479h277zM321 671l-151 -119l-54 54l138 139z" />
    <glyph glyph-name="afii10101" unicode="&#x454;" horiz-adv-x="501" 
d="M265 494q46 0 82 -14.5t61.5 -39t41 -56t21.5 -64.5h-130q-8 26 -28.5 42t-52.5 16q-79 0 -97 -86h130v-94h-132q8 -53 35.5 -75.5t65.5 -22.5q68 0 85 64h130q-6 -33 -23.5 -65t-45 -57.5t-64.5 -41.5t-82 -16q-53 0 -96 17.5t-73.5 51t-47.5 81t-17 107.5q0 52 15 98.5
t45 80.5t74.5 54t102.5 20z" />
    <glyph glyph-name="afii10102" unicode="&#x455;" horiz-adv-x="428" 
d="M260 351q-2 24 -15 36t-32 12q-20 0 -31.5 -10t-11.5 -27q0 -9 2.5 -16.5t11 -15.5t23.5 -16.5t40 -17.5q48 -18 76.5 -37t44.5 -39t21 -42.5t5 -47.5q0 -28 -11.5 -54.5t-34.5 -47t-56.5 -33t-77.5 -12.5q-40 0 -73 8.5t-57 27t-38 48.5t-16 72h128q1 -60 59 -60
q23 0 36 14t13 32q0 9 -2.5 18t-11 17.5t-25 18t-43.5 20.5q-69 27 -105.5 60.5t-36.5 91.5q0 28 10 54t31.5 46t54 32t77.5 12q40 0 71.5 -11.5t53 -31t33.5 -45.5t13 -56h-126z" />
    <glyph glyph-name="afii10103" unicode="&#x456;" horiz-adv-x="240" 
d="M56 479h128v-479h-128v479zM56 708h128v-124h-128v124z" />
    <glyph glyph-name="afii10104" unicode="&#x457;" horiz-adv-x="240" 
d="M56 479h128v-479h-128v479zM-24 702h116v-120h-116v120zM144 702h116v-120h-116v120z" />
    <glyph glyph-name="afii10105" unicode="&#x458;" horiz-adv-x="240" 
d="M184 479v-531q0 -41 -8.5 -75t-28 -58t-51 -37t-78.5 -13q-11 0 -29 2t-30 4v114q8 -2 19.5 -3t19.5 -1q33 0 45.5 15.5t12.5 52.5v530h128zM56 708h128v-124h-128v124z" />
    <glyph glyph-name="afii10106" unicode="&#x459;" horiz-adv-x="675" 
d="M425 211v-117h38q26 0 42 13.5t16 45.5q0 58 -58 58h-38zM206 363l-24 -220q-5 -40 -13.5 -68.5t-24 -46.5t-39 -26t-57.5 -8q-13 0 -23 2t-19 5v114q10 -3 22 -3q14 0 23 9t11 36l31 322h332v-174h46q38 0 70.5 -9t56 -27.5t36.5 -48t13 -69.5q0 -71 -43.5 -111
t-138.5 -40h-166v363h-93z" />
    <glyph glyph-name="afii10107" unicode="&#x45a;" horiz-adv-x="677" 
d="M427 211v-117h38q26 0 42 13.5t16 45.5q0 58 -58 58h-38zM301 191h-119v-191h-126v479h126v-174h119v174h126v-174h46q38 0 70.5 -9t56 -27.5t36.5 -48t13 -69.5q0 -71 -43.5 -111t-138.5 -40h-166v191z" />
    <glyph glyph-name="afii10108" unicode="&#x45b;" horiz-adv-x="518" 
d="M182 559v-138q18 35 52.5 54t69.5 19q79 0 121.5 -50.5t42.5 -164.5v-279h-127v260q0 66 -19 91t-52 25q-41 0 -64.5 -32t-23.5 -108v-236h-126v559h-56v95h56v66h126v-66h136v-95h-136z" />
    <glyph glyph-name="afii10109" unicode="&#x45c;" horiz-adv-x="479" 
d="M184 245v-245h-128v479h128v-216l141 216h140l-154 -222l164 -257h-141zM364 671l-151 -119l-54 54l138 139z" />
    <glyph glyph-name="uni045D" unicode="&#x45d;" horiz-adv-x="524" 
d="M56 479h126v-191v-40t-2 -40h4q10 19 22.5 39.5t24.5 39.5l120 192h117v-479h-127v197v42.5t2 42.5h-4q-10 -20 -20 -39t-21 -38l-126 -205h-116v479zM203 745l138 -139l-53 -54l-151 119z" />
    <glyph glyph-name="afii10110" unicode="&#x45e;" horiz-adv-x="436" 
d="M155 8l-160 471h137l55 -184q4 -14 9 -32l10 -36t8.5 -35.5t5.5 -29.5h2q2 12 5.5 30t8 36.5t9 36.5t8.5 30l55 184h130l-240 -714h-128zM370 719q-2 -32 -13 -59.5t-30.5 -48t-47.5 -32.5t-63 -12q-67 0 -108 36t-46 116h89q3 -25 18 -42.5t47 -17.5t47.5 18t17.5 42h89
z" />
    <glyph glyph-name="afii10193" unicode="&#x45f;" horiz-adv-x="509" 
d="M56 0v479h127v-365h144v365h126v-479h-135v-155h-126v155h-136z" />
    <glyph glyph-name="afii10050" unicode="&#x490;" horiz-adv-x="439" 
d="M65 682h226v158h138v-282h-226v-558h-138v682z" />
    <glyph glyph-name="afii10098" unicode="&#x491;" horiz-adv-x="380" 
d="M243 479v135h127v-249h-187v-365h-127v479h187z" />
    <glyph glyph-name="Wgrave" unicode="&#x1e80;" horiz-adv-x="730" 
d="M389 333q-8 46 -12.5 79.5t-8.5 70.5h-4q-4 -32 -8.5 -67.5t-12.5 -79.5l-58 -336h-143l-147 682h139l59 -330q9 -50 14 -83t7 -59h4q4 32 10 69.5t13 72.5l60 330h136l61 -329q8 -41 13.5 -76t8.5 -66h4q5 44 10 81.5t9 59.5l57 330h135l-135 -682h-153zM292 912
l161 -112l-42 -63l-170 90z" />
    <glyph glyph-name="wgrave" unicode="&#x1e81;" horiz-adv-x="653" 
d="M531 0h-150l-40 237q-2 12 -4.5 28t-5 33t-4 33t-2.5 28h-4q0 -12 -1.5 -28t-4 -33t-5 -33t-4.5 -28l-43 -237h-152l-99 479h123l38 -199q5 -27 11.5 -65.5t8.5 -72.5h4q3 35 9.5 69t13.5 69l39 199h135l35 -199q2 -14 5 -31.5t6 -36t5.5 -37t3.5 -33.5h4q3 32 9.5 69
t13.5 69l42 199h123zM274 745l138 -139l-53 -54l-151 119z" />
    <glyph glyph-name="Wacute" unicode="&#x1e82;" horiz-adv-x="730" 
d="M389 333q-8 46 -12.5 79.5t-8.5 70.5h-4q-4 -32 -8.5 -67.5t-12.5 -79.5l-58 -336h-143l-147 682h139l59 -330q9 -50 14 -83t7 -59h4q4 32 10 69.5t13 72.5l60 330h136l61 -329q8 -41 13.5 -76t8.5 -66h4q5 44 10 81.5t9 59.5l57 330h135l-135 -682h-153zM501 827
l-170 -90l-42 63l161 112z" />
    <glyph glyph-name="wacute" unicode="&#x1e83;" horiz-adv-x="653" 
d="M531 0h-150l-40 237q-2 12 -4.5 28t-5 33t-4 33t-2.5 28h-4q0 -12 -1.5 -28t-4 -33t-5 -33t-4.5 -28l-43 -237h-152l-99 479h123l38 -199q5 -27 11.5 -65.5t8.5 -72.5h4q3 35 9.5 69t13.5 69l39 199h135l35 -199q2 -14 5 -31.5t6 -36t5.5 -37t3.5 -33.5h4q3 32 9.5 69
t13.5 69l42 199h123zM432 671l-151 -119l-54 54l138 139z" />
    <glyph glyph-name="Wdieresis" unicode="&#x1e84;" horiz-adv-x="730" 
d="M389 333q-8 46 -12.5 79.5t-8.5 70.5h-4q-4 -32 -8.5 -67.5t-12.5 -79.5l-58 -336h-143l-147 682h139l59 -330q9 -50 14 -83t7 -59h4q4 32 10 69.5t13 72.5l60 330h136l61 -329q8 -41 13.5 -76t8.5 -66h4q5 44 10 81.5t9 59.5l57 330h135l-135 -682h-153zM227 887h116
v-120h-116v120zM395 887h116v-120h-116v120z" />
    <glyph glyph-name="wdieresis" unicode="&#x1e85;" horiz-adv-x="653" 
d="M531 0h-150l-40 237q-2 12 -4.5 28t-5 33t-4 33t-2.5 28h-4q0 -12 -1.5 -28t-4 -33t-5 -33t-4.5 -28l-43 -237h-152l-99 479h123l38 -199q5 -27 11.5 -65.5t8.5 -72.5h4q3 35 9.5 69t13.5 69l39 199h135l35 -199q2 -14 5 -31.5t6 -36t5.5 -37t3.5 -33.5h4q3 32 9.5 69
t13.5 69l42 199h123zM184 702h116v-120h-116v120zM352 702h116v-120h-116v120z" />
    <glyph glyph-name="Ygrave" unicode="&#x1ef2;" horiz-adv-x="494" 
d="M179 257l-184 425h148l77 -192q9 -23 17 -48t13 -47h4q10 44 29 94l73 193h143l-182 -424v-258h-138v257zM164 912l161 -112l-42 -63l-170 90z" />
    <glyph glyph-name="ygrave" unicode="&#x1ef3;" horiz-adv-x="436" 
d="M155 8l-160 471h137l55 -184q4 -14 9 -32l10 -36t8.5 -35.5t5.5 -29.5h2q2 12 5.5 30t8 36.5t9 36.5t8.5 30l55 184h130l-240 -714h-128zM159 745l138 -139l-53 -54l-151 119z" />
    <glyph glyph-name="uni2010" unicode="&#x2010;" horiz-adv-x="392" 
d="M59 211v105h274v-105h-274z" />
    <glyph glyph-name="endash" unicode="&#x2013;" horiz-adv-x="500" 
d="M48 213v102h404v-102h-404z" />
    <glyph glyph-name="emdash" unicode="&#x2014;" horiz-adv-x="1000" 
d="M48 213v102h904v-102h-904z" />
    <glyph glyph-name="afii00208" unicode="&#x2015;" horiz-adv-x="750" 
d="M100 213v102h550v-102h-550z" />
    <glyph glyph-name="underscoredbl" unicode="&#x2017;" horiz-adv-x="468" 
d="M0 -160h468v-75h-468v75zM0 -40h468v-75h-468v75z" />
    <glyph glyph-name="quoteleft" unicode="&#x2018;" horiz-adv-x="244" 
d="M196 446h-148v79q0 60 15 107.5t41 87.5h73q-17 -26 -27.5 -58.5t-12.5 -65.5h59v-150z" />
    <glyph glyph-name="quoteright" unicode="&#x2019;" horiz-adv-x="244" 
d="M48 720h148v-78q0 -60 -15 -107.5t-41 -87.5h-73q17 25 27 57.5t13 65.5h-59v150z" />
    <glyph glyph-name="quotesinglbase" unicode="&#x201a;" horiz-adv-x="244" 
d="M48 150h148v-78q0 -60 -15 -108t-41 -88h-73q17 26 27 58.5t13 65.5h-59v150z" />
    <glyph glyph-name="quotereversed" unicode="&#x201b;" horiz-adv-x="244" 
d="M196 570h-59q3 -33 13 -65.5t27 -57.5h-73q-26 40 -41 87.5t-15 107.5v78h148v-150z" />
    <glyph glyph-name="quotedblleft" unicode="&#x201c;" horiz-adv-x="443" 
d="M196 446h-148v79q0 60 15 107.5t41 87.5h73q-17 -26 -27.5 -58.5t-12.5 -65.5h59v-150zM395 446h-148v79q0 60 15 107.5t41 87.5h73q-17 -26 -27 -58.5t-13 -65.5h59v-150z" />
    <glyph glyph-name="quotedblright" unicode="&#x201d;" horiz-adv-x="443" 
d="M247 720h148v-78q0 -60 -15 -107.5t-41 -87.5h-73q17 25 27.5 57.5t12.5 65.5h-59v150zM48 720h148v-78q0 -60 -15 -107.5t-41 -87.5h-73q17 25 27 57.5t13 65.5h-59v150z" />
    <glyph glyph-name="quotedblbase" unicode="&#x201e;" horiz-adv-x="443" 
d="M247 150h148v-78q0 -60 -15 -108t-41 -88h-73q17 26 27.5 58.5t12.5 65.5h-59v150zM48 150h148v-78q0 -60 -15 -108t-41 -88h-73q17 26 27 58.5t13 65.5h-59v150z" />
    <glyph glyph-name="dagger" unicode="&#x2020;" horiz-adv-x="425" 
d="M258 432l17 -94l-17 -338h-92l-16 338l16 94l-126 -16v124l126 -16l-16 158h125l-17 -158l127 16v-124z" />
    <glyph glyph-name="daggerdbl" unicode="&#x2021;" horiz-adv-x="425" 
d="M255 0h-86l-14 141l14 75l-129 -14v114l129 -14l-14 75l14 75l-129 -13v113l129 -14l-14 144h114l-14 -144l130 14v-113l-130 13l14 -75l-14 -75l130 14v-114l-130 14l14 -75z" />
    <glyph glyph-name="bullet" unicode="&#x2022;" horiz-adv-x="431" 
d="M65 304q0 31 11.5 58.5t32 48t47.5 32.5t58 12t58.5 -12t48.5 -32.5t33 -48t12 -58.5q0 -32 -12 -59.5t-33 -47.5t-48.5 -32t-58.5 -12t-58 12t-47.5 32t-32 47.5t-11.5 59.5z" />
    <glyph glyph-name="ellipsis" unicode="&#x2026;" horiz-adv-x="786" 
d="M45 150h158v-150h-158v150zM307 150h158v-150h-158v150zM569 150h158v-150h-158v150z" />
    <glyph glyph-name="perthousand" unicode="&#x2030;" horiz-adv-x="1039" 
d="M599 682l-400 -682h-88l399 682h89zM27 509q0 50 13.5 86t35 59t47.5 33.5t51 10.5q24 0 49 -9.5t45.5 -31.5t34 -58t13.5 -88q0 -57 -14.5 -95t-36.5 -60t-47 -31t-46 -9q-24 0 -49.5 10t-47 32.5t-35 59.5t-13.5 91zM221 508q0 55 -12.5 80.5t-36.5 25.5
q-22 0 -36 -23.5t-14 -81.5q0 -59 12.5 -84t38.5 -25q20 0 34 24t14 84zM393 176q0 50 13.5 86t35 59t47.5 34t51 11q24 0 49 -10t45.5 -32t34 -58t13.5 -88q0 -57 -15 -94.5t-36.5 -59.5t-47 -31t-46.5 -9q-24 0 -49.5 9.5t-46.5 32t-34.5 59.5t-13.5 91zM587 175
q0 56 -12.5 81.5t-37.5 25.5q-22 0 -35.5 -24t-13.5 -82q0 -59 12.5 -83.5t37.5 -24.5q20 0 34.5 23.5t14.5 83.5zM723 176q0 50 13.5 86t35 59t47.5 34t51 11q24 0 49 -10t45.5 -32t34 -58t13.5 -88q0 -57 -15 -94.5t-36.5 -59.5t-47 -31t-46.5 -9q-24 0 -49.5 9.5
t-46.5 32t-34.5 59.5t-13.5 91zM917 175q0 56 -12.5 81.5t-37.5 25.5q-22 0 -35.5 -24t-13.5 -82q0 -59 12.5 -83.5t37.5 -24.5q20 0 34.5 23.5t14.5 83.5z" />
    <glyph glyph-name="minute" unicode="&#x2032;" horiz-adv-x="249" 
d="M209 667l-95 -256l-74 20l74 267z" />
    <glyph glyph-name="second" unicode="&#x2033;" horiz-adv-x="403" 
d="M209 667l-95 -256l-74 20l74 267zM388 667l-95 -256l-74 20l74 267z" />
    <glyph glyph-name="guilsinglleft" unicode="&#x2039;" horiz-adv-x="270" 
d="M145 452l83 -35l-68 -177l68 -177l-83 -35l-114 212z" />
    <glyph glyph-name="guilsinglright" unicode="&#x203a;" horiz-adv-x="270" 
d="M125 28l-83 35l68 177l-68 177l83 35l114 -212z" />
    <glyph glyph-name="exclamdbl" unicode="&#x203c;" horiz-adv-x="488" 
d="M55 130h134v-130h-134v130zM192 682l-13 -472h-114l-13 472h140zM299 130h134v-130h-134v130zM436 682l-13 -472h-114l-13 472h140z" />
    <glyph glyph-name="uni203D" unicode="&#x203d;" horiz-adv-x="466" 
d="M332 341q-32 -28 -41.5 -58t-9.5 -73h-102l-14 370q-21 -8 -33 -30.5t-12 -55.5h-105q2 100 58 152t156 52q48 0 87 -12t67 -34.5t43 -55t15 -73.5q0 -30 -7 -54t-21 -45t-34.5 -41t-46.5 -42zM163 130h133v-130h-133v130zM328 510q0 26 -13 44t-33 28l-7 -175
q30 29 41.5 51.5t11.5 51.5z" />
    <glyph glyph-name="uni203E" unicode="&#x203e;" horiz-adv-x="468" 
d="M0 855h468v-100h-468v100z" />
    <glyph glyph-name="fraction" unicode="&#x2044;" horiz-adv-x="166" 
d="M327 682l-400 -682h-88l399 682h89z" />
    <glyph glyph-name="uni2070" unicode="&#x2070;" 
d="M24 643q0 62 14.5 105.5t38 70.5t53 39t60.5 12q27 0 54.5 -11t50 -37.5t37 -70t14.5 -108.5q0 -71 -16 -116.5t-40.5 -71.5t-52.5 -36t-52 -10q-28 0 -56.5 11t-52 37.5t-38 71.5t-14.5 114zM241 641q0 80 -15.5 112t-40.5 32q-11 0 -21 -6.5t-17.5 -22.5t-12.5 -43
t-5 -68q0 -44 4.5 -73t12 -46t18 -24t22.5 -7q10 0 20 6.5t17.5 23t12.5 44.5t5 72z" />
    <glyph glyph-name="uni2074" unicode="&#x2074;" 
d="M289 493v-70h-98v70h-175v78l180 286h93v-283h55v-81h-55zM94 574h97v110q0 13 0.5 23.5t1.5 24.5h-3q-6 -13 -17 -32.5t-19 -31.5z" />
    <glyph glyph-name="uni2075" unicode="&#x2075;" 
d="M160 707q4 1 12.5 2t13.5 1q66 0 102.5 -41t36.5 -107q0 -30 -10 -57.5t-29 -49t-46.5 -34t-63.5 -12.5t-62.5 11t-44 29t-26.5 42t-10 50h103q2 -20 10.5 -32t28.5 -12q18 0 30 16.5t12 44.5q0 32 -17 49.5t-55 17.5q-21 0 -43 -2t-45 -8l23 242h211v-86h-123z" />
    <glyph glyph-name="uni2076" unicode="&#x2076;" 
d="M25 567q0 45 15 82.5t42 76.5l93 131h108l-94 -134q4 2 12 2h13q59 -3 94.5 -47t35.5 -111q0 -32 -11 -60.5t-31.5 -50t-50.5 -34.5t-68 -13q-37 0 -66 12t-49.5 33t-31.5 50t-11 63zM126 567q0 -34 17.5 -54t40.5 -20q26 0 42.5 20.5t16.5 53.5q0 34 -16.5 55.5
t-42.5 21.5q-25 0 -41.5 -21.5t-16.5 -55.5z" />
    <glyph glyph-name="uni2077" unicode="&#x2077;" 
d="M325 780l-152 -357h-114l157 348h-171v86h280v-77z" />
    <glyph glyph-name="uni2078" unicode="&#x2078;" 
d="M140 740q0 -26 13 -39t31 -13q21 0 33 13.5t12 38.5q0 26 -13 39t-32 13t-31.5 -13t-12.5 -39zM135 551q0 -33 14 -48t36 -15t36 14.5t14 48.5q0 32 -14 48.5t-36 16.5q-21 0 -35.5 -16.5t-14.5 -48.5zM339 546q0 -26 -10 -50.5t-29.5 -43.5t-49.5 -30.5t-70 -11.5
q-38 0 -65.5 10.5t-46.5 28.5t-28 42.5t-9 51.5q0 40 19.5 70.5t56.5 44.5v1q-31 13 -48.5 35.5t-17.5 53.5q0 25 9.5 47.5t27.5 39t44.5 26t60.5 9.5t61 -9.5t46 -25.5t28.5 -37t9.5 -44q0 -36 -20 -60.5t-49 -35.5v-1q45 -14 62.5 -43.5t17.5 -67.5z" />
    <glyph glyph-name="uni2079" unicode="&#x2079;" 
d="M343 712q0 -45 -14.5 -83t-42.5 -76l-93 -130h-108l94 133q-4 -2 -12 -2h-13q-59 3 -94.5 47t-35.5 111q0 31 11 60t31.5 50.5t50.5 34.5t68 13q37 0 66 -12t49.5 -33t31.5 -50t11 -63zM242 712q0 34 -17.5 54t-40.5 20q-26 0 -42.5 -20.5t-16.5 -53.5q0 -34 16.5 -55.5
t42.5 -21.5q25 0 41.5 21.5t16.5 55.5z" />
    <glyph glyph-name="uni207F" unicode="&#x207f;" horiz-adv-x="386" 
d="M48 691h93v-41q14 24 37.5 38t50.5 14q51 0 82 -35.5t31 -118.5v-200h-93v186q0 48 -12.5 66t-35.5 18q-29 0 -44.5 -23t-15.5 -78v-169h-93v343z" />
    <glyph glyph-name="uni2080" unicode="&#x2080;" 
d="M24 46q0 62 14.5 105.5t38 70.5t53 39t60.5 12q27 0 54.5 -11t50 -37.5t37 -70t14.5 -108.5q0 -71 -16 -117t-40.5 -72t-52.5 -36t-52 -10q-28 0 -56.5 11t-52 38t-38 72t-14.5 114zM241 44q0 80 -15.5 112t-40.5 32q-11 0 -21 -6.5t-17.5 -22.5t-12.5 -43t-5 -68
q0 -44 4.5 -73t12 -46.5t18 -24.5t22.5 -7q10 0 20 6.5t17.5 23.5t12.5 45t5 72z" />
    <glyph glyph-name="uni2081" unicode="&#x2081;" 
d="M140 173h-63v86h166v-434h-103v348z" />
    <glyph glyph-name="uni2082" unicode="&#x2082;" 
d="M44 -108l119 145q22 26 38 51.5t16 51.5q0 21 -10 34t-27 13q-21 0 -30 -16.5t-10 -43.5h-100q0 30 9 56t26.5 46t44.5 31.5t65 11.5q31 0 56.5 -10t44 -27t28.5 -41t10 -51q0 -20 -4 -37t-13 -33.5t-23 -35t-34 -41.5l-74 -84h154v-87h-286v67z" />
    <glyph glyph-name="uni2083" unicode="&#x2083;" 
d="M40 141q2 59 38 95t102 36q68 0 103.5 -32t35.5 -82q0 -36 -21.5 -61t-51.5 -32v-3q42 -11 64 -40t22 -71q0 -27 -9.5 -52.5t-29 -45t-48 -31t-67.5 -11.5q-74 0 -110 38t-40 104h100q2 -30 14 -45.5t36 -15.5q23 0 36.5 18t13.5 48q0 25 -15 43t-50 18h-27v77h26
q26 0 39 13t13 36q0 20 -9 33.5t-28 13.5q-20 0 -28 -14t-10 -37h-99z" />
    <glyph glyph-name="uni2084" unicode="&#x2084;" 
d="M289 -105v-70h-98v70h-175v78l180 286h93v-283h55v-81h-55zM94 -24h97v100q0 19 0.5 30.5t1.5 25.5h-4q-6 -13 -16.5 -31.5t-18.5 -30.5z" />
    <glyph glyph-name="uni2085" unicode="&#x2085;" 
d="M160 109q4 1 12.5 2t13.5 1q66 0 102.5 -41t36.5 -107q0 -30 -10 -57.5t-29 -49t-46.5 -34t-63.5 -12.5t-62.5 11t-44 29t-26.5 42t-10 50h103q2 -20 10.5 -32t28.5 -12q18 0 30 16.5t12 44.5q0 32 -17 49.5t-55 17.5q-21 0 -43 -2t-45 -8l23 242h211v-86h-123z" />
    <glyph glyph-name="uni2086" unicode="&#x2086;" 
d="M25 -31q0 45 15 82.5t42 76.5l93 131h108l-94 -134q4 2 12 2h13q59 -3 94.5 -47t35.5 -111q0 -32 -11 -60.5t-31.5 -50t-50.5 -34.5t-68 -13q-37 0 -66 12t-49.5 33t-31.5 50t-11 63zM126 -31q0 -34 17.5 -54t40.5 -20q26 0 42.5 20.5t16.5 53.5q0 34 -16.5 55.5
t-42.5 21.5q-25 0 -41.5 -21.5t-16.5 -55.5z" />
    <glyph glyph-name="uni2087" unicode="&#x2087;" 
d="M325 182l-152 -357h-114l157 348h-171v86h280v-77z" />
    <glyph glyph-name="uni2088" unicode="&#x2088;" 
d="M140 141q0 -26 13 -39t31 -13q21 0 33 13.5t12 38.5q0 26 -13 39t-32 13t-31.5 -13t-12.5 -39zM135 -48q0 -33 14 -48t36 -15t36 14.5t14 48.5q0 32 -14 48.5t-36 16.5q-21 0 -35.5 -16.5t-14.5 -48.5zM339 -53q0 -26 -10 -50.5t-29.5 -43.5t-49.5 -30.5t-70 -11.5
q-38 0 -65.5 10.5t-46.5 28.5t-28 42.5t-9 51.5q0 40 19.5 70.5t56.5 44.5v1q-31 13 -48.5 35.5t-17.5 53.5q0 25 9.5 47.5t27.5 39t44.5 26t60.5 9.5t61 -9.5t46 -25.5t28.5 -37t9.5 -44q0 -36 -20 -60.5t-49 -35.5v-1q45 -14 62.5 -43.5t17.5 -67.5z" />
    <glyph glyph-name="uni2089" unicode="&#x2089;" 
d="M343 115q0 -45 -15 -82.5t-42 -76.5l-93 -131h-108l94 134q-4 -2 -12 -2h-13q-59 3 -94.5 47t-35.5 111q0 31 11 60t31.5 50.5t50.5 34.5t68 13q37 0 66 -12t49.5 -33t31.5 -50t11 -63zM242 115q0 34 -17.5 54t-40.5 20q-26 0 -42.5 -20.5t-16.5 -53.5q0 -34 16.5 -55.5
t42.5 -21.5q25 0 41.5 21.5t16.5 55.5z" />
    <glyph glyph-name="franc" unicode="&#x20a3;" horiz-adv-x="526" 
d="M21 209h95v473h335v-122h-203v-150h194v-116h-194v-85h147v-99h-147v-110h-132v110h-95v99z" />
    <glyph glyph-name="lira" unicode="&#x20a4;" horiz-adv-x="525" 
d="M30 443h47q-2 16 -3.5 33.5t-1.5 35.5q0 37 12.5 72t37 62t62 43t87.5 16q49 0 86 -14.5t61.5 -41t37.5 -63t15 -80.5h-132q-2 40 -17 62t-50 22t-50 -24.5t-15 -66.5q0 -14 1 -28t3 -28h180v-78h-165q4 -16 6.5 -29t4.5 -24h154v-76h-143v-5q0 -36 -15.5 -60.5
t-28.5 -35.5q17 0 37.5 -5.5t34.5 -12.5q17 -8 33.5 -14t27.5 -6q18 0 29 14.5t12 53.5h132q-2 -98 -44 -142.5t-112 -44.5q-28 0 -54.5 7t-57.5 21t-53 20.5t-42 6.5q-28 0 -54.5 -11.5t-53.5 -28.5v115q26 7 42 19.5t25 28.5t12.5 33t3.5 34q0 8 -1 13h-91v76h77l-13 53
h-64v78z" />
    <glyph glyph-name="peseta" unicode="&#x20a7;" horiz-adv-x="1178" 
d="M60 682h178q45 0 86.5 -12.5t74.5 -37.5t53.5 -63t23.5 -90h56v154h127v-154h94v-114h-94v-189q0 -39 10.5 -53.5t42.5 -14.5q8 0 20 1t24 3v-112q-7 -2 -16.5 -3t-19 -1.5t-18.5 -1t-15 -0.5q-44 0 -73.5 10t-47.5 30.5t-26 52.5t-8 76v202h-74q-26 -59 -83.5 -91.5
t-142.5 -32.5h-34v-241h-138v682zM1010 351q-2 24 -15 36t-32 12q-20 0 -31.5 -10t-11.5 -27q0 -9 2.5 -16.5t11 -15.5t23.5 -16.5t40 -17.5q48 -18 76.5 -37t44.5 -39t21 -42.5t5 -47.5q0 -29 -11 -55.5t-32.5 -47t-54.5 -32.5t-77 -12q-40 0 -74 8.5t-59 27t-39.5 48.5
t-16.5 72h128q1 -28 15.5 -44t43.5 -16q23 0 36 14t13 32q0 9 -2.5 18t-11 17.5t-25 18t-43.5 20.5q-69 27 -105.5 60.5t-36.5 91.5q0 28 10 54t31.5 46t54 32t77.5 12q40 0 71.5 -11.5t53 -31t33.5 -45.5t13 -56h-126zM336 461q0 46 -23 76t-79 30h-36v-211h35
q31 0 51.5 8.5t31.5 23t15.5 33.5t4.5 40z" />
    <glyph glyph-name="Euro" unicode="&#x20ac;" horiz-adv-x="525" 
d="M264 219q4 -36 14.5 -59t26.5 -35.5t37 -17.5t45 -5q12 0 26 1t29 3.5t29 5.5t25 6v-117q-29 -8 -62.5 -12.5t-60.5 -4.5q-101 0 -167 56t-79 179h-81l22 94h52q-1 7 -1 15.5v16.5v19.5t1 19.5h-73l22 94h60q20 111 84 165.5t164 54.5q34 0 69 -6t59 -16l-28 -114
q-19 9 -48 13.5t-49 4.5q-43 0 -75.5 -24t-38.5 -78h194l-22 -94h-181q-1 -8 -1 -17.5v-18.5v-17.5t1 -17.5h164l-22 -94h-135z" />
    <glyph glyph-name="afii61248" unicode="&#x2105;" horiz-adv-x="740" 
d="M613 682l-400 -682h-88l399 682h89zM410 176q0 50 14 86t36.5 59t50 34t53.5 11q25 0 51 -10t48 -32t36 -58t14 -88q0 -57 -15.5 -94.5t-38.5 -59.5t-49.5 -31t-48.5 -9q-25 0 -52 9.5t-49 32t-36 59.5t-14 91zM618 175q0 56 -14 81.5t-43 25.5q-25 0 -40.5 -24
t-15.5 -82q0 -59 14 -83.5t43 -24.5q23 0 39.5 23.5t16.5 83.5zM177 698q31 0 55 -10t41.5 -27t27.5 -40t13 -48h-95q-3 24 -15 33.5t-27 9.5q-22 0 -38.5 -24.5t-16.5 -84.5q0 -56 15.5 -82.5t39.5 -26.5q17 0 28 11t16 40h95q-11 -68 -48 -100.5t-91 -32.5
q-32 0 -59.5 11.5t-47.5 35.5t-31.5 60t-11.5 85t12 84.5t32.5 59t48 35t57.5 11.5z" />
    <glyph glyph-name="afii61289" unicode="&#x2113;" horiz-adv-x="525" 
d="M445 50q-29 -26 -71 -46.5t-86 -20.5q-71 0 -110 43t-39 128v37l-47 -41l-43 50l90 85v201q0 104 43.5 158t115.5 54q33 0 56.5 -12t38.5 -31t21.5 -42t6.5 -44q0 -35 -9 -66.5t-24.5 -61.5t-37.5 -59t-48 -59q-8 -8 -18 -19t-15 -17v-111q0 -54 17 -73t42 -19
q20 0 38 11.5t31 24.5q12 -17 24 -35t24 -35zM345 556q0 17 -7.5 31t-24.5 14q-20 0 -32 -22t-12 -67v-119q3 4 7.5 9t7.5 10q28 35 44.5 74t16.5 70z" />
    <glyph glyph-name="afii61352" unicode="&#x2116;" horiz-adv-x="1021" 
d="M186 438q0 -12 0.5 -28.5t1 -33.5t0.5 -33.5v-27.5v-315h-128v682h131l134 -243q15 -28 30.5 -57t28 -55.5t22 -48.5t14.5 -34h3q-1 27 -1.5 54.5t-0.5 54.5v329h128v-682h-131l-136 247q-35 65 -60 116.5t-33 74.5h-3zM622 344q0 48 14.5 85t39.5 62.5t59 38.5t72 13
q41 0 75 -14t59 -40.5t38.5 -63t13.5 -81.5q0 -44 -13.5 -81t-38.5 -63.5t-59 -41t-75 -14.5q-38 0 -72 13t-59 38.5t-39.5 63t-14.5 85.5zM728 343q0 -48 22 -76t57 -28t57.5 27t22.5 77q0 48 -22.5 76.5t-57.5 28.5q-33 0 -56 -24t-23 -81zM634 0v95h347v-95h-347z" />
    <glyph glyph-name="uni2117" unicode="&#x2117;" horiz-adv-x="786" 
d="M30 341q0 75 28.5 141t78 115.5t115.5 78t141 28.5t141.5 -28.5t115.5 -78t77.5 -115.5t28.5 -141t-28.5 -141t-77.5 -115.5t-115.5 -78t-141.5 -28.5t-141 28.5t-115.5 78t-78 115.5t-28.5 141zM101 341q0 -60 23.5 -113.5t63 -93t92.5 -62.5t113 -23q61 0 114 23
t92.5 62.5t62.5 93t23 113.5t-23 113.5t-62.5 93t-92.5 62.5t-114 23q-60 0 -113 -23t-92.5 -62.5t-63 -93t-23.5 -113.5zM466 413q0 26 -14 42.5t-49 16.5h-32v-117h32q39 0 51 17.5t12 40.5zM281 547h127q30 0 57 -8t48 -24t33.5 -41.5t12.5 -59.5q0 -62 -41.5 -98
t-114.5 -36h-32v-134h-90v401z" />
    <glyph glyph-name="trademark" unicode="&#x2122;" horiz-adv-x="567" 
d="M525 453h-71l-6 105q-1 17 -1 25v16h-3q-2 -8 -4 -18t-7 -23l-35 -105h-50l-31 98q-5 17 -7.5 27t-4.5 21h-2v-17.5t-2 -26.5l-7 -102h-72l19 229h96l27 -86q5 -16 7 -23t3 -12h1q2 8 4 15t7 21l27 85h95zM20 682h191v-63h-61v-166h-70v166h-60v63z" />
    <glyph glyph-name="uni2126" unicode="&#x2126;" horiz-adv-x="649" 
d="M369 0v173q57 29 82.5 76.5t25.5 126.5q0 100 -40 152t-110 52q-69 0 -112 -51t-43 -153q0 -78 25.5 -129.5t82.5 -73.5v-173h-242v120h122v5q-35 19 -59.5 46.5t-39.5 60t-22 69t-7 74.5q0 75 22 136t61 103.5t93 66t119 23.5q67 0 120.5 -22.5t91 -65t58 -103.5
t20.5 -137q0 -80 -32.5 -144.5t-95.5 -106.5v-5h122v-120h-242z" />
    <glyph glyph-name="estimated" unicode="&#x212e;" horiz-adv-x="660" 
d="M164 298v-205q69 -67 163 -67q79 0 131 37t90 99q9 -6 18 -11.5t19 -11.5q-23 -34 -48.5 -62t-56 -47.5t-68.5 -30.5t-85 -11q-66 0 -120 24.5t-91.5 66.5t-58 98.5t-20.5 120.5t20 121t57.5 99t92 66.5t122.5 24.5q69 0 123 -24.5t91.5 -66.5t58 -99t22.5 -121h-460z
M493 503q-32 32 -74.5 50t-90.5 18q-98 0 -164 -66v-169h329v167z" />
    <glyph glyph-name="onethird" unicode="&#x2153;" horiz-adv-x="906" 
d="M140 596h-63v86h166v-434h-103v348zM682 682l-400 -682h-88l399 682h89zM576 316q2 59 38 95t102 36q68 0 103.5 -32t35.5 -82q0 -36 -21.5 -61t-51.5 -32v-3q42 -11 64 -40t22 -71q0 -27 -9.5 -52.5t-29 -45t-48 -31t-67.5 -11.5q-74 0 -110 38t-40 104h100
q2 -30 14 -45.5t36 -15.5q23 0 36.5 18t13.5 48q0 25 -15 43t-50 18h-27v77h26q26 0 39 13t13 36q0 20 -9 33.5t-28 13.5q-20 0 -28 -14t-10 -37h-99z" />
    <glyph glyph-name="twothirds" unicode="&#x2154;" horiz-adv-x="906" 
d="M44 315l119 145q22 26 38 51.5t16 51.5q0 21 -10 34t-27 13q-21 0 -30 -16.5t-10 -43.5h-100q0 30 9 56t26.5 46t44.5 31.5t65 11.5q31 0 56.5 -10t44 -27t28.5 -41t10 -51q0 -20 -4 -37t-13 -33.5t-23 -35t-34 -41.5l-74 -84h154v-87h-286v67zM697 682l-400 -682h-88
l399 682h89zM576 316q2 59 38 95t102 36q68 0 103.5 -32t35.5 -82q0 -36 -21.5 -61t-51.5 -32v-3q42 -11 64 -40t22 -71q0 -27 -9.5 -52.5t-29 -45t-48 -31t-67.5 -11.5q-74 0 -110 38t-40 104h100q2 -30 14 -45.5t36 -15.5q23 0 36.5 18t13.5 48q0 25 -15 43t-50 18h-27v77
h26q26 0 39 13t13 36q0 20 -9 33.5t-28 13.5q-20 0 -28 -14t-10 -37h-99z" />
    <glyph glyph-name="oneeighth" unicode="&#x215b;" horiz-adv-x="906" 
d="M140 596h-63v86h166v-434h-103v348zM687 682l-400 -682h-88l399 682h89zM676 316q0 -26 13 -39t31 -13q21 0 33 13.5t12 38.5q0 26 -13 39t-32 13t-31.5 -13t-12.5 -39zM671 127q0 -33 14 -48t36 -15t36 14.5t14 48.5q0 32 -14 48.5t-36 16.5q-21 0 -35.5 -16.5
t-14.5 -48.5zM875 122q0 -26 -10 -50.5t-29.5 -43.5t-49.5 -30.5t-70 -11.5q-38 0 -65.5 10.5t-46.5 28.5t-28 42.5t-9 51.5q0 40 19.5 70.5t56.5 44.5v1q-31 13 -48.5 35.5t-17.5 53.5q0 25 9.5 47.5t27.5 39t44.5 26t60.5 9.5t61 -9.5t46 -25.5t28.5 -37t9.5 -44
q0 -36 -20 -60.5t-49 -35.5v-1q45 -14 62.5 -43.5t17.5 -67.5z" />
    <glyph glyph-name="threeeighths" unicode="&#x215c;" horiz-adv-x="906" 
d="M40 564q2 59 38 95t102 36q68 0 103.5 -32t35.5 -82q0 -36 -21.5 -61t-51.5 -32v-3q42 -11 64 -40t22 -71q0 -27 -9.5 -52.5t-29 -45t-48 -31t-67.5 -11.5q-74 0 -110 38t-40 104h100q2 -30 14 -45.5t36 -15.5q23 0 36 18t13 48q0 25 -14.5 43t-49.5 18h-27v77h26
q26 0 39 13t13 36q0 20 -9 33.5t-28 13.5q-20 0 -28 -14t-10 -37h-99zM697 682l-400 -682h-88l399 682h89zM676 316q0 -26 13 -39t31 -13q21 0 33 13.5t12 38.5q0 26 -13 39t-32 13t-31.5 -13t-12.5 -39zM671 127q0 -33 14 -48t36 -15t36 14.5t14 48.5q0 32 -14 48.5
t-36 16.5q-21 0 -35.5 -16.5t-14.5 -48.5zM875 122q0 -26 -10 -50.5t-29.5 -43.5t-49.5 -30.5t-70 -11.5q-38 0 -65.5 10.5t-46.5 28.5t-28 42.5t-9 51.5q0 40 19.5 70.5t56.5 44.5v1q-31 13 -48.5 35.5t-17.5 53.5q0 25 9.5 47.5t27.5 39t44.5 26t60.5 9.5t61 -9.5
t46 -25.5t28.5 -37t9.5 -44q0 -36 -20 -60.5t-49 -35.5v-1q45 -14 62.5 -43.5t17.5 -67.5z" />
    <glyph glyph-name="fiveeighths" unicode="&#x215d;" horiz-adv-x="906" 
d="M160 532q4 1 12.5 2t13.5 1q66 0 102.5 -41t36.5 -107q0 -30 -10 -57.5t-29 -49t-46.5 -34t-63.5 -12.5t-62.5 11t-44 29t-26.5 42t-10 50h103q2 -20 10.5 -32t28.5 -12q18 0 30 16.5t12 44.5q0 32 -17 49.5t-55 17.5q-21 0 -43 -2t-45 -8l23 242h211v-86h-123zM697 682
l-400 -682h-88l399 682h89zM676 316q0 -26 13 -39t31 -13q21 0 33 13.5t12 38.5q0 26 -13 39t-32 13t-31.5 -13t-12.5 -39zM671 127q0 -33 14 -48t36 -15t36 14.5t14 48.5q0 32 -14 48.5t-36 16.5q-21 0 -35.5 -16.5t-14.5 -48.5zM875 122q0 -26 -10 -50.5t-29.5 -43.5
t-49.5 -30.5t-70 -11.5q-38 0 -65.5 10.5t-46.5 28.5t-28 42.5t-9 51.5q0 40 19.5 70.5t56.5 44.5v1q-31 13 -48.5 35.5t-17.5 53.5q0 25 9.5 47.5t27.5 39t44.5 26t60.5 9.5t61 -9.5t46 -25.5t28.5 -37t9.5 -44q0 -36 -20 -60.5t-49 -35.5v-1q45 -14 62.5 -43.5t17.5 -67.5
z" />
    <glyph glyph-name="seveneighths" unicode="&#x215e;" horiz-adv-x="906" 
d="M325 605l-152 -357h-114l157 348h-171v86h280v-77zM677 682l-400 -682h-88l399 682h89zM676 316q0 -26 13 -39t31 -13q21 0 33 13.5t12 38.5q0 26 -13 39t-32 13t-31.5 -13t-12.5 -39zM671 127q0 -33 14 -48t36 -15t36 14.5t14 48.5q0 32 -14 48.5t-36 16.5
q-21 0 -35.5 -16.5t-14.5 -48.5zM875 122q0 -26 -10 -50.5t-29.5 -43.5t-49.5 -30.5t-70 -11.5q-38 0 -65.5 10.5t-46.5 28.5t-28 42.5t-9 51.5q0 40 19.5 70.5t56.5 44.5v1q-31 13 -48.5 35.5t-17.5 53.5q0 25 9.5 47.5t27.5 39t44.5 26t60.5 9.5t61 -9.5t46 -25.5
t28.5 -37t9.5 -44q0 -36 -20 -60.5t-49 -35.5v-1q45 -14 62.5 -43.5t17.5 -67.5z" />
    <glyph glyph-name="partialdiff" unicode="&#x2202;" horiz-adv-x="540" 
d="M502 461q0 -96 -22 -187q-15 -60 -38 -112t-55 -90.5t-73 -61t-92 -22.5q-45 0 -82 15t-62.5 42t-39.5 64.5t-14 82.5q0 74 20.5 130t53.5 93.5t74 56.5t81 19q46 0 78 -16t46 -43h2q1 7 1.5 17t0.5 25q0 73 -31 116.5t-92 43.5q-23 0 -47.5 -8t-44.5 -22
q-7 21 -13.5 41.5t-13.5 40.5q22 17 60 29.5t83 12.5q53 0 94 -19t69 -54.5t42.5 -84.5t14.5 -109zM360 319q-9 39 -33 61t-51 22q-26 0 -49.5 -16.5t-40.5 -45.5t-27 -68t-10 -84q0 -48 19.5 -76.5t52.5 -28.5q25 0 47.5 17.5t40 49t30.5 75t21 94.5z" />
    <glyph glyph-name="uni2206" unicode="&#x2206;" horiz-adv-x="550" 
d="M212 682h133l215 -682h-570zM156 112h230l-72 260q-4 14 -8.5 32.5t-9.5 38.5t-9.5 39.5t-7.5 34.5h-4q-4 -16 -9 -35t-10.5 -39t-11 -38.5t-9.5 -33.5z" />
    <glyph glyph-name="product" unicode="&#x220f;" horiz-adv-x="664" 
d="M469 -235v797h-274v-797h-135v917h544v-917h-135z" />
    <glyph glyph-name="summation" unicode="&#x2211;" horiz-adv-x="613" 
d="M23 -235v94l270 371l-247 353v99h505v-118h-330l233 -332l-255 -349h378v-118h-554z" />
    <glyph glyph-name="minus" unicode="&#x2212;" horiz-adv-x="569" 
d="M45 218v95h479v-95h-479z" />
    <glyph glyph-name="uni2215" unicode="&#x2215;" horiz-adv-x="166" 
d="M327 682l-400 -682h-88l399 682h89z" />
    <glyph glyph-name="uni2219" unicode="&#x2219;" horiz-adv-x="258" 
d="M50 426h158v-150h-158v150z" />
    <glyph glyph-name="radical" unicode="&#x221a;" horiz-adv-x="560" 
d="M341 -12h-88l-72 158t-71 158q-15 -9 -30.5 -18t-30.5 -18q-8 16 -17 31t-17 30q36 23 72.5 45.5t72.5 45.5q35 -78 68.5 -153.5t67.5 -152.5q46 153 92 303t92 303h85z" />
    <glyph glyph-name="infinity" unicode="&#x221e;" horiz-adv-x="855" 
d="M813 293q0 -39 -13.5 -72.5t-37.5 -58t-58.5 -38.5t-76.5 -14q-60 0 -111.5 30.5t-85.5 81.5h-3q-33 -46 -84 -79t-113 -33q-42 0 -76.5 13t-59 36.5t-38.5 56.5t-14 73q0 41 14 74.5t39 57.5t59 37t74 13q65 0 115 -32.5t84 -81.5h2q14 19 33 39.5t43.5 37t54 27
t64.5 10.5q42 0 76.5 -13t59.5 -36.5t39 -56.5t14 -72zM717 291q0 38 -23.5 66t-75.5 28q-44 0 -78.5 -26t-63.5 -69q27 -44 63.5 -70t80.5 -26q25 0 43 8t30 21.5t18 31t6 36.5zM379 291q-26 42 -64 68.5t-80 26.5q-48 0 -72.5 -28t-24.5 -69q0 -42 27 -68.5t72 -26.5
q42 0 79 28t63 69z" />
    <glyph glyph-name="integral" unicode="&#x222b;" horiz-adv-x="525" 
d="M445 614q-8 4 -23 7t-29 3q-38 0 -54 -20.5t-16 -61.5v-565q0 -103 -46.5 -155t-128.5 -52q-30 0 -59 5.5t-46 11.5l25 111q9 -3 24 -7t30 -4q68 0 68 79v574q0 97 43 149t135 52q31 0 57 -5t44 -12z" />
    <glyph glyph-name="approxequal" unicode="&#x2248;" horiz-adv-x="569" 
d="M550 187q-26 -60 -68.5 -94t-99.5 -34q-27 0 -52 8.5t-54 28.5q-23 16 -43.5 30t-45.5 14q-27 0 -48.5 -19.5t-36.5 -54.5l-83 48q26 60 67.5 94.5t96.5 34.5q32 0 57 -10t49 -26q21 -14 45.5 -30t47.5 -16q29 0 51.5 22.5t33.5 51.5zM550 407q-26 -60 -68.5 -94
t-99.5 -34q-27 0 -52 8.5t-54 28.5q-23 16 -43.5 30t-45.5 14q-27 0 -48.5 -19.5t-36.5 -54.5l-83 48q26 60 67.5 94.5t96.5 34.5q32 0 57 -10t49 -26q21 -14 45.5 -30t47.5 -16q29 0 51.5 22.5t33.5 51.5z" />
    <glyph glyph-name="notequal" unicode="&#x2260;" horiz-adv-x="569" 
d="M262 106l-53 -106h-106l54 106h-112v95h155l63 128h-218v95h262l51 102h105l-51 -102h112v-95h-155l-64 -128h219v-95h-262z" />
    <glyph glyph-name="lessequal" unicode="&#x2264;" horiz-adv-x="569" 
d="M45 0v95h479v-95h-479zM45 282v96l479 172v-100l-343 -119v-2l343 -119v-100z" />
    <glyph glyph-name="greaterequal" unicode="&#x2265;" horiz-adv-x="569" 
d="M45 0v95h479v-95h-479zM524 378v-96l-479 -172v100l343 119v2l-343 119v100z" />
    <glyph glyph-name="lozenge" unicode="&#x25ca;" horiz-adv-x="586" 
d="M545 341l-231 -341h-44l-229 340l229 342h44zM440 341l-148 224l-147 -224l147 -224z" />
    <glyph glyph-name="uniF001" unicode="&#xf001;" horiz-adv-x="518" 
d="M10 479h55v66q0 46 7.5 80t26 57t50.5 34.5t82 11.5q13 0 28.5 -2t23.5 -4v-114q-8 2 -16.5 3t-18.5 1q-35 0 -45 -17t-10 -47v-69h74v-114h-74v-365h-128v365h-55v114zM334 479h128v-479h-128v479zM334 708h128v-124h-128v124z" />
    <glyph glyph-name="uniF002" unicode="&#xf002;" horiz-adv-x="518" 
d="M10 479h55v66q0 46 7.5 80t26 57t50.5 34.5t82 11.5q13 0 28.5 -2t23.5 -4v-114q-8 2 -16.5 3t-18.5 1q-35 0 -45 -17t-10 -47v-69h74v-114h-74v-365h-128v365h-55v114zM334 720h128v-720h-128v720z" />
    <glyph glyph-name="uniF8FF" unicode="&#xf8ff;" horiz-adv-x="500" 
d="M12 665h475v-665h-475v665zM250 375l161 243h-323zM60 91l7 10t18 27t25.5 39t29.5 45q35 54 81 121l-161 242v-484zM278 333l162 -243v485zM250 290l-162 -242h323z" />
    <glyph glyph-name="dollar.aalt" horiz-adv-x="450" 
d="M275 622v-63q58 -13 90 -51.5t35 -92.5h-126q-2 27 -16 40t-34 13q-22 0 -34.5 -11.5t-12.5 -32.5q0 -26 16.5 -44t64.5 -39q44 -19 73 -39t46 -42t24 -46.5t7 -51.5q0 -55 -33 -99.5t-100 -58.5v-72h-100v72q-61 10 -99 46.5t-41 111.5h128q1 -31 17 -48.5t48 -17.5
q25 0 39.5 16.5t14.5 38.5q0 29 -20.5 50t-71.5 43q-69 29 -104 68.5t-35 103.5q0 24 7.5 46.5t22.5 42t38.5 34t55.5 20.5v63h100z" />
    <glyph glyph-name="zero.oldstyle.pnum" horiz-adv-x="547" 
d="M26 257q0 63 19 113t52 85t78 53.5t98 18.5q55 0 100.5 -19t78.5 -54t51 -85t18 -112t-18.5 -112t-51.5 -86t-78.5 -55.5t-99.5 -19.5q-53 0 -98.5 19t-78.5 54.5t-51.5 86t-18.5 113.5zM162 255q0 -74 31.5 -114t79.5 -40q53 0 82.5 41t29.5 113q0 70 -29 112.5
t-83 42.5q-53 0 -82 -41t-29 -114z" />
    <glyph glyph-name="one.oldstyle.pnum" horiz-adv-x="386" 
d="M143 390h-113v122h251v-512h-138v390z" />
    <glyph glyph-name="two.oldstyle.pnum" horiz-adv-x="515" 
d="M53 97l171 122q53 38 73 66t20 60q0 26 -15.5 43.5t-44.5 17.5q-65 0 -68 -76h-135q1 42 14.5 78t38.5 62t63 41t89 15q47 0 83.5 -13.5t61.5 -36.5t38 -54t13 -65q0 -30 -6.5 -55.5t-20.5 -49t-38 -46.5t-58 -47l-52 -36h187v-123h-414v97z" />
    <glyph glyph-name="three.oldstyle.pnum" horiz-adv-x="499" 
d="M45 340q2 91 55.5 138.5t140.5 47.5q47 0 84 -12.5t62.5 -35.5t39 -55t13.5 -71q0 -51 -26.5 -90.5t-69.5 -52.5v-2q63 -19 93 -66.5t30 -119.5q0 -51 -16.5 -93.5t-47 -73t-73 -47.5t-93.5 -17q-107 0 -163 55t-62 155h131q4 -50 28 -73t66 -23q40 0 67 29.5t27 89.5
q0 57 -33.5 90t-90.5 33h-40v110h35q51 0 76.5 23.5t25.5 60.5q0 34 -17.5 53t-47.5 19q-31 0 -46.5 -19t-17.5 -53h-130z" />
    <glyph glyph-name="four.oldstyle.pnum" horiz-adv-x="513" 
d="M413 26v-180h-130v180h-249v111l251 375h128v-370h78v-116h-78zM156 142h127v110q0 30 1 47.5t3 38.5h-5q-7 -16 -17 -33.5t-26 -40.5z" />
    <glyph glyph-name="five.oldstyle.pnum" horiz-adv-x="514" 
d="M203 262q11 3 28 5t29 2q48 0 88 -14.5t69.5 -44.5t46 -75.5t16.5 -106.5q0 -55 -18 -99t-49 -75t-72.5 -47.5t-87.5 -16.5q-106 0 -162.5 60t-61.5 161h131q2 -55 23.5 -82t67.5 -27q37 0 65 30.5t28 96.5q0 63 -28.5 95.5t-86.5 32.5q-18 0 -40 -2t-44 -5t-43 -7.5
t-39 -10.5l36 380h334v-122h-217z" />
    <glyph glyph-name="six.oldstyle.pnum" horiz-adv-x="545" 
d="M40 225q0 22 4.5 46t15 54t28.5 68.5t45 88.5l107 200h137l-121 -225q12 3 34 3q49 0 89.5 -17.5t69.5 -49t44.5 -74.5t15.5 -94q0 -50 -16.5 -93.5t-47 -76.5t-74 -52t-97.5 -19t-97.5 17t-73.5 48.5t-46.5 76t-16.5 99.5zM174 224q0 -62 28 -92t72 -30q42 0 71.5 30
t29.5 92q0 57 -28.5 89.5t-72.5 32.5q-46 0 -73 -35t-27 -87z" />
    <glyph glyph-name="seven.oldstyle.pnum" horiz-adv-x="441" 
d="M401 398l-211 -592h-143l221 584h-253v122h386v-114z" />
    <glyph glyph-name="eight.oldstyle.pnum" horiz-adv-x="545" 
d="M208 510q0 -37 17 -55t46 -18t48 19t19 55t-19 54.5t-47 18.5q-27 0 -45.5 -18.5t-18.5 -55.5zM180 215q0 -31 8 -53t21 -36.5t29.5 -21t33.5 -6.5q36 0 64.5 28t28.5 89q0 53 -26.5 82.5t-66.5 29.5q-42 0 -67 -30.5t-25 -81.5zM503 202q0 -50 -16 -90t-45.5 -68.5
t-72.5 -44t-97 -15.5t-96.5 15.5t-72 44t-45.5 68.5t-16 90q0 61 30 108t82 68v2q-33 17 -56 53.5t-23 82.5q0 40 14 73.5t40 57.5t62.5 37.5t80.5 13.5q45 0 81.5 -13.5t62.5 -37.5t40 -57.5t14 -73.5q0 -46 -22 -82.5t-57 -53.5v-2q54 -20 83 -67.5t29 -108.5z" />
    <glyph glyph-name="nine.oldstyle.pnum" horiz-adv-x="545" 
d="M505 293q0 -22 -4.5 -46t-15 -54t-28.5 -68.5t-45 -88.5l-123 -230h-137l137 255q-12 -3 -34 -3q-50 0 -90 17.5t-69 49t-44.5 74.5t-15.5 94q0 49 16.5 93t47 77t74 52t97.5 19t97.5 -17t73.5 -48.5t46.5 -76t16.5 -99.5zM371 294q0 62 -28 92t-72 30q-42 0 -71.5 -30
t-29.5 -92q0 -57 28.5 -89.5t72.5 -32.5q46 0 73 35t27 87z" />
    <glyph glyph-name="cent.aalt" horiz-adv-x="497" 
d="M200 29q-75 16 -118.5 73t-43.5 157q0 88 41 147t121 76v89h100v-87q34 -6 60 -22.5t45 -39.5t31 -51t17 -57h-130q-6 26 -24 42t-44 16q-17 0 -32.5 -5t-27.5 -18t-19.5 -35t-7.5 -56q0 -61 25.5 -89.5t63.5 -28.5q58 0 72 58h130q-5 -27 -18 -54.5t-33 -50.5
t-47.5 -40.5t-60.5 -24.5v-93h-100v94z" />
    <glyph glyph-name="glyph281" horiz-adv-x="318" 
d="M107 -59h116v-61q0 -79 -48 -134h-61q15 20 26 48.5t11 47.5h-44v99z" />
    <glyph glyph-name="zero.pnum" horiz-adv-x="541" 
d="M36 345q0 99 20.5 166.5t53.5 109t74 59.5t83 18q45 0 88 -16t76 -56t53.5 -107.5t20.5 -169.5q0 -113 -23 -184.5t-58 -111.5t-76 -54.5t-77 -14.5q-42 0 -84 16t-75.5 57t-54.5 111t-21 177zM367 345q0 123 -23.5 179t-73.5 56q-22 0 -39.5 -12t-30 -39t-19.5 -71.5
t-7 -109.5q0 -68 6.5 -115t18.5 -76t30 -42t42 -13q21 0 38.5 12t30 40.5t20 75t7.5 115.5z" />
    <glyph glyph-name="one.pnum" horiz-adv-x="415" 
d="M153 560h-113v122h251v-682h-138v560z" />
    <glyph glyph-name="two.pnum" horiz-adv-x="505" 
d="M43 75l180 244q38 51 61.5 96.5t23.5 97.5q0 29 -16.5 47.5t-45.5 18.5q-61 0 -62 -95h-140q5 99 58.5 157t146.5 58q49 0 86 -14.5t62 -39.5t37 -57t12 -67q0 -65 -26 -117t-66 -106l-133 -175h236v-123h-414v75z" />
    <glyph glyph-name="three.pnum" horiz-adv-x="533" 
d="M55 505q5 88 58.5 140.5t150.5 52.5q48 0 87 -13t66.5 -36t42.5 -54t15 -68q0 -25 -7.5 -49.5t-22 -45t-35.5 -36t-49 -22.5v-2q55 -13 92.5 -56.5t37.5 -117.5q0 -42 -14.5 -80.5t-43 -68t-70 -47.5t-95.5 -18q-114 0 -169.5 55.5t-62.5 152.5h138q2 -45 24.5 -68.5
t67.5 -23.5q16 0 31.5 6t28 19t20 33t7.5 48q0 49 -29 76t-90 27h-46v110h47q48 0 76 24.5t28 62.5q0 39 -23.5 57.5t-50.5 18.5q-33 0 -53 -22.5t-21 -54.5h-136z" />
    <glyph glyph-name="four.pnum" horiz-adv-x="525" 
d="M411 116v-116h-130v116h-249v111l251 455h128v-450h78v-116h-78zM151 232h130v174q0 30 1.5 47.5t2.5 38.5h-5q-8 -22 -18 -46.5t-23 -48.5z" />
    <glyph glyph-name="five.pnum" horiz-adv-x="524" 
d="M207 433q7 2 21 3t22 1q109 0 166.5 -56t57.5 -159q0 -49 -15 -92t-43 -75.5t-68 -51.5t-89 -19q-99 0 -153.5 52.5t-61.5 150.5h140q5 -46 25 -63.5t52 -17.5q29 0 53 25t24 83q0 20 -6 39t-20 33.5t-36.5 23.5t-55.5 9q-42 0 -80 -5.5t-69 -14.5l32 383h331v-122h-216z
" />
    <glyph glyph-name="six.pnum" horiz-adv-x="545" 
d="M38 225q0 22 4.5 46t15 54t28.5 68.5t45 88.5l107 200h137l-121 -225q12 3 34 3q49 0 89.5 -17.5t69.5 -49t44.5 -74.5t15.5 -94q0 -50 -16.5 -93.5t-47 -76.5t-74 -52t-97.5 -19t-97.5 17t-73.5 48.5t-46.5 76t-16.5 99.5zM172 224q0 -62 28 -92t72 -30q42 0 71.5 30
t29.5 92q0 57 -28.5 89.5t-72.5 32.5q-46 0 -73 -35t-27 -87z" />
    <glyph glyph-name="seven.pnum" horiz-adv-x="472" 
d="M442 568l-216 -568h-143l226 560h-273v122h406v-114z" />
    <glyph glyph-name="eight.pnum" horiz-adv-x="541" 
d="M181 495q0 -40 24.5 -64.5t65.5 -24.5t65 25.5t24 63.5t-25.5 63.5t-63.5 25.5q-39 0 -64.5 -25.5t-25.5 -63.5zM180 197q0 -48 26 -73t64 -25t64.5 24.5t26.5 73.5q0 48 -26 74t-64 26q-39 0 -65 -26t-26 -74zM499 195q0 -45 -14.5 -83.5t-43.5 -66.5t-71.5 -44
t-99.5 -16q-52 0 -94 14t-72 41t-46 66t-16 88q0 56 29.5 99.5t78.5 63.5v3q-22 9 -39.5 24.5t-29.5 35.5t-18.5 43t-6.5 47q0 42 14.5 76.5t42.5 59t67.5 38.5t90.5 14t91 -15.5t67 -41.5t41.5 -60t14.5 -71q0 -53 -26.5 -93t-68.5 -57v-3q57 -24 83 -67t26 -95z" />
    <glyph glyph-name="nine.pnum" horiz-adv-x="545" 
d="M507 457q0 -22 -4.5 -46t-15 -54t-28.5 -68.5t-45 -88.5l-107 -200h-137l121 225q-12 -3 -34 -3q-50 0 -90 17.5t-69 49t-44.5 74.5t-15.5 94q0 49 16.5 93t47 77t74 52t97.5 19t97.5 -17t73.5 -48.5t46.5 -76t16.5 -99.5zM373 458q0 62 -28 92t-72 30q-42 0 -71.5 -30
t-29.5 -92q0 -57 28.5 -89.5t72.5 -32.5q46 0 73 35t27 87z" />
    <glyph glyph-name="percent.aalt" horiz-adv-x="710" 
d="M600 562l-400 -562h-88l399 562h89zM28 421q0 42 13.5 71.5t35 48.5t47.5 28t51 9q24 0 49 -8t45.5 -26.5t34 -48t13.5 -72.5q0 -48 -14.5 -79t-36.5 -49.5t-47 -26t-46 -7.5q-24 0 -49.5 8.5t-47 27t-35 49t-13.5 75.5zM222 420q0 74 -49 74q-22 0 -36 -16t-14 -57
t12.5 -58.5t38.5 -17.5q20 0 34 16.5t14 58.5zM393 144q0 42 13.5 71.5t35 48.5t47.5 28t51 9q24 0 49 -8t45.5 -26.5t34 -48t13.5 -72.5q0 -48 -14.5 -79t-36.5 -49.5t-47 -26t-46 -7.5q-24 0 -49.5 8.5t-47 27t-35 49t-13.5 75.5zM587 143q0 74 -49 74q-22 0 -36 -16
t-14 -57t12.5 -58.5t38.5 -17.5q20 0 34 16.5t14 58.5z" />
    <glyph glyph-name="perthousand.aalt" horiz-adv-x="1045" 
d="M600 562l-400 -562h-88l399 562h89zM28 421q0 42 13.5 71.5t35 48.5t47.5 28t51 9q24 0 49 -8t45.5 -26.5t34 -48t13.5 -72.5q0 -48 -14.5 -79t-36.5 -49.5t-47 -26t-46 -7.5q-24 0 -49.5 8.5t-47 27t-35 49t-13.5 75.5zM222 420q0 74 -49 74q-22 0 -36 -16t-14 -57
t12.5 -58.5t38.5 -17.5q20 0 34 16.5t14 58.5zM393 144q0 42 13.5 71.5t35 48.5t47.5 28t51 9q24 0 49 -8t45.5 -26.5t34 -48t13.5 -72.5q0 -48 -14.5 -79t-36.5 -49.5t-47 -26t-46 -7.5q-24 0 -49.5 8.5t-47 27t-35 49t-13.5 75.5zM587 143q0 74 -49 74q-22 0 -36 -16
t-14 -57t12.5 -58.5t38.5 -17.5q20 0 34 16.5t14 58.5zM728 144q0 42 13.5 71.5t35 48.5t47.5 28t51 9q24 0 49 -8t45.5 -26.5t34 -48t13.5 -72.5q0 -48 -14.5 -79t-36.5 -49.5t-47 -26t-46 -7.5q-24 0 -49.5 8.5t-47 27t-35 49t-13.5 75.5zM922 143q0 74 -49 74
q-22 0 -36 -16t-14 -57t12.5 -58.5t38.5 -17.5q20 0 34 16.5t14 58.5z" />
    <glyph glyph-name="zero.oldstyle" horiz-adv-x="525" 
d="M26 257q0 64 18 115.5t49.5 87.5t74.5 55t94 19q52 0 96 -19.5t75 -55.5t48.5 -87t17.5 -115q0 -63 -17.5 -114.5t-49 -88.5t-75 -57t-95.5 -20q-51 0 -94.5 19.5t-75 56t-49 88t-17.5 116.5zM162 255q0 -77 28.5 -119t71.5 -42q48 0 74.5 43t26.5 118q0 73 -26.5 117.5
t-74.5 44.5t-74 -43t-26 -119z" />
    <glyph glyph-name="one.oldstyle" horiz-adv-x="525" 
d="M203 390h-113v122h251v-512h-138v390z" />
    <glyph glyph-name="two.oldstyle" horiz-adv-x="525" 
d="M63 97l171 122q53 38 73 66t20 60q0 26 -15.5 43.5t-44.5 17.5q-65 0 -68 -76h-135q1 42 14.5 78t38.5 62t63 41t89 15q47 0 83.5 -13.5t61.5 -36.5t38 -54t13 -65q0 -30 -6.5 -55t-21 -48.5t-38 -46.5t-57.5 -47l-52 -37h187v-123h-414v97z" />
    <glyph glyph-name="three.oldstyle" horiz-adv-x="525" 
d="M65 340q2 91 55.5 138.5t140.5 47.5q47 0 84 -12.5t62.5 -35.5t39 -55t13.5 -71q0 -51 -26.5 -90.5t-69.5 -52.5v-2q63 -19 93 -66.5t30 -119.5q0 -51 -16.5 -93.5t-47 -73t-73 -47.5t-93.5 -17q-107 0 -163 55t-62 155h131q4 -50 28 -73t66 -23q40 0 67 29.5t27 89.5
q0 57 -33.5 90t-90.5 33h-40v110h35q51 0 76.5 23.5t25.5 60.5q0 34 -17.5 53t-47.5 19q-31 0 -46.5 -19t-17.5 -53h-130z" />
    <glyph glyph-name="four.oldstyle" horiz-adv-x="525" 
d="M411 26v-180h-130v180h-249v111l251 375h128v-370h78v-116h-78zM154 142h127v110q0 30 1 47.5t3 38.5h-5q-7 -16 -17 -33.5t-26 -40.5z" />
    <glyph glyph-name="five.oldstyle" horiz-adv-x="525" 
d="M203 262q11 3 28 5t29 2q48 0 88 -14.5t69.5 -44.5t46 -75.5t16.5 -106.5q0 -55 -18 -99t-49 -75t-72.5 -47.5t-87.5 -16.5q-106 0 -162.5 60t-61.5 161h131q2 -55 23.5 -82t67.5 -27q37 0 65 30.5t28 96.5q0 63 -28.5 95.5t-86.5 32.5q-18 0 -40 -2t-44 -5t-43 -7.5
t-39 -10.5l36 380h334v-122h-217z" />
    <glyph glyph-name="six.oldstyle" horiz-adv-x="525" 
d="M28 225q0 22 4.5 46t15 54t28.5 68.5t45 88.5l107 200h137l-121 -225q12 3 34 3q49 0 89.5 -17.5t69.5 -49t44.5 -74.5t15.5 -94q0 -50 -16.5 -93.5t-47 -76.5t-74 -52t-97.5 -19t-97.5 17t-73.5 48.5t-46.5 76t-16.5 99.5zM162 224q0 -62 28 -92t72 -30q42 0 71.5 30
t29.5 92q0 57 -28.5 89.5t-72.5 32.5q-46 0 -73 -35t-27 -87z" />
    <glyph glyph-name="seven.oldstyle" horiz-adv-x="525" 
d="M466 398l-216 -592h-143l226 584h-273v122h406v-114z" />
    <glyph glyph-name="eight.oldstyle" horiz-adv-x="525" 
d="M198 510q0 -37 17 -55t46 -18t48 19t19 55t-19 54.5t-47 18.5q-27 0 -45.5 -18.5t-18.5 -55.5zM170 215q0 -31 8 -53t21 -36.5t29.5 -21t33.5 -6.5q36 0 64.5 28t28.5 89q0 53 -26.5 82.5t-66.5 29.5q-42 0 -67 -30.5t-25 -81.5zM493 202q0 -50 -16 -90t-45.5 -68.5
t-72.5 -44t-97 -15.5t-96.5 15.5t-72 44t-45.5 68.5t-16 90q0 61 30 108t82 68v2q-33 17 -56 53.5t-23 82.5q0 40 14 73.5t40 57.5t62.5 37.5t80.5 13.5q45 0 81.5 -13.5t62.5 -37.5t40 -57.5t14 -73.5q0 -46 -22 -82.5t-57 -53.5v-2q54 -20 83 -67.5t29 -108.5z" />
    <glyph glyph-name="nine.oldstyle" horiz-adv-x="525" 
d="M497 293q0 -22 -4.5 -46t-15 -54t-28.5 -68.5t-45 -88.5l-123 -230h-137l137 255q-12 -3 -34 -3q-50 0 -90 17.5t-69 49t-44.5 74.5t-15.5 94q0 49 16.5 93t47 77t74 52t97.5 19t97.5 -17t73.5 -48.5t46.5 -76t16.5 -99.5zM363 294q0 62 -28 92t-72 30q-42 0 -71.5 -30
t-29.5 -92q0 -57 28.5 -89.5t72.5 -32.5q46 0 73 35t27 87z" />
    <glyph glyph-name="zero.dnom" 
d="M24 221q0 62 14.5 105.5t38 70.5t53 39t60.5 12q27 0 54.5 -11t50 -37.5t37 -70t14.5 -108.5q0 -71 -16 -117t-40.5 -72t-52.5 -36t-52 -10q-28 0 -56.5 11t-52 38t-38 72t-14.5 114zM241 219q0 80 -15.5 112t-40.5 32q-11 0 -21 -6.5t-17.5 -22.5t-12.5 -43t-5 -68
q0 -44 4.5 -73t12 -46.5t18 -24.5t22.5 -7q10 0 20 6.5t17.5 23.5t12.5 45t5 72z" />
    <glyph glyph-name="one.dnom" 
d="M140 348h-63v86h166v-434h-103v348z" />
    <glyph glyph-name="two.dnom" 
d="M44 67l119 145q22 26 38 51.5t16 51.5q0 21 -10 34t-27 13q-21 0 -30 -16.5t-10 -43.5h-100q0 30 9 56t26.5 46t44.5 31.5t65 11.5q31 0 56.5 -10t44 -27t28.5 -41t10 -51q0 -20 -4 -37t-13 -33.5t-23 -35t-34 -41.5l-74 -84h154v-87h-286v67z" />
    <glyph glyph-name="three.dnom" 
d="M40 316q2 59 38 95t102 36q68 0 103.5 -32t35.5 -82q0 -36 -21.5 -61t-51.5 -32v-3q42 -11 64 -40t22 -71q0 -27 -9.5 -52.5t-29 -45t-48 -31t-67.5 -11.5q-74 0 -110 38t-40 104h100q2 -30 14 -45.5t36 -15.5q23 0 36.5 18t13.5 48q0 25 -15 43t-50 18h-27v77h26
q26 0 39 13t13 36q0 20 -9 33.5t-28 13.5q-20 0 -28 -14t-10 -37h-99z" />
    <glyph glyph-name="four.dnom" 
d="M289 70v-70h-98v70h-175v78l180 286h93v-283h55v-81h-55zM94 151h97v100q0 19 0.5 30.5t1.5 25.5h-4q-6 -13 -16.5 -31.5t-18.5 -30.5z" />
    <glyph glyph-name="five.dnom" 
d="M160 284q4 1 12.5 2t13.5 1q66 0 102.5 -41t36.5 -107q0 -30 -10 -57.5t-29 -49t-46.5 -34t-63.5 -12.5t-62.5 11t-44 29t-26.5 42t-10 50h103q2 -20 10.5 -32t28.5 -12q18 0 30 16.5t12 44.5q0 32 -17 49.5t-55 17.5q-21 0 -43 -2t-45 -8l23 242h211v-86h-123z" />
    <glyph glyph-name="six.dnom" 
d="M25 144q0 45 15 82.5t42 76.5l93 131h108l-94 -134q4 2 12 2h13q59 -3 94.5 -47t35.5 -111q0 -32 -11 -60.5t-31.5 -50t-50.5 -34.5t-68 -13q-37 0 -66 12t-49.5 33t-31.5 50t-11 63zM126 144q0 -34 17.5 -54t40.5 -20q26 0 42.5 20.5t16.5 53.5q0 34 -16.5 55.5
t-42.5 21.5q-25 0 -41.5 -21.5t-16.5 -55.5z" />
    <glyph glyph-name="seven.dnom" 
d="M325 357l-152 -357h-114l157 348h-171v86h280v-77z" />
    <glyph glyph-name="eight.dnom" 
d="M140 316q0 -26 13 -39t31 -13q21 0 33 13.5t12 38.5q0 26 -13 39t-32 13t-31.5 -13t-12.5 -39zM135 127q0 -33 14 -48t36 -15t36 14.5t14 48.5q0 32 -14 48.5t-36 16.5q-21 0 -35.5 -16.5t-14.5 -48.5zM339 122q0 -26 -10 -50.5t-29.5 -43.5t-49.5 -30.5t-70 -11.5
q-38 0 -65.5 10.5t-46.5 28.5t-28 42.5t-9 51.5q0 40 19.5 70.5t56.5 44.5v1q-31 13 -48.5 35.5t-17.5 53.5q0 25 9.5 47.5t27.5 39t44.5 26t60.5 9.5t61 -9.5t46 -25.5t28.5 -37t9.5 -44q0 -36 -20 -60.5t-49 -35.5v-1q45 -14 62.5 -43.5t17.5 -67.5z" />
    <glyph glyph-name="nine.dnom" 
d="M343 290q0 -45 -15 -82.5t-42 -76.5l-93 -131h-108l94 134q-4 -2 -12 -2h-13q-59 3 -94.5 47t-35.5 111q0 31 11 60t31.5 50.5t50.5 34.5t68 13q37 0 66 -12t49.5 -33t31.5 -50t11 -63zM242 290q0 34 -17.5 54t-40.5 20q-26 0 -42.5 -20.5t-16.5 -53.5q0 -34 16.5 -55.5
t42.5 -21.5q25 0 41.5 21.5t16.5 55.5z" />
    <glyph glyph-name="zero.numr" 
d="M24 468q0 62 14.5 105.5t38 70.5t53 39t60.5 12q27 0 54.5 -11t50 -37.5t37 -70t14.5 -108.5q0 -71 -16 -116.5t-40.5 -71.5t-52.5 -36t-52 -10q-28 0 -56.5 11t-52 37.5t-38 71.5t-14.5 114zM241 466q0 80 -15.5 112t-40.5 32q-11 0 -21 -6.5t-17.5 -22.5t-12.5 -43
t-5 -68q0 -44 4.5 -73t12 -46t18 -24t22.5 -7q10 0 20 6.5t17.5 23t12.5 44.5t5 72z" />
    <glyph glyph-name="one.numr" 
d="M140 596h-63v86h166v-434h-103v348z" />
    <glyph glyph-name="two.numr" 
d="M44 315l119 145q22 26 38 51.5t16 51.5q0 21 -10 34t-27 13q-21 0 -30 -16.5t-10 -43.5h-100q0 30 9 56t26.5 46t44.5 31.5t65 11.5q31 0 56.5 -10t44 -27t28.5 -41t10 -51q0 -20 -4 -37t-13 -33.5t-23 -35t-34 -41.5l-74 -84h154v-87h-286v67z" />
    <glyph glyph-name="three.numr" 
d="M40 564q2 59 38 95t102 36q68 0 103.5 -32t35.5 -82q0 -36 -21.5 -61t-51.5 -32v-3q42 -11 64 -40t22 -71q0 -27 -9.5 -52.5t-29 -45t-48 -31t-67.5 -11.5q-74 0 -110 38t-40 104h100q2 -30 14 -45.5t36 -15.5q23 0 36 18t13 48q0 25 -14.5 43t-49.5 18h-27v77h26
q26 0 39 13t13 36q0 20 -9 33.5t-28 13.5q-20 0 -28 -14t-10 -37h-99z" />
    <glyph glyph-name="four.numr" 
d="M289 318v-70h-98v70h-175v78l180 286h93v-283h55v-81h-55zM94 399h97v110q0 13 0.5 23.5t1.5 24.5h-3q-6 -13 -17 -32.5t-19 -31.5z" />
    <glyph glyph-name="five.numr" 
d="M160 532q4 1 12.5 2t13.5 1q66 0 102.5 -41t36.5 -107q0 -30 -10 -57.5t-29 -49t-46.5 -34t-63.5 -12.5t-62.5 11t-44 29t-26.5 42t-10 50h103q2 -20 10.5 -32t28.5 -12q18 0 30 16.5t12 44.5q0 32 -17 49.5t-55 17.5q-21 0 -43 -2t-45 -8l23 242h211v-86h-123z" />
    <glyph glyph-name="six.numr" 
d="M25 392q0 45 15 82.5t42 76.5l93 131h108l-94 -134q4 2 12 2h13q59 -3 94.5 -47t35.5 -111q0 -32 -11 -60.5t-31.5 -50t-50.5 -34.5t-68 -13q-37 0 -66 12t-49.5 33t-31.5 50t-11 63zM126 392q0 -34 17.5 -54t40.5 -20q26 0 42.5 20.5t16.5 53.5q0 34 -16.5 55.5
t-42.5 21.5q-25 0 -41.5 -21.5t-16.5 -55.5z" />
    <glyph glyph-name="seven.numr" 
d="M325 605l-152 -357h-114l157 348h-171v86h280v-77z" />
    <glyph glyph-name="eight.numr" 
d="M140 565q0 -26 13 -39t31 -13q21 0 33 13.5t12 38.5q0 26 -13 39t-32 13t-31.5 -13t-12.5 -39zM135 376q0 -33 14 -48t36 -15t36 14.5t14 48.5q0 32 -14 48.5t-36 16.5q-21 0 -35.5 -16.5t-14.5 -48.5zM339 371q0 -26 -10 -50.5t-29.5 -43.5t-49.5 -30.5t-70 -11.5
q-38 0 -65.5 10.5t-46.5 28.5t-28 42.5t-9 51.5q0 40 19.5 70.5t56.5 44.5v1q-31 13 -48.5 35.5t-17.5 53.5q0 25 9.5 47.5t27.5 39t44.5 26t60.5 9.5t61 -9.5t46 -25.5t28.5 -37t9.5 -44q0 -36 -20 -60.5t-49 -35.5v-1q45 -14 62.5 -43.5t17.5 -67.5z" />
    <glyph glyph-name="nine.numr" 
d="M343 537q0 -45 -14.5 -83t-42.5 -76l-93 -130h-108l94 133q-4 -2 -12 -2h-13q-59 3 -94.5 47t-35.5 111q0 31 11 60t31.5 50.5t50.5 34.5t68 13q37 0 66 -12t49.5 -33t31.5 -50t11 -63zM242 537q0 34 -17.5 54t-40.5 20q-26 0 -42.5 -20.5t-16.5 -53.5q0 -34 16.5 -55.5
t42.5 -21.5q25 0 41.5 21.5t16.5 55.5z" />
    <glyph glyph-name="parenleft.aalt" horiz-adv-x="315" 
d="M178 -161q-32 51 -56 110t-40 121t-24 125t-8 122q0 60 8 123.5t24 125.5t40 120.5t56 110.5h117q-34 -52 -57.5 -110.5t-38.5 -120.5t-22 -125.5t-7 -123.5q0 -61 7.5 -123.5t23 -123.5t39 -119.5t55.5 -111.5h-117z" />
    <glyph glyph-name="parenright.aalt" horiz-adv-x="315" 
d="M137 797q32 -51 56 -110t40 -121t24 -125t8 -122q0 -60 -8 -123.5t-24 -125.5t-40 -120.5t-56 -110.5h-117q66 111 95.5 235t29.5 245q0 59 -7 122t-22 125t-38.5 121t-57.5 110h117z" />
    <glyph glyph-name="bracketleft.aalt" horiz-adv-x="320" 
d="M275 675h-90v-714h90v-107h-210v928h210v-107z" />
    <glyph glyph-name="bracketright.aalt" horiz-adv-x="320" 
d="M45 -39h90v714h-90v107h210v-928h-210v107z" />
    <glyph glyph-name="braceleft.aalt" horiz-adv-x="325" 
d="M286 681q-36 -1 -51.5 -19.5t-15.5 -55.5v-159q0 -45 -19 -80t-55 -49v-2q32 -11 53 -44t21 -86v-156q0 -37 15.5 -56t51.5 -19v-116q-41 0 -74.5 11.5t-57.5 33t-37 52t-13 68.5v171q0 34 -18 59t-53 26v114q35 1 53 26t18 58v172q0 35 9 65t30.5 52.5t56.5 36t86 13.5
v-116z" />
    <glyph glyph-name="braceright.aalt" horiz-adv-x="325" 
d="M39 797q51 0 86 -13.5t56.5 -36t30.5 -52.5t9 -65v-172q0 -33 18 -58t53 -26v-114q-35 -1 -53 -26t-18 -59v-171q0 -38 -13.5 -68.5t-37.5 -52t-57.5 -33t-73.5 -11.5v116q36 0 51 19t15 56v156q0 53 21 86t53 44v2q-35 14 -54.5 49t-19.5 80v159q0 37 -15 55.5t-51 19.5
v116z" />
    <glyph glyph-name="glyph468" horiz-adv-x="244" 
d="M189 552h-134v130h134v-130zM52 0l13 472h114l13 -472h-140z" />
    <glyph glyph-name="glyph469" horiz-adv-x="406" 
d="M112 341q26 28 33.5 58t7.5 73h113q0 -55 -7.5 -93.5t-33.5 -70.5q-19 -24 -32 -41.5t-20.5 -33.5t-10.5 -31.5t-3 -34.5q0 -32 15 -47.5t36 -15.5q24 0 40 19.5t16 64.5h125q-2 -100 -50 -152t-134 -52q-83 0 -132.5 46.5t-49.5 128.5q0 30 5.5 54t17 45t27.5 41t37 42z
M276 552h-133v130h133v-130z" />
    <glyph glyph-name="guillemotleft.aalt" horiz-adv-x="461" 
d="M145 553l83 -35l-68 -177l68 -177l-83 -35l-114 212zM336 553l83 -35l-68 -177l68 -177l-83 -35l-114 212z" />
    <glyph glyph-name="guillemotright.aalt" horiz-adv-x="461" 
d="M125 129l-83 35l68 177l-68 177l83 35l114 -212zM316 129l-83 35l68 177l-68 177l83 35l114 -212z" />
    <glyph glyph-name="guilsinglleft.aalt" horiz-adv-x="270" 
d="M145 553l83 -35l-68 -177l68 -177l-83 -35l-114 212z" />
    <glyph glyph-name="guilsinglright.aalt" horiz-adv-x="270" 
d="M125 129l-83 35l68 177l-68 177l83 35l114 -212z" />
    <glyph glyph-name="hyphen.aalt" horiz-adv-x="392" 
d="M59 302v105h274v-105h-274z" />
    </font>
</defs>
</svg>
